SplineFontDB: 3.2
FontName: AeMRoman10-Italic
FullName: AeMRoman10-Italic
FamilyName: AeMRoman10
Weight: Normal
Copyright: Copyright 2021 Palle Jorgensen.\n\nBased on the Latin Modern fonts, copyright 2003, 2009 B. Jackowski and J. M. Nowacki (on behalf of TeX users groups). This work is released under the GUST Font License --  see http://tug.org/fonts/licenses/GUST-FONT-LICENSE.txt for details.\n\nThe ae-ligature is from the cm-super fonts, copyright 2001, 2002, 2008 Vladimir Volovich released under GPL.
Version: 1
ItalicAngle: -14.0362
UnderlinePosition: -146
UnderlineWidth: 40
Ascent: 806
Descent: 194
InvalidEm: 0
LayerCount: 2
Layer: 0 0 "Back" 1
Layer: 1 0 "Fore" 0
XUID: [1021 259 529409426 8913016]
StyleMap: 0x0001
FSType: 12
OS2Version: 3
OS2_WeightWidthSlopeOnly: 0
OS2_UseTypoMetrics: 0
CreationTime: 1254995898
ModificationTime: 1614844993
PfmFamily: 81
TTFWeight: 400
TTFWidth: 5
LineGap: 0
VLineGap: 0
Panose: 0 0 5 0 0 0 0 0 0 0
OS2TypoAscent: 806
OS2TypoAOffset: 0
OS2TypoDescent: -194
OS2TypoDOffset: 0
OS2TypoLinegap: 200
OS2WinAscent: 1125
OS2WinAOffset: 0
OS2WinDescent: 290
OS2WinDOffset: 0
HheadAscent: 1125
HheadAOffset: 0
HheadDescent: -290
HheadDOffset: 0
OS2SubXSize: 650
OS2SubYSize: 600
OS2SubXOff: -19
OS2SubYOff: 75
OS2SupXSize: 650
OS2SupYSize: 600
OS2SupXOff: 87
OS2SupYOff: 350
OS2StrikeYSize: 40
OS2StrikeYPos: 258
OS2CapHeight: 683
OS2XHeight: 431
OS2Vendor: 'UKWN'
OS2CodePages: 20000193.00000000
OS2UnicodeRanges: 20000007.00000000.00000000.00000000
Lookup: 1 0 0 "'aalt' Access All Alternates lookup 0" { "'aalt' Access All Alternates lookup 0 subtable"  } ['aalt' ('DFLT' <'dflt' > 'cyrl' <'dflt' > 'latn' <'AZE ' 'CRT ' 'MOL ' 'NLD ' 'PLK ' 'ROM ' 'TRK ' 'dflt' > ) ]
Lookup: 3 0 0 "'aalt' Access All Alternates lookup 1" { "'aalt' Access All Alternates lookup 1 subtable"  } ['aalt' ('DFLT' <'dflt' > 'cyrl' <'dflt' > 'latn' <'AZE ' 'CRT ' 'MOL ' 'NLD ' 'PLK ' 'ROM ' 'TRK ' 'dflt' > ) ]

StartChar: acute.dup
Encoding: 65537 -1 1
Width: 511
Flags: MW
HStem: 505 21G<340.5 345.5> 676 20G<504 517>
LayerCount: 2
Fore
SplineSet
539 668 m 0
 539 651 528 642 519 636 c 2
 358 513 l 2
 349 505 347 505 344 505 c 0
 337 505 328 514 328 522 c 0
 328 525 328 527 338 537 c 2
 480 679 l 2
 489 688 497 696 511 696 c 0
 523 696 539 686 539 668 c 0
EndSplineSet
EndChar

StartChar: AE.dup
Encoding: 65538 -1 2
Width: 883
Flags: MW
HStem: 0 31<359.5 367 367 390 529 620 620 691.5> 313 31<360 488 342 495 573 647> 652 31<448 924 458 476 672.5 689 689 779>
LayerCount: 2
Fore
SplineSet
892 247 m 2
 892 247 889 237 888 235 c 2
 799 16 l 2
 792 1 791 0 771 0 c 2
 367 0 l 2
 351 0 342 0 342 12 c 0
 342 31 354 31 365 31 c 0
 415 31 419 38 427 69 c 2
 488 313 l 1
 342 313 l 1
 218 100 l 2
 213 91 205 75 205 64 c 0
 205 38 231 32 246 31 c 0
 254 30 262 30 262 19 c 0
 262 0 250 0 244 0 c 0
 214 0 182 3 151 3 c 0
 125 3 96 0 71 0 c 0
 62 0 59 6 59 13 c 0
 59 29 68 30 79 31 c 0
 121 35 155 48 193 113 c 2
 505 651 l 1
 497 652 485 652 476 652 c 2
 456 652 l 2
 440 652 430 652 430 664 c 0
 430 683 441 683 458 683 c 2
 924 683 l 2
 944 683 951 683 948 658 c 2
 925 481 l 2
 923 463 922 458 908 458 c 0
 904 458 892 458 892 470 c 2
 894 483 l 1
 900 552 l 2
 901 564 903 613 870 634 c 0
 849 648 812 652 779 652 c 2
 689 652 l 2
 656 652 649 652 640 616 c 2
 573 344 l 1
 649 344 l 2
 730 344 746 369 764 440 c 0
 769 458 770 461 783 461 c 0
 786 461 798 461 798 450 c 0
 798 447 797 440 796 437 c 2
 741 216 l 2
 736 197 732 196 722 196 c 0
 718 196 707 196 707 208 c 2
 707 208 707 211 709 218 c 0
 710 223 718 254 718 272 c 0
 718 298 711 313 647 313 c 2
 565 313 l 1
 502 63 l 2
 501 57 498 47 498 41 c 0
 498 34 498 31 529 31 c 2
 620 31 l 2
 763 31 798 96 850 221 c 0
 855 233 863 253 866 255 c 0
 869 258 873 258 877 258 c 0
 880 258 892 258 892 247 c 2
563 612 m 2
 564 615 565 625 565 629 c 0
 565 645 549 649 537 649 c 1
 360 344 l 1
 495 344 l 1
 563 612 l 2
EndSplineSet
EndChar

StartChar: ae.dup
Encoding: 65539 -1 3
Width: 716
Flags: MW
HStem: -11 22<218 251 481 530.5> 231 22<450 480 480 496 444 480> 420 22<609 638.5>
VStem: 92 73<65.5 117.5 48 129.5> 681 38<350.5 375.5>
LayerCount: 2
Fore
SplineSet
699 104 m 0
 699 90 622 -11 512 -11 c 0
 448 -11 414 34 401 60 c 1
 387 2 384 -11 358 -11 c 0
 350 -11 334 -7 334 12 c 0
 334 15 334 18 343 53 c 1
 342 54 l 1
 310 19 275 -11 227 -11 c 0
 156 -11 92 31 92 100 c 0
 92 159 151 316 434 415 c 1
 440 440 461 442 466 442 c 0
 475 442 490 437 490 419 c 0
 490 409 486 398 484 390 c 1
 508 409 559 442 619 442 c 0
 678 442 719 406 719 357 c 0
 719 344 716 284 642 253 c 0
 600 236 537 231 496 231 c 2
 444 231 l 1
 433 183 430 148 430 133 c 0
 430 82 449 11 513 11 c 0
 548 11 613 29 670 110 c 0
 676 117 678 120 683 120 c 0
 691 120 699 109 699 104 c 0
681 359 m 0
 681 392 659 420 618 420 c 0
 600 420 498 412 450 253 c 1
 480 253 l 2
 553 253 681 264 681 359 c 0
366 145 m 2
 427 389 l 1
 246 311 165 162 165 73 c 0
 165 23 206 11 230 11 c 0
 296 11 358 114 366 145 c 2
EndSplineSet
EndChar

StartChar: cedilla.dup
Encoding: 65540 -1 4
Width: 460
Flags: W
LayerCount: 2
Fore
SplineSet
336 -109 m 0
 336 -192 195 -192 140 -192 c 2
 115 -192 l 2
 111 -192 102 -191 102 -181 c 0
 102 -170 111 -170 127 -170 c 2
 137 -170 l 2
 169 -170 272 -170 272 -108 c 0
 272 -94 262 -74 224 -71 c 0
 217 -70 209 -70 209 -58 c 0
 209 -54 222 -5 224 4 c 0
 226 9 227 10 249 10 c 2
 262 10 l 2
 278 10 288 10 289 3 c 2
 275 -54 l 1
 317 -62 336 -83 336 -109 c 0
EndSplineSet
EndChar

StartChar: circumflex.dup
Encoding: 65541 -1 5
Width: 511
Flags: W
LayerCount: 2
Fore
SplineSet
527 536 m 2
 534 526 517 512 509 520 c 2
 411 619 l 1
 263 520 l 2
 251 512 241 526 252 536 c 2
 418 680 l 2
 423 684 430 684 433 680 c 2
 527 536 l 2
EndSplineSet
EndChar

StartChar: dieresis.dup
Encoding: 65542 -1 6
Width: 511
Flags: MW
HStem: 553 96<311.5 323 488.5 500>
LayerCount: 2
Fore
SplineSet
366 610 m 0
 366 581 337 553 309 553 c 0
 282 553 268 572 268 592 c 0
 268 621 297 649 326 649 c 0
 353 649 366 629 366 610 c 0
543 610 m 0
 543 581 514 553 486 553 c 0
 459 553 445 572 445 592 c 0
 445 621 474 649 503 649 c 0
 530 649 543 629 543 610 c 0
EndSplineSet
EndChar

StartChar: Gcedilla
Encoding: 65543 -1 7
Width: 774
Flags: MW
HStem: -290 21G<290.5 299.5> -145 79<349 355.5> -22 31<366.5 433 366.5 442> 242 31<524.5 532 532 540 739.5 750.5> 674 31<540.5 596 468 632>
VStem: 150 87<164.5 237 141.5 362.5>
LayerCount: 2
Fore
SplineSet
768 260 m 0
 768 242 757 242 744 242 c 0
 700 242 698 232 692 209 c 2
 644 18 l 2
 641 7 639 1 632 1 c 0
 621 1 599 37 590 61 c 1
 561 24 488 -22 396 -22 c 0
 254 -22 150 84 150 245 c 0
 150 480 365 705 571 705 c 0
 621 705 679 689 722 620 c 1
 785 694 l 2
 794 705 801 705 801 705 c 1
 811 705 812 695 812 695 c 2
 812 691 811 685 810 681 c 2
 749 438 l 2
 745 421 742 420 731 420 c 0
 726 420 716 420 716 430 c 0
 716 433 721 465 721 491 c 0
 721 578 685 674 579 674 c 0
 502 674 410 628 342 536 c 0
 261 425 237 266 237 208 c 0
 237 75 319 9 414 9 c 0
 452 9 507 21 550 60 c 0
 580 88 582 99 604 188 c 0
 612 216 612 218 612 222 c 0
 612 236 604 237 583 240 c 0
 570 241 553 242 540 242 c 2
 532 242 l 2
 517 242 506 242 506 253 c 0
 506 273 519 273 527 273 c 0
 570 273 615 270 658 270 c 0
 690 270 724 273 755 273 c 0
 764 273 768 268 768 260 c 0
399 -110 m 0
 399 -199 306 -290 293 -290 c 0
 288 -290 285 -285 285 -283 c 0
 285 -280 286 -279 295 -270 c 0
 330 -240 368 -192 379 -134 c 1
 375 -137 363 -145 348 -145 c 0
 333 -145 315 -138 315 -114 c 0
 315 -92 334 -66 364 -66 c 0
 388 -66 399 -85 399 -110 c 0
EndSplineSet
EndChar

StartChar: gcedilla
Encoding: 65544 -1 8
Width: 460
Flags: MW
HStem: -205 22<169.5 183.5 169.5 226.5> 0 22<207 257.5> 420 22<317.5 358.5 281 367> 511 79<386.5 393> 715 20G<442.5 451.5>
VStem: 110 68<110.5 133 103.5 223.5>
LayerCount: 2
Fore
SplineSet
427 559 m 0
 427 537 408 511 378 511 c 0
 354 511 343 530 343 555 c 0
 343 644 436 735 449 735 c 0
 454 735 457 730 457 728 c 0
 457 725 456 724 447 715 c 0
 412 685 374 637 363 579 c 1
 367 582 379 590 394 590 c 0
 409 590 427 583 427 559 c 0
374 -63 m 2
 355 -139 279 -205 174 -205 c 0
 90 -205 53 -187 53 -147 c 0
 53 -108 84 -94 102 -94 c 0
 128 -94 137 -113 137 -126 c 0
 137 -143 125 -164 105 -172 c 1
 132 -183 163 -183 176 -183 c 0
 191 -183 231 -183 271 -136 c 0
 299 -102 305 -81 317 -31 c 2
 338 53 l 1
 326 41 283 0 232 0 c 0
 157 0 110 68 110 153 c 0
 110 294 225 442 337 442 c 0
 380 442 407 414 421 385 c 1
 425 414 448 422 460 422 c 0
 470 422 487 417 487 396 c 0
 487 392 487 390 483 375 c 2
 374 -63 l 2
358 132 m 2
 403 314 l 1
 406 328 l 2
 406 336 397 420 337 420 c 0
 298 420 254 375 229 321 c 0
 208 274 178 157 178 109 c 0
 178 98 180 22 234 22 c 0
 289 22 350 100 358 132 c 2
EndSplineSet
EndChar

StartChar: germandbls.dup
Encoding: 65545 -1 9
Width: 537
Flags: MW
HStem: -205 22<34.5 68.5 34.5 94> -166 82 -11 22<340 380.5 340 393.5> 48 62 400 31<143.5 219 153 213> 683 22<388 466>
VStem: -20 84<-120 -119> 247 64<84 86.5> 394 49<323 333> 515 63<590 624>
LayerCount: 2
Fore
SplineSet
523 165 m 0
 523 90 442 -11 345 -11 c 0
 300 -11 247 11 247 63 c 0
 247 110 284 110 284 110 c 1
 300 110 311 98 311 84 c 1
 311 84 309 55 280 49 c 1
 294 12 336 11 344 11 c 0
 417 11 445 144 445 162 c 0
 445 192 427 214 419 224 c 0
 400 249 394 276 394 304 c 0
 394 362 415 386 454 424 c 0
 496 467 515 580 515 600 c 0
 515 648 491 683 441 683 c 0
 335 683 319 617 303 534 c 2
 206 37 l 2
 190 -47 143 -205 45 -205 c 0
 14 -205 -20 -186 -20 -141 c 0
 -20 -97 11 -84 30 -84 c 0
 46 -84 64 -94 64 -116 c 0
 64 -124 60 -160 15 -165 c 1
 15 -165 24 -183 45 -183 c 0
 92 -183 115 -104 140 25 c 2
 213 400 l 1
 151 400 l 2
 136 400 126 400 126 411 c 0
 126 431 137 431 153 431 c 2
 219 431 l 1
 242 548 l 2
 260 621 295 705 441 705 c 0
 522 705 578 660 578 591 c 0
 578 520 510 438 490 413 c 0
 463 381 443 357 443 335 c 0
 443 311 464 285 478 269 c 0
 495 247 523 212 523 165 c 0
EndSplineSet
EndChar

StartChar: hyphen.dup
Encoding: 65546 -1 10
Width: 358
Flags: MW
HStem: 187 56<103 314 119 304>
VStem: 86 253<193.5 237>
LayerCount: 2
Fore
SplineSet
331 199 m 0
 328 187 323 187 304 187 c 2
 112 187 l 2
 94 187 86 187 86 200 c 0
 86 205 91 224 93 230 c 0
 97 243 99 243 119 243 c 2
 314 243 l 2
 330 243 339 243 339 231 c 0
 339 227 333 205 331 199 c 0
EndSplineSet
EndChar

StartChar: Kcedilla
Encoding: 65547 -1 11
Width: 769
Flags: MW
HStem: -290 21G<288.5 297.5> -145 79<347 353.5> 0 31<81 95 294.5 316 490.5 500.5 691 695.5> 652 31<242.5 263.5 241 267.5 463 476.5>
VStem: 62 797<6 674.5>
LayerCount: 2
Fore
SplineSet
709 19 m 0
 709 4 701 0 692 0 c 0
 663 0 631 3 601 3 c 0
 564 3 525 0 489 0 c 0
 482 0 475 2 475 13 c 0
 475 31 487 31 494 31 c 0
 507 31 545 32 545 64 c 0
 545 67 545 69 539 84 c 2
 435 363 l 1
 296 248 l 1
 261 104 l 2
 256 86 248 54 248 48 c 0
 248 39 248 31 306 31 c 0
 326 31 333 31 333 18 c 0
 333 0 321 0 314 0 c 0
 275 0 234 3 194 3 c 0
 155 3 114 0 76 0 c 0
 73 0 62 0 62 12 c 0
 62 31 73 31 89 31 c 0
 157 31 163 39 171 73 c 2
 306 616 l 2
 310 630 310 632 310 635 c 0
 310 652 283 652 252 652 c 0
 233 652 225 652 225 664 c 0
 225 683 238 683 244 683 c 0
 283 683 324 680 364 680 c 0
 403 680 444 683 482 683 c 0
 489 683 496 681 496 670 c 0
 496 652 487 652 466 652 c 0
 403 652 395 644 387 612 c 2
 308 293 l 1
 660 586 l 2
 676 599 693 614 693 632 c 0
 693 646 681 651 667 652 c 0
 662 652 653 653 653 664 c 0
 653 683 666 683 672 683 c 0
 706 683 744 680 779 680 c 0
 802 680 827 683 848 683 c 0
 855 683 859 678 859 671 c 0
 859 654 849 653 841 652 c 0
 775 646 707 589 684 570 c 2
 500 417 l 1
 631 70 l 2
 643 39 655 32 691 31 c 0
 700 31 709 31 709 19 c 0
397 -110 m 0
 397 -199 304 -290 291 -290 c 0
 286 -290 283 -285 283 -283 c 0
 283 -280 284 -279 293 -270 c 0
 328 -240 366 -192 377 -134 c 1
 373 -137 361 -145 346 -145 c 0
 331 -145 313 -138 313 -114 c 0
 313 -92 332 -66 362 -66 c 0
 386 -66 397 -85 397 -110 c 0
EndSplineSet
EndChar

StartChar: kcedilla
Encoding: 65548 -1 12
Width: 460
Flags: MW
HStem: -290 21G<133.5 142.5> -145 79<192 198.5> -11 22<360.5 393> 326 81 420 22<412.5 446.5> 652 42
VStem: 294 64<141.5 174> 417 85<351.5 395>
LayerCount: 2
Fore
SplineSet
484 143 m 0
 484 140 470 79 448 41 c 0
 437 22 415 -11 371 -11 c 0
 334 -11 287 14 287 86 c 0
 287 96 287 103 291 120 c 0
 294 134 294 138 294 145 c 0
 294 203 230 224 193 229 c 1
 142 26 l 2
 140 17 133 -11 103 -11 c 0
 84 -11 75 4 75 15 c 2
 75 15 76 26 77 28 c 2
 225 618 l 1
 225 618 228 632 228 635 c 0
 228 645 226 652 178 652 c 0
 164 652 154 652 154 663 c 0
 154 682 165 683 177 684 c 2
 276 692 l 2
 279 693 289 694 292 694 c 0
 300 694 306 691 306 682 c 2
 306 682 304 672 303 669 c 2
 201 261 l 1
 236 278 252 294 309 360 c 0
 343 400 386 442 439 442 c 0
 484 442 502 408 502 382 c 0
 502 344 474 326 452 326 c 0
 426 326 417 345 417 358 c 0
 417 366 422 401 464 408 c 1
 464 408 456 420 437 420 c 0
 387 420 348 374 296 315 c 0
 269 284 248 263 225 249 c 1
 288 240 358 213 358 145 c 0
 358 132 358 131 353 110 c 0
 352 105 345 77 345 54 c 0
 345 34 347 11 374 11 c 0
 418 11 437 79 450 130 c 0
 456 152 457 153 469 153 c 0
 476 153 484 153 484 143 c 0
242 -110 m 0
 242 -199 149 -290 136 -290 c 0
 131 -290 128 -285 128 -283 c 0
 128 -280 129 -279 138 -270 c 0
 173 -240 211 -192 222 -134 c 1
 218 -137 206 -145 191 -145 c 0
 176 -145 158 -138 158 -114 c 0
 158 -92 177 -66 207 -66 c 0
 231 -66 242 -85 242 -110 c 0
EndSplineSet
EndChar

StartChar: Lcedilla
Encoding: 65549 -1 13
Width: 627
Flags: MW
HStem: -290 21G<217.5 226.5> -145 79<276 282.5> 0 31<81 87 87 123 277 358 358 436> 652 31<242.5 264 241 267.5 482.5 492>
VStem: 62 562<6 252>
LayerCount: 2
Fore
SplineSet
624 246 m 2
 620 233 l 1
 544 18 l 2
 538 1 537 0 515 0 c 2
 87 0 l 2
 71 0 62 0 62 12 c 0
 62 31 73 31 89 31 c 0
 157 31 163 39 171 73 c 2
 306 616 l 2
 310 630 310 632 310 635 c 0
 310 652 283 652 252 652 c 0
 233 652 225 652 225 664 c 0
 225 683 238 683 244 683 c 0
 284 683 326 680 367 680 c 0
 413 680 460 683 505 683 c 0
 509 683 520 683 520 671 c 0
 520 652 509 652 492 652 c 2
 482 652 l 2
 401 652 395 642 386 607 c 2
 250 63 l 2
 249 57 246 47 246 41 c 0
 246 34 246 31 277 31 c 2
 358 31 l 2
 514 31 557 147 589 236 c 0
 596 255 597 258 609 258 c 0
 612 258 624 258 624 246 c 2
326 -110 m 0
 326 -199 233 -290 220 -290 c 0
 215 -290 212 -285 212 -283 c 0
 212 -280 213 -279 222 -270 c 0
 257 -240 295 -192 306 -134 c 1
 302 -137 290 -145 275 -145 c 0
 260 -145 242 -138 242 -114 c 0
 242 -92 261 -66 291 -66 c 0
 315 -66 326 -85 326 -110 c 0
EndSplineSet
EndChar

StartChar: lcedilla
Encoding: 65550 -1 14
Width: 256
Flags: MW
HStem: -290 21G<31.5 40.5> -145 79<90 96.5> -11 22<167 194 167 197> 652 42
VStem: 94 60<52.5 55.5 45 86.5>
LayerCount: 2
Fore
SplineSet
280 143 m 0
 280 140 266 76 249 41 c 0
 236 16 216 -11 178 -11 c 0
 130 -11 94 26 94 79 c 0
 94 94 99 114 100 118 c 2
 225 618 l 1
 225 618 228 632 228 635 c 0
 228 645 226 652 178 652 c 0
 164 652 154 652 154 663 c 0
 154 682 165 683 177 684 c 2
 276 692 l 2
 279 693 289 694 292 694 c 0
 300 694 306 691 306 682 c 2
 306 682 304 672 303 669 c 2
 160 98 l 2
 154 74 154 59 154 52 c 0
 154 38 154 11 180 11 c 0
 208 11 227 53 244 123 c 2
 251 148 l 2
 254 153 260 153 265 153 c 0
 272 153 280 153 280 143 c 0
140 -110 m 0
 140 -199 47 -290 34 -290 c 0
 29 -290 26 -285 26 -283 c 0
 26 -280 27 -279 36 -270 c 0
 71 -240 109 -192 120 -134 c 1
 116 -137 104 -145 89 -145 c 0
 74 -145 56 -138 56 -114 c 0
 56 -92 75 -66 105 -66 c 0
 129 -66 140 -85 140 -110 c 0
EndSplineSet
EndChar

StartChar: macron.dup
Encoding: 65551 -1 15
Width: 511
Flags: MW
HStem: 586 30<256.5 547 267 545>
LayerCount: 2
Fore
SplineSet
572 605 m 0
 572 586 562 586 545 586 c 2
 265 586 l 2
 248 586 240 586 240 599 c 0
 240 616 250 616 267 616 c 2
 547 616 l 2
 562 616 572 616 572 605 c 0
EndSplineSet
EndChar

StartChar: Ncedilla
Encoding: 65552 -1 16
Width: 743
Flags: MW
HStem: -290 21G<275.5 284.5> -145 79<334 340.5> 0 31<77 81 77 90 267 271> 652 31<252 255.5 643.5 646 837 838.5>
VStem: 62 790<7.5 674>
LayerCount: 2
Fore
SplineSet
852 670 m 0
 852 653 840 652 837 652 c 0
 808 651 752 648 736 584 c 2
 596 20 l 2
 591 1 587 0 576 0 c 0
 562 0 561 2 556 17 c 2
 341 614 l 1
 212 99 l 2
 208 83 208 77 208 74 c 0
 208 59 210 33 267 31 c 0
 279 31 286 30 286 18 c 0
 286 0 274 0 268 0 c 0
 237 0 202 3 170 3 c 0
 139 3 105 0 75 0 c 0
 68 0 62 3 62 12 c 0
 62 30 73 31 81 31 c 0
 127 33 164 46 178 101 c 2
 310 631 l 2
 313 641 313 644 313 644 c 2
 313 652 259 652 252 652 c 0
 233 652 225 652 225 664 c 0
 225 683 236 683 252 683 c 2
 377 683 l 2
 398 683 399 682 405 666 c 2
 592 146 l 1
 702 585 l 2
 704 593 706 600 706 609 c 0
 706 630 698 650 646 652 c 0
 637 652 628 653 628 664 c 0
 628 683 641 683 646 683 c 0
 677 683 711 680 743 680 c 0
 775 680 808 683 839 683 c 0
 848 683 852 678 852 670 c 0
384 -110 m 0
 384 -199 291 -290 278 -290 c 0
 273 -290 270 -285 270 -283 c 0
 270 -280 271 -279 280 -270 c 0
 315 -240 353 -192 364 -134 c 1
 360 -137 348 -145 333 -145 c 0
 318 -145 300 -138 300 -114 c 0
 300 -92 319 -66 349 -66 c 0
 373 -66 384 -85 384 -110 c 0
EndSplineSet
EndChar

StartChar: ncedilla
Encoding: 65553 -1 17
Width: 562
Flags: MW
HStem: -290 21G<185.5 194.5> -145 79<244 250.5> -11 22<450.5 490 450.5 505.5> 420 22<169.5 198 373 433>
VStem: 383 56<47 52.5 33 79.5> 457 61<323 364.5>
LayerCount: 2
Fore
SplineSet
586 143 m 0
 586 138 552 -11 459 -11 c 0
 411 -11 383 25 383 69 c 0
 383 90 386 99 399 133 c 0
 413 173 457 292 457 354 c 0
 457 375 455 420 411 420 c 0
 335 420 290 345 276 321 c 0
 259 292 259 291 246 240 c 0
 241 218 235 197 230 175 c 2
 190 15 l 2
 183 -4 166 -11 154 -11 c 0
 134 -11 126 4 126 15 c 0
 126 18 127 23 129 29 c 2
 204 329 l 2
 208 345 211 364 211 380 c 0
 211 391 211 420 185 420 c 0
 154 420 135 371 117 301 c 0
 112 279 111 278 98 278 c 0
 93 278 83 278 83 288 c 2
 83 288 96 349 115 389 c 0
 131 419 151 442 187 442 c 0
 230 442 264 412 271 363 c 1
 284 382 332 442 414 442 c 0
 463 442 518 420 518 338 c 0
 518 280 477 168 457 115 c 0
 449 91 439 65 439 40 c 0
 439 26 440 11 461 11 c 0
 519 11 546 109 554 136 c 0
 558 151 558 153 571 153 c 0
 578 153 586 153 586 143 c 0
294 -110 m 0
 294 -199 201 -290 188 -290 c 0
 183 -290 180 -285 180 -283 c 0
 180 -280 181 -279 190 -270 c 0
 225 -240 263 -192 274 -134 c 1
 270 -137 258 -145 243 -145 c 0
 228 -145 210 -138 210 -114 c 0
 210 -92 229 -66 259 -66 c 0
 283 -66 294 -85 294 -110 c 0
EndSplineSet
EndChar

StartChar: OE.dup
Encoding: 65554 -1 18
Width: 985
Flags: MW
HStem: -22 22<352.5 396.5> 0 31<614 717 717 790> 339 31<664 758 656 761> 652 31<757.5 774 774 877> 683 22<495 581.5 471.5 605.5>
VStem: 162 91<158.5 341 156 353>
LayerCount: 2
Fore
SplineSet
994 247 m 2x70
 994 247 991 237 990 235 c 2
 901 16 l 2
 894 1 893 0 873 0 c 2
 541 0 l 2
 524 0 510 0 458 -12 c 0
 420 -21 403 -22 390 -22 c 0
 260 -22 162 81 162 236 c 0
 162 470 371 705 572 705 c 0x8c
 591 705 606 703 634 695 c 0
 674 685 686 683 712 683 c 2
 1026 683 l 2
 1046 683 1053 683 1050 658 c 2
 1027 481 l 2
 1025 463 1024 458 1010 458 c 0
 1006 458 994 458 994 470 c 2
 996 483 l 1
 1002 548 l 2
 1002 551 1008 609 972 633 c 0
 949 649 910 652 877 652 c 2
 774 652 l 2
 741 652 734 652 725 616 c 2
 664 370 l 1
 761 370 l 2
 850 370 868 396 887 468 c 0
 890 483 891 487 904 487 c 0
 910 487 920 487 920 475 c 0
 920 472 919 468 917 462 c 2
 862 241 l 2
 858 224 855 222 844 222 c 0
 840 222 828 222 828 234 c 2
 831 248 l 2
 837 269 839 287 839 294 c 0
 839 323 829 339 758 339 c 2
 656 339 l 1
 587 63 l 2
 586 57 583 47 583 41 c 0
 583 34 583 31 614 31 c 2
 717 31 l 2
 863 31 900 94 952 221 c 0
 957 233 965 253 968 255 c 0
 971 258 975 258 979 258 c 0
 982 258 994 258 994 247 c 2x70
630 523 m 2
 638 554 643 586 643 618 c 0
 643 641 643 683 568 683 c 0
 422 683 253 462 253 220 c 0
 253 92 307 0 398 0 c 0
 486 0 511 52 545 185 c 2
 630 523 l 2
EndSplineSet
EndChar

StartChar: oe.dup
Encoding: 65555 -1 19
Width: 716
Flags: MW
HStem: -12 22<206 252> -11 22<488 530.5 482 567> 231 22<454 481 481 495 448 481> 420 22<599.5 638.5> 421 22<314 359>
VStem: 108 68<102 125 87.5 215> 397 36 681 38<351.5 375.5>
LayerCount: 2
Fore
SplineSet
699 104 m 0x73
 699 90 622 -11 512 -11 c 0x71
 464 -11 414 13 386 88 c 1
 335 16 274 -12 230 -12 c 0
 151 -12 108 61 108 143 c 0
 108 287 223 443 339 443 c 0x8c
 387 443 425 415 445 355 c 1
 449 360 521 442 619 442 c 0
 678 442 719 406 719 357 c 0
 719 346 715 286 648 257 c 0
 608 239 554 231 495 231 c 2
 448 231 l 1
 435 177 433 138 433 129 c 0
 433 80 451 11 513 11 c 0
 548 11 613 29 670 110 c 0
 676 117 678 120 683 120 c 0
 691 120 699 109 699 104 c 0x73
681 359 m 0
 681 392 659 420 618 420 c 0
 581 420 492 392 454 253 c 1
 481 253 l 2
 555 253 681 265 681 359 c 0
397 325 m 0
 397 377 380 421 338 421 c 0
 290 421 247 361 225 309 c 0
 208 268 176 151 176 99 c 0
 176 76 181 10 231 10 c 0x8e
 284 10 328 80 340 102 c 0
 370 159 397 270 397 325 c 0
EndSplineSet
EndChar

StartChar: Oslash.dup
Encoding: 65556 -1 20
Width: 767
Flags: MW
HStem: -60 21G<126 130> -22 22<356.5 423 354.5 478> 683 22<515.5 571> 723 20G<806.5 812>
VStem: 148 73<207 224.5 185.5 352> 716 72<459 490.5>
LayerCount: 2
Fore
SplineSet
788 444 m 0
 788 203 578 -22 378 -22 c 0
 335 -22 276 -12 221 40 c 1
 177 -12 157 -33 151 -40 c 0
 133 -59 132 -60 128 -60 c 0
 124 -60 116 -56 116 -48 c 0
 116 -44 129 -29 137 -20 c 2
 205 59 l 1
 163 111 148 178 148 236 c 0
 148 468 355 705 560 705 c 0
 642 705 695 664 716 642 c 1
 795 734 l 2
 798 738 803 743 810 743 c 0
 814 743 822 739 822 731 c 0
 822 727 819 724 812 715 c 2
 732 623 l 1
 752 599 788 542 788 444 c 0
686 609 m 1
 648 673 588 683 554 683 c 0
 477 683 390 632 330 547 c 0
 248 429 221 255 221 194 c 0
 221 177 223 137 238 97 c 1
 686 609 l 1
716 487 m 0
 716 494 716 541 699 585 c 1
 251 73 l 1
 277 29 325 0 384 0 c 0
 462 0 548 51 606 132 c 0
 691 251 716 431 716 487 c 0
EndSplineSet
EndChar

StartChar: oslash.dup
Encoding: 65557 -1 21
Width: 511
Flags: MW
HStem: -107 21G<76 81> -12 22<250 314.5 250 315.5> 421 22<305 368.5> 518 20G<538.5 542.5>
VStem: 116 59<132 176.5 117 221.5> 444 58<256 310 206 315.5>
LayerCount: 2
Fore
SplineSet
502 281 m 0
 502 131 376 -12 255 -12 c 0
 226 -12 198 -4 174 14 c 1
 130 -45 130 -47 102 -85 c 0
 84 -106 83 -107 79 -107 c 0
 73 -107 68 -103 68 -97 c 0
 68 -94 68 -92 76 -83 c 2
 158 29 l 1
 126 65 116 114 116 150 c 0
 116 293 238 443 364 443 c 0
 392 443 420 435 445 417 c 1
 526 528 l 2
 534 538 537 538 540 538 c 0
 545 538 550 534 550 528 c 2
 550 528 550 524 542 513 c 2
 461 402 l 1
 483 377 502 339 502 281 c 0
423 389 m 1
 402 421 374 421 363 421 c 0
 247 421 175 232 175 121 c 0
 175 113 175 86 183 64 c 1
 423 389 l 1
444 311 m 0
 444 320 444 343 435 367 c 1
 195 42 l 1
 218 10 244 10 256 10 c 0
 373 10 444 201 444 311 c 0
EndSplineSet
EndChar

StartChar: quoteleft.dup
Encoding: 65558 -1 22
Width: 307
Flags: MW
HStem: 394 106<267.5 275> 673 20G<340.5 353.5>
VStem: 207 113<446.5 474 443.5 515.5>
LayerCount: 2
Fore
SplineSet
320 458 m 0
 320 429 295 394 255 394 c 0
 212 394 207 436 207 457 c 0
 207 574 331 693 350 693 c 0
 357 693 360 686 360 683 c 0
 360 679 359 678 346 666 c 0
 280 612 242 541 231 481 c 1
 241 491 259 500 276 500 c 0
 297 500 320 490 320 458 c 0
EndSplineSet
EndChar

StartChar: quoteright.dup
Encoding: 65559 -1 23
Width: 307
Flags: MW
HStem: 395 21G<226.5 239.5> 588 106<305 312.5>
VStem: 260 113<614 641.5 572.5 644.5>
LayerCount: 2
Fore
SplineSet
373 631 m 0
 373 514 249 395 230 395 c 0
 223 395 220 402 220 405 c 0
 220 409 221 410 234 422 c 0
 300 476 338 547 349 607 c 1
 339 597 321 588 304 588 c 0
 283 588 260 598 260 630 c 0
 260 659 285 694 325 694 c 0
 368 694 373 652 373 631 c 0
EndSplineSet
EndChar

StartChar: Rcedilla
Encoding: 65560 -1 24
Width: 729
Flags: MW
HStem: -290 21G<268.5 277.5> -145 79<327 333.5> -22 22<598 628.5> 0 31<82 96 292.5 314> 331 22<321 422 422 423 315 422> 652 31<253 268.5 456.5 498>
VStem: 485 109 628 90<555 574.5 498.5 605>
LayerCount: 2
Fore
SplineSet
723 92 m 0x27
 723 84 693 -22 609 -22 c 0xed
 546 -22 485 10 485 84 c 0
 485 103 489 117 500 164 c 0
 514 220 517 229 517 243 c 0
 517 315 465 331 423 331 c 2
 315 331 l 1
 250 68 l 2
 246 54 246 52 246 48 c 0
 246 39 246 31 304 31 c 0
 324 31 331 31 331 18 c 0
 331 0 319 0 312 0 c 0
 273 0 232 3 193 3 c 0
 155 3 115 0 77 0 c 0
 74 0 63 0 63 12 c 0
 63 31 74 31 90 31 c 0x1a
 158 31 164 39 172 73 c 2
 307 616 l 2
 311 630 311 632 311 635 c 0
 311 652 284 652 253 652 c 0
 234 652 226 652 226 664 c 0
 226 683 237 683 253 683 c 2
 517 683 l 2
 642 683 718 614 718 535 c 0
 718 462 650 375 508 339 c 1
 559 321 594 279 594 223 c 0
 594 202 589 158 586 135 c 0
 583 109 580 85 580 59 c 0
 580 27 583 0 613 0 c 0
 644 0 674 32 691 88 c 0
 694 100 695 105 708 105 c 0
 721 105 723 99 723 92 c 0x27
628 558 m 0
 628 652 530 652 466 652 c 0
 447 652 415 652 408 650 c 0
 401 648 393 646 386 616 c 2
 321 353 l 1
 422 353 l 2
 490 353 540 376 570 405 c 0
 624 459 628 552 628 558 c 0
377 -110 m 0
 377 -199 284 -290 271 -290 c 0
 266 -290 263 -285 263 -283 c 0
 263 -280 264 -279 273 -270 c 0
 308 -240 346 -192 357 -134 c 1
 353 -137 341 -145 326 -145 c 0
 311 -145 293 -138 293 -114 c 0
 293 -92 312 -66 342 -66 c 0
 366 -66 377 -85 377 -110 c 0
EndSplineSet
EndChar

StartChar: rcedilla
Encoding: 65561 -1 25
Width: 422
Flags: MW
HStem: -290 21G<57.5 66.5> -145 79<116 122.5> -11 21G<144 169> 326 79 420 22<169.5 198 356.5 392.5>
VStem: 405 84<359.5 360.5>
LayerCount: 2
Fore
SplineSet
489 379 m 0
 489 340 458 326 440 326 c 0
 414 326 405 345 405 358 c 0
 405 363 408 395 443 406 c 1
 423 420 395 420 390 420 c 0
 304 420 259 291 258 288 c 2
 193 26 l 2
 191 18 184 -11 154 -11 c 0
 134 -11 126 4 126 15 c 0
 126 18 127 23 129 29 c 2
 204 329 l 2
 208 345 211 364 211 380 c 0
 211 391 211 420 185 420 c 0
 154 420 135 371 117 301 c 0
 112 279 111 278 98 278 c 0
 93 278 83 278 83 288 c 2
 83 288 96 349 115 389 c 0
 131 419 151 442 187 442 c 0
 220 442 259 423 270 370 c 1
 286 392 322 442 391 442 c 0
 424 442 489 431 489 379 c 0
166 -110 m 0
 166 -199 73 -290 60 -290 c 0
 55 -290 52 -285 52 -283 c 0
 52 -280 53 -279 62 -270 c 0
 97 -240 135 -192 146 -134 c 1
 142 -137 130 -145 115 -145 c 0
 100 -145 82 -138 82 -114 c 0
 82 -92 101 -66 131 -66 c 0
 155 -66 166 -85 166 -110 c 0
EndSplineSet
EndChar

StartChar: tilde.dup
Encoding: 65562 -1 26
Width: 511
Flags: MW
HStem: 550 35<448 463> 550 100<426.5 560> 551 100 616 35<359 364.5>
LayerCount: 2
Fore
SplineSet
568 640 m 0x40
 568 631 486 550 440 550 c 0
 413 550 400 571 389 589 c 0
 380 604 372 616 357 616 c 0x90
 327 616 268 558 268 558 c 2
 263 554 260 551 255 551 c 0x20
 248 551 244 555 244 561 c 0
 244 572 297 615 297 615 c 2
 318 631 347 651 371 651 c 0
 398 651 410 633 425 608 c 0
 434 593 442 585 454 585 c 0x90
 484 585 541 639 544 643 c 0
 549 648 552 650 557 650 c 0
 563 650 568 646 568 640 c 0x40
EndSplineSet
EndChar

StartChar: A
Encoding: 65 65 27
Width: 743
Flags: MW
HStem: 0 31<456.5 472.5 657 676> 229 31<307 516 307 518 290 516> 696 20G<542 558>
VStem: 59 633<10.5 12>
LayerCount: 2
Fore
SplineSet
692 18 m 0
 692 0 680 0 674 0 c 0
 640 0 604 3 569 3 c 0
 531 3 491 0 454 0 c 0
 451 0 439 0 439 12 c 0
 439 31 451 31 462 31 c 0
 505 31 529 43 529 63 c 2
 518 229 l 1
 290 229 l 1
 218 103 l 2
 209 86 204 74 204 65 c 0
 204 34 240 32 246 31 c 0
 254 30 262 30 262 19 c 0
 262 0 249 0 244 0 c 0
 214 0 182 3 151 3 c 0
 125 3 96 0 71 0 c 0
 60 0 59 9 59 12 c 2
 59 12 60 30 71 31 c 0
 106 33 149 37 192 113 c 2
 524 698 l 2
 530 709 534 716 550 716 c 0
 566 716 567 713 568 691 c 2
 611 65 l 2
 613 39 616 31 668 31 c 0
 684 31 692 31 692 18 c 0
516 260 m 1
 493 587 l 1
 307 260 l 1
 516 260 l 1
EndSplineSet
Position2: "'cpsp' Capital Spacing lookup 0 subtable" dx=7 dy=0 dh=14 dv=0
EndChar

StartChar: a
Encoding: 97 97 28
Width: 511
Flags: MW
HStem: -11 22<197.5 237 411 440.5> 420 22<306.5 343 271.5 349>
VStem: 98 68<101.5 125 85 217>
LayerCount: 2
Fore
SplineSet
525 143 m 2
 525 143 513 83 495 45 c 0
 480 14 459 -11 422 -11 c 0
 387 -11 350 10 339 59 c 1
 299 10 255 -11 219 -11 c 0
 144 -11 98 59 98 144 c 0
 98 290 216 442 327 442 c 0
 359 442 391 426 410 383 c 1
 411 388 418 422 450 422 c 0
 460 422 477 417 477 396 c 0
 477 391 477 389 473 375 c 2
 405 103 l 2
 398 75 398 59 398 52 c 0
 398 38 398 11 424 11 c 0
 458 11 477 74 491 130 c 0
 497 152 498 153 510 153 c 0
 517 153 525 153 525 143 c 2
346 124 m 2
 393 313 l 2
 395 319 396 326 396 326 c 1
 396 368 371 420 327 420 c 0
 286 420 240 370 215 309 c 0
 197 267 166 150 166 100 c 0
 166 70 174 11 221 11 c 0
 276 11 338 92 346 124 c 2
EndSplineSet
EndChar

StartChar: ampersand
Encoding: 38 38 29
Width: 767
Flags: MW
HStem: -22 22<343.5 514 343.5 521> 242 78<558.5 567.5> 310 22<321 354.5 321 360> 439 22<352 375> 522 81<470.5 499 470.5 502> 694 22<377.5 439>
VStem: 126 76<124 184 95.5 194.5> 400 30<388 418.5> 490 31<306 339 306 348> 702 32<268 329>
LayerCount: 2
Fore
SplineSet
734 311 m 0x4480
 734 211 660 -22 382 -22 c 0
 217 -22 126 72 126 176 c 0
 126 213 147 305 219 383 c 1
 222 389 l 1
 222 389 222 391 220 396 c 0
 211 424 211 443 211 456 c 0
 211 582 317 716 424 716 c 0
 493 716 530 662 530 601 c 0
 530 583 527 522 477 522 c 0
 451 522 442 541 442 554 c 1
 442 554 442 603 499 603 c 1
 498 676 454 694 424 694 c 0
 331 694 272 530 269 427 c 1
 302 449 337 461 367 461 c 0
 403 461 430 439 430 401 c 0
 430 355 386 310 334 310 c 0
 287 310 256 339 253 342 c 1
 230 301 202 212 202 156 c 0
 202 35 304 0 383 0 c 0
 645 0 702 228 702 308 c 0
 702 350 692 394 650 448 c 1
 558 391 521 368 521 310 c 0xbfc0
 521 302 521 296 524 288 c 1
 531 306 548 320 569 320 c 0
 584 320 601 312 601 289 c 0
 601 265 582 242 553 242 c 0
 518 242 490 269 490 313 c 0
 490 383 557 425 606 455 c 0
 654 485 723 529 758 616 c 1
 736 617 724 628 724 647 c 0
 724 677 750 694 771 694 c 0
 787 694 804 684 804 663 c 0
 804 646 773 536 677 467 c 1
 712 421 734 371 734 311 c 0x4480
400 406 m 0
 400 431 383 439 367 439 c 0
 324 439 286 392 276 379 c 1
 286 352 306 332 336 332 c 0
 373 332 400 370 400 406 c 0
EndSplineSet
Substitution2: "'lnum' Lining Figures lookup 5 subtable" ampersand
Substitution2: "'onum' Oldstyle Figures lookup 4 subtable" ampersand
Substitution2: "'aalt' Access All Alternates lookup 0 subtable" ampersand
EndChar

StartChar: asciicircum
Encoding: 94 94 30
Width: 556
Flags: MW
HStem: 562 21G<147 147 690 690>
LayerCount: 2
Fore
SplineSet
707 584 m 1
 690 562 l 1
 448 685 l 1
 147 562 l 1
 141 584 l 1
 464 744 l 1
 707 584 l 1
EndSplineSet
EndChar

StartChar: asciitilde
Encoding: 126 126 31
Width: 556
Flags: MW
HStem: 193 43<427 431.5> 264 43<248.5 253>
LayerCount: 2
Fore
SplineSet
627 290 m 1
 562 246 l 2
 542 232 519 221 497 211 c 0
 472 201 444 193 419 193 c 0
 379 193 352 210 328 227 c 0
 298 247 273 264 233 264 c 0
 182 264 121 234 62 193 c 1
 52 210 l 1
 117 254 l 2
 138 268 161 279 183 289 c 0
 208 299 236 307 261 307 c 0
 301 307 327 290 352 273 c 0
 382 253 407 236 447 236 c 0
 498 236 558 266 618 307 c 1
 627 290 l 1
EndSplineSet
EndChar

StartChar: asterisk
Encoding: 42 42 32
Width: 511
Flags: MW
HStem: 319 21G<329.5 349> 730 20G<429.5 448>
VStem: 195 388<429 635.5>
LayerCount: 2
Fore
SplineSet
537 447 m 0
 537 431 520 415 505 415 c 0
 498 415 495 416 485 426 c 2
 395 514 l 1
 368 353 l 2
 367 345 362 319 336 319 c 0
 323 319 315 327 315 337 c 0
 315 342 318 349 319 353 c 2
 373 514 l 1
 232 421 l 2
 227 418 223 415 215 415 c 0
 203 415 195 423 195 435 c 0
 195 444 198 455 219 465 c 2
 369 535 l 1
 256 604 l 2
 245 611 242 613 242 622 c 0
 242 637 257 654 274 654 c 0
 282 654 284 652 293 643 c 2
 383 555 l 1
 410 716 l 2
 411 723 416 750 443 750 c 0
 453 750 463 743 463 732 c 0
 463 728 460 720 459 716 c 2
 406 555 l 1
 546 648 l 2
 549 650 555 654 563 654 c 0
 582 654 583 637 583 634 c 0
 583 617 569 608 559 604 c 2
 409 534 l 1
 522 466 l 2
 530 461 537 457 537 447 c 0
EndSplineSet
EndChar

StartChar: at
Encoding: 64 64 33
Width: 767
Flags: MW
HStem: -11 22<320 395> 128 22<388.5 450 629 663.5> 544 22<479.5 559> 683 22<466.5 618.5>
VStem: 151 31<182.5 358 182.5 364> 279 61<247 335.5 247 357.5> 759 30<424 514.5>
LayerCount: 2
Fore
SplineSet
706 68 m 0
 706 52 584 17 558 11 c 0
 471 -11 402 -11 388 -11 c 0
 230 -11 151 113 151 248 c 0
 151 480 356 705 557 705 c 0
 684 705 789 611 789 445 c 0
 789 354 747 244 746 241 c 0
 731 200 699 128 628 128 c 0
 607 128 556 136 553 193 c 1
 533 174 483 128 417 128 c 0
 341 128 279 188 279 286 c 0
 279 429 403 566 522 566 c 0
 601 566 627 501 635 481 c 1
 661 481 l 2
 677 481 684 481 684 471 c 2
 684 471 683 461 682 458 c 2
 617 195 l 2
 616 189 614 181 614 175 c 0
 614 150 626 150 632 150 c 0
 721 150 759 400 759 448 c 0
 759 581 681 683 556 683 c 0
 377 683 182 470 182 246 c 0
 182 119 251 11 389 11 c 0
 478 11 566 34 647 71 c 0
 663 78 665 78 681 78 c 0
 700 78 706 78 706 68 c 0
570 268 m 2
 610 430 l 1
 613 444 l 2
 613 458 596 544 522 544 c 0
 437 544 340 401 340 270 c 0
 340 224 357 150 420 150 c 0
 488 150 561 232 570 268 c 2
EndSplineSet
EndChar

StartChar: B
Encoding: 66 66 34
Width: 704
Flags: MW
HStem: 0 31<84 90 90 126 274 398 398 420> 344 22<323 455 455 489 317 455> 652 31<255 270.5 417.5 434 434 552>
VStem: 646 88<510.5 568.5>
LayerCount: 2
Fore
SplineSet
677 219 m 0
 677 115 562 0 420 0 c 2
 90 0 l 2
 74 0 65 0 65 12 c 0
 65 31 76 31 92 31 c 0
 160 31 166 39 174 73 c 2
 309 616 l 2
 313 630 313 632 313 635 c 0
 313 652 286 652 255 652 c 0
 236 652 228 652 228 664 c 0
 228 683 239 683 255 683 c 2
 566 683 l 2
 675 683 734 619 734 547 c 0
 734 470 660 384 538 357 c 1
 610 348 677 302 677 219 c 0
646 553 m 0
 646 584 636 652 552 652 c 2
 434 652 l 2
 401 652 394 652 385 616 c 2
 323 366 l 1
 455 366 l 2
 569 366 646 468 646 553 c 0
588 232 m 0
 588 258 582 344 489 344 c 2
 317 344 l 1
 247 63 l 2
 246 57 243 47 243 41 c 0
 243 34 243 31 274 31 c 2
 398 31 l 2
 508 31 588 135 588 232 c 0
EndSplineSet
Position2: "'cpsp' Capital Spacing lookup 0 subtable" dx=7 dy=0 dh=14 dv=0
EndChar

StartChar: b
Encoding: 98 98 35
Width: 460
Flags: MW
HStem: -11 22<217.5 255.5 217.5 286> 420 22<320 359.5> 652 42
VStem: 115 57<99 129 69.5 160> 392 67<310 339.5 212.5 347>
LayerCount: 2
Fore
SplineSet
459 286 m 0
 459 139 342 -11 230 -11 c 0
 157 -11 115 57 115 141 c 0
 115 179 125 220 126 223 c 2
 225 618 l 1
 225 618 228 632 228 635 c 0
 228 645 226 652 178 652 c 0
 164 652 154 652 154 663 c 0
 154 682 165 683 177 684 c 2
 276 692 l 2
 279 693 289 694 292 694 c 0
 300 694 306 691 306 682 c 2
 306 682 304 672 303 669 c 2
 233 389 l 1
 267 421 301 442 339 442 c 0
 399 442 459 393 459 286 c 0
336 106 m 0
 365 170 392 289 392 331 c 0
 392 363 382 420 337 420 c 0
 299 420 261 386 232 346 c 0
 217 326 217 324 210 300 c 0
 181 186 172 151 172 107 c 0
 172 32 205 11 230 11 c 0
 281 11 324 81 336 106 c 0
EndSplineSet
EndChar

StartChar: backslash
Encoding: 92 92 36
Width: 500
Flags: MW
HStem: -250 21G<354 366.5> 730 20G<239 271>
LayerCount: 2
Fore
SplineSet
386 -230 m 2
 383 -241 372 -250 361 -250 c 0
 347 -250 345 -239 344 -228 c 2
 239 712 l 2
 237 725 239 730 239 730 c 2
 241 741 253 750 264 750 c 0
 278 750 279 739 280 728 c 2
 385 -212 l 2
 387 -225 386 -230 386 -230 c 2
EndSplineSet
EndChar

StartChar: bar
Encoding: 124 124 37
Width: 278
Flags: MW
HStem: -250 21G<67 87> 730 20G<317 337>
LayerCount: 2
Fore
SplineSet
105 -217 m 2
 101 -231 97 -250 77 -250 c 0
 57 -250 61 -231 65 -217 c 2
 298 717 l 2
 302 731 307 750 327 750 c 0
 347 750 342 731 338 717 c 2
 105 -217 l 2
EndSplineSet
EndChar

StartChar: braceleft
Encoding: 123 123 38
Width: 500
Flags: MW
HStem: -250 21G<329.5 351> 237 24 730 20G<545 601>
LayerCount: 2
Fore
SplineSet
612 739 m 0
 610 733 605 729 600 728 c 0
 529 724 500 700 478 682 c 0
 447 657 442 635 424 563 c 2
 379 383 l 2
 372 355 354 284 228 250 c 1
 264 239 321 213 318 147 c 0
 317 137 305 86 297 56 c 2
 260 -94 l 2
 251 -129 250 -131 251 -142 c 0
 251 -178 276 -223 354 -228 c 0
 364 -229 370 -229 367 -239 c 0
 365 -250 357 -250 345 -250 c 0
 314 -250 251 -242 215 -212 c 0
 172 -175 181 -141 195 -83 c 2
 245 115 l 2
 270 215 190 236 148 239 c 0
 138 240 132 240 135 250 c 0
 137 260 144 261 151 261 c 0
 215 265 249 292 267 306 c 0
 300 334 304 350 327 444 c 2
 373 627 l 2
 393 699 495 750 595 750 c 0
 607 750 615 750 612 739 c 0
EndSplineSet
EndChar

StartChar: braceright
Encoding: 125 125 39
Width: 500
Flags: MW
HStem: -250 21G<25 80> 239 21G<473 476.5> 730 20G<275 296>
LayerCount: 2
Fore
SplineSet
490 250 m 0
 487 240 480 239 473 239 c 0
 409 235 375 208 358 194 c 0
 325 166 321 150 297 56 c 2
 251 -127 l 2
 231 -199 130 -250 30 -250 c 0
 20 -250 10 -250 12 -239 c 0
 14 -233 19 -229 24 -228 c 0
 95 -224 124 -200 147 -182 c 0
 177 -157 182 -135 200 -63 c 2
 245 117 l 2
 252 145 270 216 397 250 c 1
 360 261 303 287 306 353 c 0
 307 363 320 414 327 444 c 2
 365 594 l 2
 373 629 374 631 374 642 c 0
 374 678 348 723 270 728 c 0
 260 729 254 729 257 739 c 0
 260 750 270 750 280 750 c 0
 312 750 373 741 409 712 c 0
 452 675 443 641 429 583 c 2
 379 385 l 2
 354 285 434 264 476 261 c 0
 486 260 492 260 490 250 c 0
EndSplineSet
EndChar

StartChar: bracketleft
Encoding: 91 91 40
Width: 307
Flags: MW
HStem: -250 40<91 180 121 176> 710 40<351 416 351 351>
VStem: 73 373
LayerCount: 2
Fore
SplineSet
206 -222 m 2
 206 -222 202 -240 199 -245 c 0
 195 -249 194 -250 176 -250 c 2
 99 -250 l 2
 83 -250 73 -250 73 -238 c 2
 73 -238 75 -228 76 -225 c 2
 315 731 l 2
 320 750 321 750 343 750 c 2
 420 750 l 2
 436 750 446 750 446 738 c 2
 446 738 442 720 439 715 c 0
 435 711 434 710 416 710 c 2
 351 710 l 1
 121 -210 l 1
 180 -210 l 2
 196 -210 206 -210 206 -222 c 2
EndSplineSet
EndChar

StartChar: bracketright
Encoding: 93 93 41
Width: 307
Flags: MW
HStem: -250 40<4 81 16 81 16 89> 710 40<244 333 256 311>
VStem: -14 373
LayerCount: 2
Fore
SplineSet
117 -231 m 2
 112 -250 111 -250 89 -250 c 2
 12 -250 l 2
 -4 -250 -14 -250 -14 -238 c 2
 -14 -238 -10 -220 -7 -215 c 0
 -3 -211 -2 -210 16 -210 c 2
 81 -210 l 1
 311 710 l 1
 252 710 l 2
 236 710 226 710 226 722 c 2
 226 722 230 740 233 745 c 0
 237 749 238 750 256 750 c 2
 333 750 l 2
 349 750 359 750 359 738 c 2
 359 738 357 728 356 725 c 2
 117 -231 l 2
EndSplineSet
EndChar

StartChar: C
Encoding: 67 67 42
Width: 716
Flags: MW
HStem: -22 31<367 450.5 367 492.5> 674 31<540.5 596 468 632>
VStem: 150 87<163 238 136 362.5>
LayerCount: 2
Fore
SplineSet
810 681 m 2
 749 438 l 2
 745 421 742 420 731 420 c 0
 726 420 716 420 716 430 c 0
 716 433 721 465 721 491 c 0
 721 578 685 674 579 674 c 0
 502 674 410 628 342 536 c 0
 262 426 237 269 237 207 c 0
 237 65 325 9 409 9 c 0
 492 9 617 73 668 242 c 0
 671 250 678 250 684 250 c 0
 689 250 699 250 699 240 c 0
 699 192 590 -22 395 -22 c 0
 257 -22 150 81 150 245 c 0
 150 480 365 705 571 705 c 0
 621 705 679 689 722 620 c 1
 785 694 l 2
 794 705 801 705 801 705 c 1
 811 705 812 695 812 695 c 2
 812 691 811 685 810 681 c 2
EndSplineSet
Position2: "'cpsp' Capital Spacing lookup 0 subtable" dx=7 dy=0 dh=14 dv=0
EndChar

StartChar: c
Encoding: 99 99 43
Width: 460
Flags: MW
HStem: -11 22<232 267.5 232 321> 296 79 420 22<341.5 369.5>
VStem: 110 70<104.5 140.5 85 227> 385 85<320 380.5>
LayerCount: 2
Fore
SplineSet
468 104 m 0
 468 89 385 -11 257 -11 c 0
 169 -11 110 55 110 154 c 0
 110 300 239 442 363 442 c 0
 427 442 470 405 470 356 c 0
 470 318 446 296 419 296 c 0
 396 296 385 312 385 328 c 1
 385 328 385 371 435 377 c 1
 420 418 375 420 364 420 c 0
 319 420 269 385 233 320 c 0
 207 272 180 167 180 114 c 0
 180 56 205 11 259 11 c 0
 276 11 365 15 439 109 c 0
 447 119 448 120 452 120 c 0
 460 120 468 109 468 104 c 0
EndSplineSet
EndChar

StartChar: colon
Encoding: 58 58 44
Width: 307
Flags: MW
HStem: 0 106<162 174> 325 106<242 255>
VStem: 113 109<48 59.5> 194 109<372.5 383.5>
LayerCount: 2
Fore
SplineSet
222 63 m 0xe0
 222 33 191 0 157 0 c 0
 131 0 113 17 113 43 c 0
 113 76 146 106 178 106 c 0
 206 106 222 85 222 63 c 0xe0
303 388 m 0
 303 357 272 325 238 325 c 0
 210 325 194 345 194 368 c 0x50
 194 399 225 431 259 431 c 0
 287 431 303 411 303 388 c 0
EndSplineSet
EndChar

StartChar: comma
Encoding: 44 44 45
Width: 307
Flags: MW
HStem: -193 21G<79.5 92> 0 106<158 167>
VStem: 113 111<26 56.5>
LayerCount: 2
Fore
SplineSet
224 47 m 0
 224 -72 101 -193 83 -193 c 0
 76 -193 73 -186 73 -183 c 0
 73 -179 74 -178 86 -166 c 0
 133 -126 183 -62 198 15 c 1
 193 11 177 0 157 0 c 0
 136 0 113 10 113 42 c 0
 113 71 138 106 178 106 c 0
 210 106 224 80 224 47 c 0
EndSplineSet
EndChar

StartChar: D
Encoding: 68 68 46
Width: 755
Flags: MW
HStem: 0 31<82 88 88 124 275 378 378 395> 652 31<253 268.5 418.5 435 435 532>
VStem: 692 83<446.5 509.5 325.5 541.5>
LayerCount: 2
Fore
SplineSet
775 438 m 0
 775 213 584 0 395 0 c 2
 88 0 l 2
 72 0 63 0 63 12 c 0
 63 31 74 31 90 31 c 0
 158 31 164 39 172 73 c 2
 307 616 l 2
 311 630 311 632 311 635 c 0
 311 652 284 652 253 652 c 0
 234 652 226 652 226 664 c 0
 226 683 237 683 253 683 c 2
 565 683 l 2
 694 683 775 581 775 438 c 0
692 476 m 0
 692 607 613 652 532 652 c 2
 435 652 l 2
 402 652 395 651 386 616 c 2
 248 63 l 2
 247 57 244 47 244 41 c 0
 244 34 244 31 275 31 c 2
 378 31 l 2
 458 31 529 73 578 130 c 0
 663 230 692 417 692 476 c 0
EndSplineSet
Position2: "'cpsp' Capital Spacing lookup 0 subtable" dx=7 dy=0 dh=14 dv=0
EndChar

StartChar: d
Encoding: 100 100 47
Width: 511
Flags: MW
HStem: -11 22<207.5 247 421 450.5> 420 22<316.5 341> 652 42
VStem: 108 68<101.5 125 85 217>
LayerCount: 2
Fore
SplineSet
535 143 m 2
 535 143 523 83 505 45 c 0
 490 14 469 -11 432 -11 c 0
 397 -11 360 10 349 59 c 1
 309 10 265 -11 229 -11 c 0
 154 -11 108 59 108 144 c 0
 108 290 226 442 337 442 c 0
 379 442 406 415 421 384 c 1
 479 618 l 1
 479 618 482 632 482 635 c 0
 482 645 480 652 432 652 c 0
 418 652 408 652 408 663 c 0
 408 682 419 683 431 684 c 2
 530 692 l 2
 533 693 543 694 546 694 c 0
 554 694 560 691 560 682 c 2
 560 682 558 672 557 669 c 2
 414 98 l 2
 408 74 408 59 408 52 c 0
 408 38 408 11 434 11 c 0
 468 11 487 74 501 130 c 0
 507 152 508 153 520 153 c 0
 527 153 535 153 535 143 c 2
355 122 m 2
 403 314 l 2
 405 320 406 324 406 327 c 0
 406 346 396 375 386 391 c 0
 368 419 345 420 337 420 c 0
 296 420 250 370 225 309 c 0
 207 267 176 150 176 100 c 0
 176 70 184 11 231 11 c 0
 286 11 347 91 355 122 c 2
EndSplineSet
EndChar

StartChar: dollar
Encoding: 36 36 48
Width: 500
Flags: MW
HStem: -56 21G<220 251 220 220> 137 92<134.5 154.5> 479 92<523.5 540.5 523.5 546.5> 730 20G<421 452 452 452>
LayerCount: 2
Fore
SplineSet
581 560 m 0
 579 544 574 479 519 479 c 0
 499 479 479 491 481 518 c 0
 484 548 509 571 538 571 c 0
 543 571 550 570 555 568 c 1
 555 641 497 671 433 674 c 1
 365 402 l 1
 409 391 435 385 467 347 c 0
 471 341 503 302 497 229 c 0
 487 109 379 -1 262 -10 c 1
 251 -56 l 1
 220 -56 l 1
 231 -10 l 1
 155 -6 86 39 95 144 c 0
 97 164 102 229 157 229 c 0
 171 229 197 221 195 189 c 0
 193 165 172 137 137 137 c 0
 132 137 124 138 120 140 c 1
 116 62 170 24 239 20 c 1
 314 319 l 1
 266 332 241 340 213 371 c 0
 188 399 176 440 179 483 c 0
 186 564 256 682 405 704 c 0
 409 705 410 705 411 709 c 0
 412 712 413 719 414 722 c 2
 421 750 l 1
 452 750 l 1
 442 704 l 1
 535 700 588 644 581 560 c 0
402 673 m 1
 316 663 245 593 239 522 c 0
 232 435 310 416 336 410 c 1
 402 673 l 1
438 191 m 0
 444 269 394 301 343 311 c 1
 271 21 l 1
 364 34 432 117 438 191 c 0
EndSplineSet
Substitution2: "'onum' Oldstyle Figures lookup 4 subtable" dollar.oldstyle
Substitution2: "'aalt' Access All Alternates lookup 0 subtable" dollar.oldstyle
EndChar

StartChar: E
Encoding: 69 69 49
Width: 678
Flags: MW
HStem: 0 31<81 87 87 123 277 399 399 478.5> 338 31<327 406 319 408> 455 31 649 31<251 280 419.5 436 436 561>
VStem: 62 683
LayerCount: 2
Fore
SplineSet
687 247 m 2
 687 247 684 237 683 235 c 2
 594 16 l 2
 587 1 586 0 566 0 c 2
 87 0 l 2
 71 0 62 0 62 12 c 0
 62 31 73 31 89 31 c 0
 157 31 163 39 171 73 c 2
 305 609 l 2
 309 624 309 632 309 632 c 2
 309 641 309 649 251 649 c 0
 231 649 224 649 224 662 c 0
 224 680 234 680 251 680 c 2
 718 680 l 2
 739 680 745 680 742 654 c 2
 719 477 l 2
 717 459 716 455 702 455 c 0
 698 455 687 455 687 467 c 0
 687 470 688 479 689 484 c 0
 692 508 694 521 694 548 c 0
 694 619 669 649 561 649 c 2
 436 649 l 2
 403 649 396 648 388 615 c 2
 327 369 l 1
 408 369 l 2
 489 369 508 391 527 462 c 0
 533 483 533 486 546 486 c 0
 550 486 562 486 562 474 c 2
 562 474 560 464 559 461 c 2
 504 241 l 2
 500 223 497 221 486 221 c 0
 480 221 470 221 470 233 c 0
 470 236 472 244 472 244 c 2
 480 273 481 288 481 295 c 0
 481 322 474 338 406 338 c 2
 319 338 l 1
 250 63 l 2
 249 57 246 47 246 41 c 0
 246 34 246 31 277 31 c 2
 399 31 l 2
 558 31 593 96 651 234 c 0
 660 257 661 258 672 258 c 0
 675 258 687 258 687 247 c 2
EndSplineSet
Position2: "'cpsp' Capital Spacing lookup 0 subtable" dx=7 dy=0 dh=14 dv=0
EndChar

StartChar: e
Encoding: 101 101 50
Width: 460
Flags: MW
HStem: -11 22<226.5 267.5 226.5 321> 231 22<206 227 227 239 200 227> 420 22<357 382>
VStem: 114 69<119 140 101.5 252.5> 425 38<353.5 376>
LayerCount: 2
Fore
SplineSet
468 104 m 0
 468 89 385 -11 257 -11 c 0
 162 -11 114 74 114 164 c 0
 114 341 257 442 362 442 c 0
 426 442 463 403 463 357 c 0
 463 350 463 285 384 253 c 0
 336 234 269 231 239 231 c 2
 200 231 l 1
 193 204 183 159 183 121 c 0
 183 82 194 11 259 11 c 0
 276 11 365 15 439 109 c 0
 447 119 448 120 452 120 c 0
 460 120 468 109 468 104 c 0
425 359 m 0
 425 393 402 420 362 420 c 0
 352 420 249 417 206 253 c 1
 227 253 l 2
 260 253 425 253 425 359 c 0
EndSplineSet
EndChar

StartChar: eight
Encoding: 56 56 51
Width: 511
Flags: MW
HStem: -22 28<223 301 223 315> 641 25<378.5 443.5>
VStem: 97 50<81 137.5> 210 55<497 513> 435 59<150.5 188.5> 509 45<511 579>
LayerCount: 2
Fore
SplineSet
494 208 m 0
 494 93 378 -22 252 -22 c 0
 167 -22 97 31 97 115 c 0
 97 160 116 258 286 337 c 1
 241 377 240 378 234 386 c 0
 224 399 210 427 210 463 c 0
 210 563 310 666 420 666 c 0
 490 666 554 624 554 548 c 0
 554 474 496 408 397 360 c 1
 420 340 459 306 465 299 c 0
 485 272 494 240 494 208 c 0
509 550 m 0
 509 608 470 641 417 641 c 0
 340 641 265 575 265 509 c 0
 265 485 275 463 293 448 c 2
 369 384 l 2
 376 377 378 377 378 377 c 2
 384 377 509 445 509 550 c 0
435 166 m 0
 435 211 412 230 387 252 c 2
 305 321 l 1
 206 274 147 186 147 113 c 0
 147 49 191 6 255 6 c 0
 347 6 435 86 435 166 c 0
EndSplineSet
Substitution2: "'pnum' Proportional Numbers lookup 6 subtable" eight.prop
Substitution2: "'onum' Oldstyle Figures lookup 4 subtable" eight.oldstyle
AlternateSubs2: "'aalt' Access All Alternates lookup 1 subtable" eight.oldstyle eight.prop
EndChar

StartChar: equal
Encoding: 61 61 52
Width: 767
Flags: MW
HStem: 133 40<142 695 149 695> 327 40<189.5 743 197 743>
VStem: 115 613<143 163> 164 613<337 357>
LayerCount: 2
Fore
SplineSet
728 153 m 0xe0
 728 133 710 133 695 133 c 2
 149 133 l 2
 135 133 115 133 115 153 c 0
 115 173 135 173 149 173 c 2
 695 173 l 2
 710 173 728 173 728 153 c 0xe0
777 347 m 0
 777 327 757 327 743 327 c 2
 197 327 l 2
 182 327 164 327 164 347 c 0x50
 164 367 182 367 197 367 c 2
 743 367 l 2
 757 367 777 367 777 347 c 0
EndSplineSet
EndChar

StartChar: exclam
Encoding: 33 33 53
Width: 307
Flags: MW
HStem: 0 106<161.5 174> 187 21G<198.5 208.5> 696 20G<328.5 345>
VStem: 113 109<47.5 60>
LayerCount: 2
Fore
SplineSet
370 654 m 2
 221 204 l 2
 215 188 214 187 203 187 c 0
 194 187 188 189 188 199 c 2
 188 199 188 202 190 211 c 2
 265 656 l 2
 275 715 327 716 330 716 c 0
 360 716 375 695 375 675 c 0
 375 669 374 665 370 654 c 2
222 63 m 0
 222 32 191 0 157 0 c 0
 132 0 113 18 113 43 c 0
 113 77 146 106 177 106 c 0
 207 106 222 83 222 63 c 0
EndSplineSet
EndChar

StartChar: F
Encoding: 70 70 54
Width: 653
Flags: MW
HStem: 0 31<81 96 322 332 332 340> 325 31<324 399 316 402> 649 31<251 280 419.5 436 436 553>
VStem: 62 671
LayerCount: 2
Fore
SplineSet
707 477 m 2
 705 459 704 455 690 455 c 0
 686 455 675 455 675 467 c 2
 676 483 l 2
 679 506 682 525 682 549 c 0
 682 618 660 649 553 649 c 2
 436 649 l 2
 403 649 396 648 388 615 c 2
 324 356 l 1
 402 356 l 2
 485 356 501 381 519 452 c 0
 524 470 525 473 538 473 c 0
 541 473 553 473 553 462 c 0
 553 457 552 452 551 448 c 2
 496 228 l 2
 491 209 488 208 477 208 c 0
 473 208 462 208 462 220 c 0
 462 223 463 227 465 234 c 0
 469 250 473 266 473 283 c 0
 473 310 464 325 399 325 c 2
 316 325 l 1
 253 73 l 2
 249 58 249 56 249 52 c 0
 249 39 249 31 322 31 c 2
 332 31 l 2
 348 31 357 31 357 19 c 0
 357 0 345 0 336 0 c 0
 291 0 244 3 198 3 c 0
 158 3 116 0 76 0 c 0
 73 0 62 0 62 12 c 0
 62 31 73 31 89 31 c 0
 157 31 163 39 171 73 c 2
 305 609 l 2
 309 624 309 632 309 632 c 2
 309 641 309 649 251 649 c 0
 231 649 224 649 224 662 c 0
 224 680 234 680 251 680 c 2
 706 680 l 2
 727 680 733 680 730 654 c 2
 707 477 l 2
EndSplineSet
Position2: "'cpsp' Capital Spacing lookup 0 subtable" dx=7 dy=0 dh=14 dv=0
EndChar

StartChar: f
Encoding: 102 102 55
Width: 307
Flags: MW
HStem: -205 22<50 73 50 107> -164 80 400 31<143.5 219 153 213 283 359> 584 78 683 22<352 374>
VStem: -25 84<-126 -121.5> 368 84<621.5 626>
LayerCount: 2
Fore
SplineSet
452 639 m 0
 452 604 427 584 402 584 c 0
 386 584 368 594 368 616 c 0
 368 636 382 660 412 665 c 1
 399 681 378 683 370 683 c 0
 334 683 323 630 315 593 c 2
 283 431 l 1
 361 431 l 2
 378 431 386 431 386 418 c 0
 386 400 376 400 359 400 c 2
 277 400 l 1
 207 41 l 2
 200 5 159 -205 55 -205 c 0
 18 -205 -25 -184 -25 -139 c 0
 -25 -104 0 -84 25 -84 c 0
 41 -84 59 -94 59 -116 c 0
 59 -136 45 -160 15 -165 c 1
 26 -180 45 -183 55 -183 c 0
 91 -183 104 -131 112 -97 c 0
 118 -76 128 -35 140 27 c 2
 213 400 l 1
 151 400 l 2
 136 400 126 400 126 411 c 0
 126 431 137 431 153 431 c 2
 219 431 l 1
 240 541 l 2
 247 575 272 705 370 705 c 0
 411 705 452 682 452 639 c 0
EndSplineSet
EndChar

StartChar: five
Encoding: 53 53 56
Width: 511
Flags: MW
HStem: -22 28<218 254.5 218 300> 122 86<145.5 165> 398 22<350.5 385.5> 558 76<395 424> 645 20G<287.5 293 556.5 559.5>
VStem: 426 72<281.5 304.5 189 336>
LayerCount: 2
Fore
SplineSet
498 265 m 0
 498 113 364 -22 236 -22 c 0
 150 -22 107 44 107 117 c 0
 107 149 113 208 165 208 c 0
 188 208 201 194 201 174 c 0
 201 151 182 122 148 122 c 0
 143 122 141 122 138 123 c 1
 139 26 200 6 236 6 c 0
 273 6 332 28 376 109 c 0
 397 149 426 254 426 309 c 0
 426 363 406 398 365 398 c 0
 336 398 281 389 230 329 c 0
 223 322 221 319 214 319 c 0
 208 319 201 321 201 331 c 2
 201 331 202 341 203 344 c 2
 279 648 l 2
 282 659 284 665 291 665 c 0
 295 665 299 663 305 660 c 0
 334 644 373 634 417 634 c 0
 456 634 501 642 546 662 c 0
 551 664 555 665 558 665 c 0
 561 665 567 663 567 656 c 0
 567 641 479 558 369 558 c 0
 349 558 326 560 307 567 c 0
 297 570 294 570 294 570 c 1
 294 570 292 569 289 558 c 2
 243 374 l 1
 280 403 321 420 367 420 c 0
 454 420 498 344 498 265 c 0
EndSplineSet
Substitution2: "'pnum' Proportional Numbers lookup 6 subtable" five.prop
Substitution2: "'onum' Oldstyle Figures lookup 4 subtable" five.oldstyle
AlternateSubs2: "'aalt' Access All Alternates lookup 1 subtable" five.oldstyle five.prop
EndChar

StartChar: four
Encoding: 52 52 57
Width: 511
Flags: MW
HStem: -194 21G<281 295.5> -15 31<381.5 393.5 381.5 395> 36 31<165 177> 646 20G<430.5 450>
VStem: 44 430<16 16.5 6 26>
LayerCount: 2
Fore
SplineSet
474 14 m 0
 474 -2 409 -15 381 -15 c 0
 375 -15 367 -15 361 -14 c 1
 324 -160 l 2
 318 -183 305 -194 286 -194 c 0
 276 -194 259 -189 259 -168 c 0
 259 -164 259 -162 263 -147 c 2
 300 2 l 1
 241 25 l 2
 206 36 186 36 168 36 c 0
 109 36 100 29 91 21 c 0
 80 13 65 1 59 1 c 0
 51 1 44 14 44 18 c 0
 44 34 76 51 83 54 c 0
 87 57 176 127 255 255 c 0
 326 371 370 491 403 616 c 0
 410 643 416 666 445 666 c 0
 455 666 472 661 472 640 c 1
 472 640 414 316 144 66 c 1
 157 67 159 67 171 67 c 0
 193 67 210 67 247 56 c 0
 276 46 235 59 308 33 c 1
 350 199 l 2
 354 216 360 242 390 242 c 0
 393 242 417 241 417 215 c 0
 417 212 417 210 413 195 c 2
 369 17 l 1
 374 16 378 16 385 16 c 0
 402 16 427 20 445 27 c 0
 455 31 459 31 459 31 c 2
 468 31 474 19 474 14 c 0
EndSplineSet
Substitution2: "'pnum' Proportional Numbers lookup 6 subtable" four.prop
Substitution2: "'onum' Oldstyle Figures lookup 4 subtable" four.oldstyle
AlternateSubs2: "'aalt' Access All Alternates lookup 1 subtable" four.oldstyle four.prop
EndChar

StartChar: G
Encoding: 71 71 58
Width: 774
Flags: MW
HStem: -22 31<366.5 433 366.5 442> 242 31<524.5 532 532 540 739.5 750.5> 674 31<540.5 596 468 632>
VStem: 150 87<164.5 237 141.5 362.5>
LayerCount: 2
Fore
SplineSet
768 260 m 0
 768 242 757 242 744 242 c 0
 700 242 698 232 692 209 c 2
 644 18 l 2
 641 7 639 1 632 1 c 0
 621 1 599 37 590 61 c 1
 561 24 488 -22 396 -22 c 0
 254 -22 150 84 150 245 c 0
 150 480 365 705 571 705 c 0
 621 705 679 689 722 620 c 1
 785 694 l 2
 794 705 801 705 801 705 c 1
 811 705 812 695 812 695 c 2
 812 691 811 685 810 681 c 2
 749 438 l 2
 745 421 742 420 731 420 c 0
 726 420 716 420 716 430 c 0
 716 433 721 465 721 491 c 0
 721 578 685 674 579 674 c 0
 502 674 410 628 342 536 c 0
 261 425 237 266 237 208 c 0
 237 75 319 9 414 9 c 0
 452 9 507 21 550 60 c 0
 580 88 582 99 604 188 c 0
 612 216 612 218 612 222 c 0
 612 236 604 237 583 240 c 0
 570 241 553 242 540 242 c 2
 532 242 l 2
 517 242 506 242 506 253 c 0
 506 273 519 273 527 273 c 0
 570 273 615 270 658 270 c 0
 690 270 724 273 755 273 c 0
 764 273 768 268 768 260 c 0
EndSplineSet
Position2: "'cpsp' Capital Spacing lookup 0 subtable" dx=7 dy=0 dh=14 dv=0
EndChar

StartChar: g
Encoding: 103 103 59
Width: 460
Flags: MW
HStem: -205 22<169.5 183.5 169.5 226.5> 0 22<207 257.5> 420 22<317.5 358.5 281 367>
VStem: 110 68<110.5 133 103.5 223.5>
LayerCount: 2
Fore
SplineSet
374 -63 m 2
 355 -139 279 -205 174 -205 c 0
 90 -205 53 -187 53 -147 c 0
 53 -108 84 -94 102 -94 c 0
 128 -94 137 -113 137 -126 c 0
 137 -143 125 -164 105 -172 c 1
 132 -183 163 -183 176 -183 c 0
 191 -183 231 -183 271 -136 c 0
 299 -102 305 -81 317 -31 c 2
 338 53 l 1
 326 41 283 0 232 0 c 0
 157 0 110 68 110 153 c 0
 110 294 225 442 337 442 c 0
 380 442 407 414 421 385 c 1
 425 414 448 422 460 422 c 0
 470 422 487 417 487 396 c 0
 487 392 487 390 483 375 c 2
 374 -63 l 2
358 132 m 2
 403 314 l 1
 406 328 l 2
 406 336 397 420 337 420 c 0
 298 420 254 375 229 321 c 0
 208 274 178 157 178 109 c 0
 178 98 180 22 234 22 c 0
 289 22 350 100 358 132 c 2
EndSplineSet
EndChar

StartChar: grave
Encoding: 96 96 60
Width: 511
Flags: MW
HStem: 505 21G<418.5 423.5> 676 20G<342 355>
LayerCount: 2
Fore
SplineSet
444 522 m 0
 440 514 427 505 420 505 c 0
 417 505 415 505 410 513 c 2
 310 636 l 2
 304 642 298 651 306 668 c 0
 315 686 336 696 348 696 c 0
 362 696 366 688 371 679 c 2
 442 537 l 2
 447 527 446 525 444 522 c 0
EndSplineSet
EndChar

StartChar: greater
Encoding: 62 62 61
Width: 778
Flags: W
LayerCount: 2
Fore
SplineSet
757 250 m 0
 754 238 744 233 732 228 c 2
 113 -33 l 2
 98 -40 96 -40 93 -40 c 0
 82 -40 75 -31 78 -20 c 0
 80 -11 87 -5 103 2 c 2
 690 250 l 1
 227 498 l 2
 214 505 211 511 213 520 c 0
 216 531 227 540 238 540 c 0
 241 540 243 540 254 533 c 2
 743 272 l 2
 753 267 760 262 757 250 c 0
EndSplineSet
EndChar

StartChar: H
Encoding: 72 72 62
Width: 743
Flags: MW
HStem: 0 31<81 95 294.5 316 437 451 650.5 672> 340 31<327 593 319 601> 652 31<242.5 263.5 241 267.5 463 476.5 598.5 619.5 819 832.5>
VStem: 62 790<6 675.5>
LayerCount: 2
Fore
SplineSet
689 18 m 0
 689 0 677 0 670 0 c 0
 631 0 590 3 550 3 c 0
 511 3 470 0 432 0 c 0
 429 0 418 0 418 12 c 0
 418 31 429 31 445 31 c 0
 513 31 519 39 527 73 c 2
 593 340 l 1
 319 340 l 1
 252 68 l 2
 248 54 248 52 248 48 c 0
 248 39 248 31 306 31 c 0
 326 31 333 31 333 18 c 0
 333 0 321 0 314 0 c 0
 275 0 234 3 194 3 c 0
 155 3 114 0 76 0 c 0
 73 0 62 0 62 12 c 0
 62 31 73 31 89 31 c 0
 157 31 163 39 171 73 c 2
 306 616 l 2
 310 630 310 632 310 635 c 0
 310 652 283 652 252 652 c 0
 233 652 225 652 225 664 c 0
 225 683 238 683 244 683 c 0
 283 683 324 680 364 680 c 0
 403 680 444 683 482 683 c 0
 489 683 496 681 496 670 c 0
 496 652 487 652 466 652 c 0
 403 652 395 644 387 612 c 2
 327 371 l 1
 601 371 l 1
 662 616 l 2
 666 630 666 632 666 635 c 0
 666 652 639 652 608 652 c 0
 589 652 581 652 581 664 c 0
 581 683 594 683 600 683 c 0
 639 683 680 680 720 680 c 0
 759 680 800 683 838 683 c 0
 845 683 852 681 852 670 c 0
 852 652 843 652 822 652 c 0
 759 652 751 644 743 612 c 2
 608 71 l 2
 604 56 604 48 604 48 c 2
 604 39 604 31 662 31 c 0
 682 31 689 31 689 18 c 0
EndSplineSet
Position2: "'cpsp' Capital Spacing lookup 0 subtable" dx=7 dy=0 dh=14 dv=0
EndChar

StartChar: h
Encoding: 104 104 63
Width: 511
Flags: MW
HStem: -11 22<399.5 439 399.5 454.5> 420 22<329.5 382> 652 42
VStem: 332 56<47 52.5 33 79.5> 406 61<323 364.5>
LayerCount: 2
Fore
SplineSet
535 143 m 0
 535 138 501 -11 408 -11 c 0
 360 -11 332 25 332 69 c 0
 332 90 335 99 348 133 c 0
 362 173 406 292 406 354 c 0
 406 375 404 420 360 420 c 0
 290 420 247 357 227 325 c 0
 209 293 208 291 199 255 c 0
 194 233 188 212 183 190 c 2
 140 17 l 2
 137 6 124 -11 103 -11 c 0
 84 -11 75 4 75 15 c 2
 75 15 76 26 77 28 c 2
 225 618 l 1
 225 618 228 632 228 635 c 0
 228 645 226 652 178 652 c 0
 164 652 154 652 154 663 c 0
 154 682 165 683 177 684 c 2
 276 692 l 2
 279 693 289 694 292 694 c 0
 300 694 306 691 306 682 c 2
 306 682 304 672 303 669 c 2
 230 377 l 1
 261 407 296 442 363 442 c 0
 412 442 467 420 467 338 c 0
 467 280 426 168 406 115 c 0
 398 91 388 65 388 40 c 0
 388 26 389 11 410 11 c 0
 468 11 495 109 503 136 c 0
 507 151 507 153 520 153 c 0
 527 153 535 153 535 143 c 0
EndSplineSet
EndChar

StartChar: hyphen
Encoding: 45 45 64
Width: 358
Flags: MW
HStem: 187 56<103 314 119 304>
VStem: 86 253<193.5 237>
LayerCount: 2
Fore
SplineSet
331 199 m 0
 328 187 323 187 304 187 c 2
 112 187 l 2
 94 187 86 187 86 200 c 0
 86 205 91 224 93 230 c 0
 97 243 99 243 119 243 c 2
 314 243 l 2
 330 243 339 243 339 231 c 0
 339 227 333 205 331 199 c 0
EndSplineSet
EndChar

StartChar: I
Encoding: 73 73 65
Width: 386
Flags: MW
HStem: 0 31<76.5 91 298 320> 652 31<237 259.5 235.5 264 467 480.5>
VStem: 57 444
LayerCount: 2
Fore
SplineSet
338 19 m 0
 338 0 325 0 318 0 c 0
 278 0 235 3 194 3 c 0
 153 3 111 0 71 0 c 0
 64 0 57 2 57 13 c 0
 57 31 66 31 87 31 c 0
 154 31 163 39 171 72 c 2
 307 616 l 2
 308 619 310 632 310 635 c 0
 310 652 281 652 247 652 c 0
 227 652 220 652 220 665 c 0
 220 683 232 683 239 683 c 0
 280 683 323 680 364 680 c 0
 405 680 447 683 487 683 c 0
 491 683 501 683 501 671 c 0
 501 652 491 652 470 652 c 0
 401 652 395 643 387 611 c 2
 252 71 l 2
 248 56 248 49 248 49 c 2
 248 38 248 31 310 31 c 0
 330 31 338 31 338 19 c 0
EndSplineSet
Position2: "'cpsp' Capital Spacing lookup 0 subtable" dx=7 dy=0 dh=14 dv=0
EndChar

StartChar: i
Encoding: 105 105 66
Width: 307
Flags: MW
HStem: -11 22<202 235 202 251> 420 22<180 214.5> 548 106<297 310>
VStem: 128 56<49.5 52 25.5 79> 231 55<380 389.5 352.5 403.5>
LayerCount: 2
Fore
SplineSet
331 143 m 0
 331 139 298 -11 204 -11 c 0
 152 -11 128 30 128 69 c 0
 128 89 132 100 146 138 c 2
 183 237 l 1
 213 320 l 2
 220 339 231 368 231 392 c 0
 231 415 220 420 209 420 c 0
 151 420 125 327 116 294 c 0
 112 280 111 278 98 278 c 0
 93 278 83 278 83 288 c 0
 83 293 117 442 211 442 c 0
 248 442 286 417 286 362 c 0
 286 343 284 335 274 306 c 2
 210 135 l 2
 197 98 184 65 184 39 c 0
 184 12 198 11 206 11 c 0
 264 11 291 107 299 136 c 0
 303 151 303 153 316 153 c 0
 323 153 331 153 331 143 c 0
358 611 m 0x20
 358 579 326 548 294 548 c 0
 265 548 249 569 249 591 c 0
 249 623 281 654 313 654 c 0
 343 654 358 632 358 611 c 0x20
EndSplineSet
EndChar

StartChar: J
Encoding: 74 74 67
Width: 525
Flags: MW
HStem: -22 22<189.5 237.5 189.5 259> 65 98<154.5 156> 652 31<365 373 373 385 591.5 603.5>
VStem: 94 103<111.5 124.5>
LayerCount: 2
Fore
SplineSet
622 671 m 0
 622 652 611 652 596 652 c 0
 551 652 544 644 537 616 c 2
 420 144 l 2
 398 53 306 -22 212 -22 c 0
 148 -22 94 18 94 86 c 0
 94 163 153 163 156 163 c 0
 177 163 197 150 197 124 c 0
 197 99 175 65 137 65 c 0
 130 65 128 65 126 66 c 1
 134 25 169 0 210 0 c 0
 265 0 322 70 341 145 c 2
 457 611 l 2
 461 625 461 627 461 631 c 0
 461 646 453 647 431 650 c 0
 413 652 402 652 385 652 c 2
 373 652 l 2
 357 652 348 652 348 664 c 0
 348 683 360 683 369 683 c 0
 413 683 460 680 505 680 c 0
 539 680 575 683 608 683 c 0
 616 683 622 680 622 671 c 0
EndSplineSet
Position2: "'cpsp' Capital Spacing lookup 0 subtable" dx=7 dy=0 dh=14 dv=0
EndChar

StartChar: j
Encoding: 106 106 68
Width: 307
Flags: MW
HStem: -205 22<50.5 89.5 50.5 93.5> 420 22<208 246.5> 548 106<297 310>
VStem: -35 84<-168.5 -119.5> 261 60<372 375.5 345 389>
LayerCount: 2
Fore
SplineSet
223 -55 m 2
 204 -130 135 -205 52 -205 c 0
 16 -205 -35 -191 -35 -146 c 0
 -35 -111 -6 -94 14 -94 c 0
 40 -94 49 -113 49 -126 c 1
 49 -126 48 -162 13 -173 c 1
 31 -183 48 -183 53 -183 c 0
 126 -183 157 -62 158 -56 c 2
 254 329 l 2
 258 345 261 364 261 380 c 0
 261 398 259 420 234 420 c 0
 182 420 142 358 117 295 c 0
 111 279 111 278 98 278 c 0
 93 278 83 278 83 288 c 0
 83 295 136 442 235 442 c 0
 291 442 321 399 321 352 c 0
 321 338 317 322 316 319 c 2
 223 -55 l 2
358 611 m 0x20
 358 579 326 548 294 548 c 0
 265 548 249 569 249 591 c 0
 249 623 281 654 313 654 c 0
 343 654 358 632 358 611 c 0x20
EndSplineSet
EndChar

StartChar: K
Encoding: 75 75 69
Width: 769
Flags: MW
HStem: 0 31<81 95 294.5 316 490.5 500.5 691 695.5> 652 31<242.5 263.5 241 267.5 463 476.5>
VStem: 62 797<6 674.5>
LayerCount: 2
Fore
SplineSet
709 19 m 0
 709 4 701 0 692 0 c 0
 663 0 631 3 601 3 c 0
 564 3 525 0 489 0 c 0
 482 0 475 2 475 13 c 0
 475 31 487 31 494 31 c 0
 507 31 545 32 545 64 c 0
 545 67 545 69 539 84 c 2
 435 363 l 1
 296 248 l 1
 261 104 l 2
 256 86 248 54 248 48 c 0
 248 39 248 31 306 31 c 0
 326 31 333 31 333 18 c 0
 333 0 321 0 314 0 c 0
 275 0 234 3 194 3 c 0
 155 3 114 0 76 0 c 0
 73 0 62 0 62 12 c 0
 62 31 73 31 89 31 c 0
 157 31 163 39 171 73 c 2
 306 616 l 2
 310 630 310 632 310 635 c 0
 310 652 283 652 252 652 c 0
 233 652 225 652 225 664 c 0
 225 683 238 683 244 683 c 0
 283 683 324 680 364 680 c 0
 403 680 444 683 482 683 c 0
 489 683 496 681 496 670 c 0
 496 652 487 652 466 652 c 0
 403 652 395 644 387 612 c 2
 308 293 l 1
 660 586 l 2
 676 599 693 614 693 632 c 0
 693 646 681 651 667 652 c 0
 662 652 653 653 653 664 c 0
 653 683 666 683 672 683 c 0
 706 683 744 680 779 680 c 0
 802 680 827 683 848 683 c 0
 855 683 859 678 859 671 c 0
 859 654 849 653 841 652 c 0
 775 646 707 589 684 570 c 2
 500 417 l 1
 631 70 l 2
 643 39 655 32 691 31 c 0
 700 31 709 31 709 19 c 0
EndSplineSet
Position2: "'cpsp' Capital Spacing lookup 0 subtable" dx=7 dy=0 dh=14 dv=0
EndChar

StartChar: k
Encoding: 107 107 70
Width: 460
Flags: MW
HStem: -11 22<360.5 393> 326 81 420 22<412.5 446.5> 652 42
VStem: 294 64<141.5 174> 417 85<351.5 395>
LayerCount: 2
Fore
SplineSet
484 143 m 0
 484 140 470 79 448 41 c 0
 437 22 415 -11 371 -11 c 0
 334 -11 287 14 287 86 c 0
 287 96 287 103 291 120 c 0
 294 134 294 138 294 145 c 0
 294 203 230 224 193 229 c 1
 142 26 l 2
 140 17 133 -11 103 -11 c 0
 84 -11 75 4 75 15 c 2
 75 15 76 26 77 28 c 2
 225 618 l 1
 225 618 228 632 228 635 c 0
 228 645 226 652 178 652 c 0
 164 652 154 652 154 663 c 0
 154 682 165 683 177 684 c 2
 276 692 l 2
 279 693 289 694 292 694 c 0
 300 694 306 691 306 682 c 2
 306 682 304 672 303 669 c 2
 201 261 l 1
 236 278 252 294 309 360 c 0
 343 400 386 442 439 442 c 0
 484 442 502 408 502 382 c 0
 502 344 474 326 452 326 c 0
 426 326 417 345 417 358 c 0
 417 366 422 401 464 408 c 1
 464 408 456 420 437 420 c 0
 387 420 348 374 296 315 c 0
 269 284 248 263 225 249 c 1
 288 240 358 213 358 145 c 0
 358 132 358 131 353 110 c 0
 352 105 345 77 345 54 c 0
 345 34 347 11 374 11 c 0
 418 11 437 79 450 130 c 0
 456 152 457 153 469 153 c 0
 476 153 484 153 484 143 c 0
EndSplineSet
EndChar

StartChar: L
Encoding: 76 76 71
Width: 627
Flags: MW
HStem: 0 31<81 87 87 123 277 358 358 436> 652 31<242.5 264 241 267.5 482.5 492>
VStem: 62 562<6 252>
LayerCount: 2
Fore
SplineSet
624 246 m 2
 620 233 l 1
 544 18 l 2
 538 1 537 0 515 0 c 2
 87 0 l 2
 71 0 62 0 62 12 c 0
 62 31 73 31 89 31 c 0
 157 31 163 39 171 73 c 2
 306 616 l 2
 310 630 310 632 310 635 c 0
 310 652 283 652 252 652 c 0
 233 652 225 652 225 664 c 0
 225 683 238 683 244 683 c 0
 284 683 326 680 367 680 c 0
 413 680 460 683 505 683 c 0
 509 683 520 683 520 671 c 0
 520 652 509 652 492 652 c 2
 482 652 l 2
 401 652 395 642 386 607 c 2
 250 63 l 2
 249 57 246 47 246 41 c 0
 246 34 246 31 277 31 c 2
 358 31 l 2
 514 31 557 147 589 236 c 0
 596 255 597 258 609 258 c 0
 612 258 624 258 624 246 c 2
EndSplineSet
Position2: "'cpsp' Capital Spacing lookup 0 subtable" dx=7 dy=0 dh=14 dv=0
EndChar

StartChar: l
Encoding: 108 108 72
Width: 256
Flags: MW
HStem: -11 22<167 194 167 197> 652 42
VStem: 94 60<52.5 55.5 45 86.5>
LayerCount: 2
Fore
SplineSet
280 143 m 0
 280 140 266 76 249 41 c 0
 236 16 216 -11 178 -11 c 0
 130 -11 94 26 94 79 c 0
 94 94 99 114 100 118 c 2
 225 618 l 1
 225 618 228 632 228 635 c 0
 228 645 226 652 178 652 c 0
 164 652 154 652 154 663 c 0
 154 682 165 683 177 684 c 2
 276 692 l 2
 279 693 289 694 292 694 c 0
 300 694 306 691 306 682 c 2
 306 682 304 672 303 669 c 2
 160 98 l 2
 154 74 154 59 154 52 c 0
 154 38 154 11 180 11 c 0
 208 11 227 53 244 123 c 2
 251 148 l 2
 254 153 260 153 265 153 c 0
 272 153 280 153 280 143 c 0
EndSplineSet
EndChar

StartChar: less
Encoding: 60 60 73
Width: 778
Flags: W
LayerCount: 2
Fore
SplineSet
689 -20 m 0
 686 -31 675 -40 664 -40 c 0
 661 -40 659 -40 648 -33 c 2
 159 228 l 2
 149 233 143 238 146 250 c 0
 149 262 158 267 170 272 c 2
 789 533 l 2
 804 540 806 540 809 540 c 0
 820 540 827 531 824 520 c 0
 821 509 813 504 800 498 c 2
 213 250 l 1
 676 2 l 2
 686 -4 692 -9 689 -20 c 0
EndSplineSet
EndChar

StartChar: M
Encoding: 77 77 74
Width: 897
Flags: MW
HStem: 0 31<81 85 81 94 271 275 595 608.5 801.5 822> 652 31<256 271.5 940.5 977 977 982.5>
VStem: 66 936<7.5 676.5>
LayerCount: 2
Fore
SplineSet
839 18 m 0
 839 0 827 0 820 0 c 0
 783 0 742 3 704 3 c 0
 666 3 627 0 590 0 c 0
 587 0 576 0 576 12 c 0
 576 31 587 31 603 31 c 0
 671 31 677 39 685 73 c 2
 826 639 l 1
 825 639 l 1
 452 18 l 2
 446 7 441 0 428 0 c 0
 413 0 413 7 411 24 c 2
 350 630 l 1
 349 630 l 1
 216 99 l 2
 212 83 212 77 212 74 c 0
 212 59 214 33 271 31 c 0
 283 31 290 30 290 18 c 0
 290 0 278 0 272 0 c 0
 241 0 206 3 174 3 c 0
 143 3 109 0 79 0 c 0
 72 0 66 3 66 12 c 0
 66 30 77 31 85 31 c 0
 130 33 168 45 182 101 c 2
 310 616 l 2
 314 630 314 632 314 635 c 0
 314 652 287 652 256 652 c 0
 237 652 229 652 229 664 c 0
 229 683 240 683 256 683 c 2
 389 683 l 2
 413 683 415 683 417 661 c 2
 473 100 l 1
 813 665 l 2
 824 683 827 683 849 683 c 2
 977 683 l 2
 994 683 1002 683 1002 670 c 0
 1002 652 993 652 972 652 c 0
 909 652 901 644 893 612 c 2
 758 71 l 2
 754 56 754 48 754 48 c 2
 754 39 754 31 812 31 c 0
 832 31 839 31 839 18 c 0
EndSplineSet
Position2: "'cpsp' Capital Spacing lookup 0 subtable" dx=7 dy=0 dh=14 dv=0
EndChar

StartChar: m
Encoding: 109 109 75
Width: 818
Flags: MW
HStem: -11 22<706.5 746 706.5 761.5> 420 22<169.5 198 384 435 634 690>
VStem: 639 56<47 52.5 33 79.5> 713 61<323 361.5>
LayerCount: 2
Fore
SplineSet
842 143 m 0
 842 138 808 -11 715 -11 c 0
 667 -11 639 25 639 69 c 0
 639 90 642 99 655 133 c 0
 669 173 713 292 713 354 c 0
 713 369 713 420 667 420 c 0
 598 420 555 362 526 312 c 0
 514 291 514 289 501 240 c 0
 496 218 490 197 485 175 c 2
 445 15 l 2
 438 -4 421 -11 409 -11 c 0
 389 -11 381 4 381 15 c 0
 381 18 382 23 384 29 c 2
 449 289 l 2
 451 298 458 327 458 354 c 0
 458 369 458 420 412 420 c 0
 343 420 300 362 271 312 c 0
 259 291 259 289 246 240 c 0
 241 218 235 197 230 175 c 2
 190 15 l 2
 183 -4 166 -11 154 -11 c 0
 134 -11 126 4 126 15 c 0
 126 18 127 23 129 29 c 2
 204 329 l 2
 208 345 211 364 211 380 c 0
 211 391 211 420 185 420 c 0
 154 420 135 371 117 301 c 0
 112 279 111 278 98 278 c 0
 93 278 83 278 83 288 c 2
 83 288 96 349 115 389 c 0
 131 419 151 442 187 442 c 0
 230 442 264 412 271 363 c 1
 305 409 354 442 414 442 c 0
 459 442 511 423 519 354 c 1
 549 398 599 442 669 442 c 0
 716 442 774 422 774 338 c 0
 774 280 733 168 713 115 c 0
 705 91 695 65 695 40 c 0
 695 26 696 11 717 11 c 0
 775 11 802 109 810 136 c 0
 814 151 814 153 827 153 c 0
 834 153 842 153 842 143 c 0
EndSplineSet
EndChar

StartChar: N
Encoding: 78 78 76
Width: 743
Flags: MW
HStem: 0 31<77 81 77 90 267 271> 652 31<252 255.5 643.5 646 837 838.5>
VStem: 62 790<7.5 674>
LayerCount: 2
Fore
SplineSet
852 670 m 0
 852 653 840 652 837 652 c 0
 808 651 752 648 736 584 c 2
 596 20 l 2
 591 1 587 0 576 0 c 0
 562 0 561 2 556 17 c 2
 341 614 l 1
 212 99 l 2
 208 83 208 77 208 74 c 0
 208 59 210 33 267 31 c 0
 279 31 286 30 286 18 c 0
 286 0 274 0 268 0 c 0
 237 0 202 3 170 3 c 0
 139 3 105 0 75 0 c 0
 68 0 62 3 62 12 c 0
 62 30 73 31 81 31 c 0
 127 33 164 46 178 101 c 2
 310 631 l 2
 313 641 313 644 313 644 c 2
 313 652 259 652 252 652 c 0
 233 652 225 652 225 664 c 0
 225 683 236 683 252 683 c 2
 377 683 l 2
 398 683 399 682 405 666 c 2
 592 146 l 1
 702 585 l 2
 704 593 706 600 706 609 c 0
 706 630 698 650 646 652 c 0
 637 652 628 653 628 664 c 0
 628 683 641 683 646 683 c 0
 677 683 711 680 743 680 c 0
 775 680 808 683 839 683 c 0
 848 683 852 678 852 670 c 0
EndSplineSet
Position2: "'cpsp' Capital Spacing lookup 0 subtable" dx=7 dy=0 dh=14 dv=0
EndChar

StartChar: n
Encoding: 110 110 77
Width: 562
Flags: MW
HStem: -11 22<450.5 490 450.5 505.5> 420 22<169.5 198 373 433>
VStem: 383 56<47 52.5 33 79.5> 457 61<323 364.5>
LayerCount: 2
Fore
SplineSet
586 143 m 0
 586 138 552 -11 459 -11 c 0
 411 -11 383 25 383 69 c 0
 383 90 386 99 399 133 c 0
 413 173 457 292 457 354 c 0
 457 375 455 420 411 420 c 0
 335 420 290 345 276 321 c 0
 259 292 259 291 246 240 c 0
 241 218 235 197 230 175 c 2
 190 15 l 2
 183 -4 166 -11 154 -11 c 0
 134 -11 126 4 126 15 c 0
 126 18 127 23 129 29 c 2
 204 329 l 2
 208 345 211 364 211 380 c 0
 211 391 211 420 185 420 c 0
 154 420 135 371 117 301 c 0
 112 279 111 278 98 278 c 0
 93 278 83 278 83 288 c 2
 83 288 96 349 115 389 c 0
 131 419 151 442 187 442 c 0
 230 442 264 412 271 363 c 1
 284 382 332 442 414 442 c 0
 463 442 518 420 518 338 c 0
 518 280 477 168 457 115 c 0
 449 91 439 65 439 40 c 0
 439 26 440 11 461 11 c 0
 519 11 546 109 554 136 c 0
 558 151 558 153 571 153 c 0
 578 153 586 153 586 143 c 0
EndSplineSet
EndChar

StartChar: nine
Encoding: 57 57 78
Width: 511
Flags: MW
HStem: -22 28<200 245 200 260> 43 80 219 22<272.5 335> 641 25<385.5 446.5>
VStem: 165 72<321 450> 488 65<466 571.5>
LayerCount: 2
Fore
SplineSet
553 488 m 0
 553 444 539 267 439 126 c 0
 392 59 308 -22 212 -22 c 0
 150 -22 104 5 104 58 c 0
 104 94 122 123 156 123 c 0
 182 123 190 105 190 91 c 0
 190 86 187 46 139 42 c 1
 152 13 186 6 214 6 c 0
 276 6 324 58 345 84 c 0
 389 140 414 200 440 306 c 1
 409 259 365 219 305 219 c 0
 190 219 165 331 165 376 c 0
 165 524 292 666 423 666 c 0
 553 666 553 515 553 488 c 0
488 550 m 0
 488 593 472 641 421 641 c 0
 350 641 307 573 295 551 c 0
 267 501 237 366 237 328 c 0
 237 314 237 241 308 241 c 0
 445 241 488 478 488 550 c 0
EndSplineSet
Substitution2: "'pnum' Proportional Numbers lookup 6 subtable" nine.prop
Substitution2: "'onum' Oldstyle Figures lookup 4 subtable" nine.oldstyle
AlternateSubs2: "'aalt' Access All Alternates lookup 1 subtable" nine.oldstyle nine.prop
EndChar

StartChar: numbersign
Encoding: 35 35 79
Width: 818
Flags: MW
HStem: -194 21G<149 159 359 369> 133 40<142 306 149 285 351 495 149 330 561 746> 327 40<189.5 403 197 382 197 427 448 592 658 794> 674 20G<574 584 784 794>
VStem: 115 713<143 357>
LayerCount: 2
Fore
SplineSet
828 347 m 0
 828 327 808 327 794 327 c 2
 637 327 l 1
 561 173 l 1
 746 173 l 2
 761 173 779 173 779 153 c 0
 779 133 761 133 746 133 c 2
 540 133 l 1
 381 -188 l 2
 377 -192 372 -194 366 -194 c 0
 352 -194 346 -183 346 -174 c 0
 346 -168 349 -162 351 -157 c 2
 495 133 l 1
 330 133 l 1
 171 -188 l 2
 167 -192 162 -194 156 -194 c 0
 142 -194 136 -183 136 -174 c 0
 136 -168 139 -162 141 -157 c 2
 285 133 l 1
 149 133 l 2
 135 133 115 133 115 153 c 0
 115 173 135 173 149 173 c 2
 306 173 l 1
 382 327 l 1
 197 327 l 2
 182 327 164 327 164 347 c 0
 164 367 182 367 197 367 c 2
 403 367 l 1
 562 688 l 2
 566 692 571 694 577 694 c 0
 591 694 597 683 597 674 c 0
 597 668 594 662 592 657 c 2
 448 367 l 1
 613 367 l 1
 772 688 l 2
 776 692 781 694 787 694 c 0
 801 694 807 683 807 674 c 0
 807 668 804 662 802 657 c 2
 658 367 l 1
 794 367 l 2
 808 367 828 367 828 347 c 0
592 327 m 1
 427 327 l 1
 351 173 l 1
 516 173 l 1
 592 327 l 1
EndSplineSet
EndChar

StartChar: O
Encoding: 79 79 80
Width: 767
Flags: MW
HStem: -22 26<339.5 422.5 339.5 478> 680 25<509.5 592>
VStem: 148 90<160.5 228 145.5 352> 703 85<442 526 323.5 553>
LayerCount: 2
Fore
SplineSet
788 444 m 0
 788 203 578 -22 378 -22 c 0
 242 -22 148 85 148 236 c 0
 148 468 355 705 560 705 c 0
 686 705 788 608 788 444 c 0
703 486 m 0
 703 620 631 680 553 680 c 0
 466 680 375 607 322 513 c 0
 252 391 238 251 238 205 c 0
 238 86 294 4 385 4 c 0
 460 4 549 63 614 174 c 0
 667 265 703 398 703 486 c 0
EndSplineSet
Position2: "'cpsp' Capital Spacing lookup 0 subtable" dx=7 dy=0 dh=14 dv=0
EndChar

StartChar: o
Encoding: 111 111 81
Width: 511
Flags: MW
HStem: -11 22<236.5 280.5 236.5 318> 420 22<342.5 386.5>
VStem: 110 70<102.5 139 78 227> 439 70<295.5 325.5 204.5 346.5>
LayerCount: 2
Fore
SplineSet
509 278 m 0
 509 131 380 -11 256 -11 c 0
 173 -11 110 51 110 154 c 0
 110 300 239 442 363 442 c 0
 450 442 509 373 509 278 c 0
439 317 m 0
 439 376 411 420 362 420 c 0
 323 420 275 390 238 329 c 0
 206 275 180 164 180 114 c 0
 180 42 217 11 256 11 c 0
 305 11 356 56 385 111 c 0
 417 171 439 274 439 317 c 0
EndSplineSet
EndChar

StartChar: one
Encoding: 49 49 82
Width: 511
Flags: MW
HStem: 0 31<145 153 153 153.5 383 391 391 399> 646 20G<446 452>
LayerCount: 2
Fore
SplineSet
417 19 m 0
 417 0 404 0 397 0 c 0
 353 0 307 3 263 3 c 0
 220 3 175 0 132 0 c 0
 128 0 117 0 117 12 c 0
 117 31 128 31 145 31 c 2
 153 31 l 2
 231 31 239 41 247 73 c 2
 365 547 l 1
 318 512 269 506 254 506 c 0
 250 506 238 506 238 518 c 0
 238 535 249 536 254 537 c 0
 283 540 353 547 430 650 c 0
 442 665 443 666 449 666 c 0
 455 666 461 662 461 654 c 2
 461 654 459 644 458 641 c 2
 315 70 l 2
 314 66 312 57 312 51 c 0
 312 37 318 36 340 33 c 0
 353 32 370 31 383 31 c 2
 391 31 l 2
 407 31 417 31 417 19 c 0
EndSplineSet
Substitution2: "'pnum' Proportional Numbers lookup 6 subtable" one.prop
Substitution2: "'onum' Oldstyle Figures lookup 4 subtable" one.oldstyle
AlternateSubs2: "'aalt' Access All Alternates lookup 1 subtable" one.oldstyle one.prop
EndChar

StartChar: P
Encoding: 80 80 83
Width: 678
Flags: MW
HStem: 0 31<82 96 295.5 317> 316 26<318 444 444 469 314 444> 652 31<253 268.5 418.5 435 435 521>
VStem: 642 88<552 577 476.5 594>
LayerCount: 2
Fore
SplineSet
730 535 m 0
 730 418 595 316 469 316 c 2
 314 316 l 1
 253 68 l 2
 249 54 249 52 249 48 c 0
 249 39 249 31 307 31 c 0
 327 31 334 31 334 18 c 0
 334 0 322 0 315 0 c 0
 276 0 235 3 195 3 c 0
 156 3 115 0 77 0 c 0
 74 0 63 0 63 12 c 0
 63 31 74 31 90 31 c 0
 158 31 164 39 172 73 c 2
 307 616 l 2
 311 630 311 632 311 635 c 0
 311 652 284 652 253 652 c 0
 234 652 226 652 226 664 c 0
 226 683 237 683 253 683 c 2
 553 683 l 2
 662 683 730 619 730 535 c 0
642 562 m 0
 642 626 591 652 521 652 c 2
 435 652 l 2
 402 652 395 652 386 616 c 2
 318 342 l 1
 444 342 l 2
 504 342 554 361 589 400 c 0
 627 444 642 542 642 562 c 0
EndSplineSet
Position2: "'cpsp' Capital Spacing lookup 0 subtable" dx=7 dy=0 dh=14 dv=0
EndChar

StartChar: p
Encoding: 112 112 84
Width: 511
Flags: MW
HStem: -194 31<30.5 35 30.5 39.5 191.5 209> -11 22<256 306.5 252 336.5> 420 22<169.5 198 365.5 410.5>
VStem: 443 67<310 339.5 211.5 347>
LayerCount: 2
Fore
SplineSet
510 286 m 0
 510 137 391 -11 282 -11 c 0
 230 -11 205 30 198 47 c 1
 162 -99 l 2
 158 -115 151 -141 151 -147 c 0
 151 -157 151 -163 202 -163 c 0
 216 -163 226 -163 226 -175 c 0
 226 -194 213 -194 207 -194 c 0
 176 -194 142 -191 110 -191 c 0
 82 -191 53 -194 26 -194 c 0
 19 -194 14 -189 14 -182 c 0
 14 -163 26 -163 35 -163 c 0
 74 -162 82 -159 90 -128 c 2
 204 330 l 2
 211 358 211 374 211 380 c 0
 211 391 211 420 185 420 c 0
 154 420 135 371 117 301 c 0
 112 279 111 278 98 278 c 0
 93 278 83 278 83 288 c 2
 83 288 96 349 115 389 c 0
 131 419 151 442 187 442 c 0
 212 442 257 430 269 372 c 1
 298 406 341 442 390 442 c 0
 450 442 510 393 510 286 c 0
387 106 m 0
 416 170 443 289 443 331 c 0
 443 363 433 420 388 420 c 0
 333 420 271 341 263 307 c 2
 216 118 l 2
 214 110 213 107 213 104 c 0
 213 96 223 11 281 11 c 0
 332 11 375 81 387 106 c 0
EndSplineSet
EndChar

StartChar: parenleft
Encoding: 40 40 85
Width: 409
Flags: MW
HStem: -250 21G<254 264> 730 20G<500.5 509>
VStem: 152 50<17.5 79 -24 100.5>
LayerCount: 2
Fore
SplineSet
271 -240 m 2
 271 -246 267 -250 261 -250 c 0
 247 -250 204 -192 179 -125 c 0
 161 -75 152 -12 152 47 c 0
 152 154 183 346 293 527 c 0
 380 669 495 750 506 750 c 0
 512 750 516 747 516 740 c 0
 516 737 515 736 501 722 c 0
 261 518 202 147 202 11 c 0
 202 -59 210 -144 264 -226 c 0
 271 -236 271 -240 271 -240 c 2
EndSplineSet
EndChar

StartChar: parenright
Encoding: 41 41 86
Width: 409
Flags: MW
HStem: -250 21G<25 33.5> 730 20G<270 280>
VStem: 332 50<421 482.5 399.5 524>
LayerCount: 2
Fore
SplineSet
382 453 m 0
 382 346 351 154 241 -27 c 0
 154 -169 39 -250 28 -250 c 0
 22 -250 18 -247 18 -240 c 0
 18 -237 19 -236 33 -222 c 0
 273 -18 332 353 332 489 c 0
 332 559 324 644 270 726 c 0
 263 736 263 740 263 740 c 2
 263 746 267 750 273 750 c 0
 287 750 330 692 355 625 c 0
 373 575 382 512 382 453 c 0
EndSplineSet
EndChar

StartChar: percent
Encoding: 37 37 87
Width: 818
Flags: MW
HStem: -56 22<588 641.5 588 654.5> 325 22<659.5 721.5> 347 22<282 334 282 344> 621 22<576.5 623> 728 22<352 413 349.5 415>
VStem: 205 51<439 485.5 435 545> 449 30<568 630.5 559.5 652> 513 51<39 79.5 38.5 140.5> 757 31<163.5 245 160.5 254>
LayerCount: 2
Fore
SplineSet
846 730 m 0xbf80
 846 722 842 718 835 709 c 2
 186 -43 l 2
 176 -55 171 -56 165 -56 c 0
 155 -56 145 -47 145 -36 c 0
 145 -28 149 -24 156 -16 c 2
 729 649 l 1
 729 650 l 1
 681 628 639 621 607 621 c 0
 546 621 499 645 476 663 c 1
 479 649 479 637 479 624 c 0
 479 495 388 347 300 347 c 0
 245 347 205 398 205 480 c 0
 205 610 304 750 395 750 c 0
 431 750 447 729 455 718 c 0
 469 699 511 643 608 643 c 0
 684 643 759 682 802 732 c 0
 813 745 817 750 827 750 c 0
 837 750 846 741 846 730 c 0xbf80
788 221 m 0
 788 100 701 -56 608 -56 c 0
 550 -56 513 1 513 77 c 0
 513 204 610 347 704 347 c 0
 770 347 788 269 788 221 c 0
449 629 m 0
 449 675 435 728 395 728 c 0
 309 728 256 522 256 449 c 0
 256 421 262 369 302 369 c 0
 366 369 449 507 449 629 c 0
757 226 m 0
 757 282 739 325 704 325 c 0x4080
 615 325 564 113 564 46 c 0
 564 31 566 -34 610 -34 c 0
 673 -34 757 101 757 226 c 0
EndSplineSet
EndChar

StartChar: period
Encoding: 46 46 88
Width: 307
Flags: MW
HStem: 0 106<162 174>
VStem: 113 109<48 59.5>
LayerCount: 2
Fore
SplineSet
222 63 m 0
 222 33 191 0 157 0 c 0
 131 0 113 17 113 43 c 0
 113 76 146 106 178 106 c 0
 206 106 222 85 222 63 c 0
EndSplineSet
EndChar

StartChar: plus
Encoding: 43 43 89
Width: 767
Flags: MW
HStem: -57 21G<370 382.5> 230 40<166 431 173 421 472 719 173 462> 537 20G<510 524>
VStem: 140 612<240 260>
LayerCount: 2
Fore
SplineSet
752 250 m 0
 752 230 733 230 719 230 c 2
 462 230 l 1
 397 -32 l 2
 394 -43 390 -57 375 -57 c 0
 365 -57 355 -50 355 -36 c 0
 355 -32 356 -31 359 -17 c 2
 421 230 l 1
 173 230 l 2
 159 230 140 230 140 250 c 0
 140 270 159 270 173 270 c 2
 431 270 l 1
 496 532 l 2
 498 541 502 557 518 557 c 0
 530 557 538 548 538 537 c 0
 538 533 538 532 534 518 c 2
 472 270 l 1
 719 270 l 2
 733 270 752 270 752 250 c 0
EndSplineSet
EndChar

StartChar: Q
Encoding: 81 81 90
Width: 767
Flags: MW
HStem: -194 94<545 580.5 545 596> -22 25<379.5 395.5> 126 22<398 447> 680 25<516 599>
VStem: 148 85<166 234 166 352> 322 22<35 61 23 67> 704 84<436 526 354.5 539.5>
LayerCount: 2
Fore
SplineSet
695 -1 m 1
 695 -1 654 -194 538 -194 c 0
 480 -194 459 -157 459 -102 c 0
 459 -88 461 -59 469 -7 c 1
 448 -14 413 -22 378 -22 c 0
 242 -22 148 85 148 236 c 0
 148 468 355 705 560 705 c 0
 686 705 788 608 788 444 c 0
 788 265 667 78 502 6 c 1
 504 -85 528 -100 562 -100 c 0
 599 -100 649 -72 672 -2 c 0
 674 5 676 11 684 11 c 0
 690 11 695 6 695 -1 c 1
704 480 m 0
 704 599 645 680 553 680 c 0
 479 680 394 625 333 532 c 0
 258 417 233 266 233 202 c 0
 233 130 256 48 327 15 c 1
 325 20 322 27 322 43 c 0
 322 91 364 148 419 148 c 0
 491 148 497 74 499 42 c 1
 660 144 704 392 704 480 c 0
473 26 m 1
 474 34 474 46 474 54 c 0
 474 80 474 126 420 126 c 0
 376 126 344 79 344 43 c 0
 344 3 374 3 385 3 c 0
 417 3 449 14 473 26 c 1
EndSplineSet
Position2: "'cpsp' Capital Spacing lookup 0 subtable" dx=7 dy=0 dh=14 dv=0
EndChar

StartChar: q
Encoding: 113 113 91
Width: 460
Flags: MW
HStem: -194 31<213.5 220 213.5 225 394 412> -11 22<207.5 249.5> 420 22<316.5 341>
VStem: 108 68<101.5 125 85 217> 429 68
LayerCount: 2
Fore
SplineSet
429 -175 m 0
 429 -194 416 -194 410 -194 c 0
 378 -194 342 -191 309 -191 c 0
 276 -191 241 -194 209 -194 c 0
 202 -194 196 -191 196 -182 c 0
 196 -163 207 -163 220 -163 c 0
 284 -162 285 -158 296 -115 c 0
 316 -36 315 -36 335 42 c 1
 307 15 270 -11 229 -11 c 0
 154 -11 108 59 108 144 c 0
 108 290 226 442 337 442 c 0
 385 442 411 407 423 378 c 1
 439 406 475 441 486 441 c 0
 489 441 497 439 497 430 c 2
 497 430 495 420 494 417 c 2
 357 -129 l 2
 356 -135 354 -140 354 -147 c 0
 354 -157 354 -163 405 -163 c 0
 419 -163 429 -163 429 -175 c 0
355 122 m 2
 403 314 l 2
 405 320 406 324 406 327 c 0
 406 346 396 375 386 391 c 0
 368 419 345 420 337 420 c 0
 296 420 250 370 225 309 c 0
 207 267 176 150 176 100 c 0
 176 70 184 11 231 11 c 0
 286 11 347 91 355 122 c 2
EndSplineSet
EndChar

StartChar: question
Encoding: 63 63 92
Width: 511
Flags: MW
HStem: 0 106<263.5 276> 106 81<285 294> 187 22<297 321.5 297 339.5> 431 81<239 241> 694 22<390 454>
VStem: 246 35<240.5 262.5 235 288.5> 516 35<570.5 627.5 544 635>
LayerCount: 2
Fore
SplineSet
551 592 m 0x5e
 551 496 482 441 441 409 c 2
 363 346 l 2
 299 296 281 282 281 243 c 0
 281 227 288 209 306 209 c 0xa6
 337 209 372 237 386 277 c 0
 390 290 391 292 403 292 c 0
 408 292 418 292 418 282 c 0
 418 258 373 187 306 187 c 0
 264 187 246 224 246 257 c 0
 246 320 290 354 315 375 c 2
 436 470 l 2
 465 494 516 535 516 606 c 0
 516 664 477 694 431 694 c 0
 349 694 275 612 239 512 c 1
 269 512 277 494 277 480 c 0
 277 454 254 431 228 431 c 0
 215 431 194 437 194 463 c 0
 194 506 278 716 431 716 c 0
 504 716 551 663 551 592 c 0x5e
324 63 m 0
 324 32 293 0 259 0 c 0
 234 0 215 18 215 43 c 0
 215 77 248 106 279 106 c 0
 309 106 324 83 324 63 c 0
EndSplineSet
EndChar

StartChar: quotedbl
Encoding: 34 34 93
Width: 401
Flags: MW
HStem: 423 21G<244 274 244 244 338 338 338 368> 685 20G<321 339 415 433>
LayerCount: 2
Fore
SplineSet
354 673 m 2
 274 423 l 1
 244 423 l 1
 290 673 l 2
 293 691 312 705 330 705 c 0
 348 705 359 691 354 673 c 2
448 673 m 2
 368 423 l 1
 338 423 l 1
 384 673 l 2
 387 691 406 705 424 705 c 0
 442 705 453 691 448 673 c 2
EndSplineSet
EndChar

StartChar: quotesingle
Encoding: 39 39 94
Width: 307
Flags: MW
HStem: 423 21G<244 274 244 244> 685 20G<321 339>
LayerCount: 2
Fore
SplineSet
354 673 m 2
 274 423 l 1
 244 423 l 1
 290 673 l 2
 293 691 312 705 330 705 c 0
 348 705 359 691 354 673 c 2
EndSplineSet
EndChar

StartChar: R
Encoding: 82 82 95
Width: 729
Flags: MW
HStem: -22 22<598 628.5> 0 31<82 96 292.5 314> 331 22<321 422 422 423 315 422> 652 31<253 268.5 456.5 498>
VStem: 485 109 628 90<555 574.5 498.5 605>
LayerCount: 2
Fore
SplineSet
723 92 m 0x9c
 723 84 693 -22 609 -22 c 0xb4
 546 -22 485 10 485 84 c 0
 485 103 489 117 500 164 c 0
 514 220 517 229 517 243 c 0
 517 315 465 331 423 331 c 2
 315 331 l 1
 250 68 l 2
 246 54 246 52 246 48 c 0
 246 39 246 31 304 31 c 0
 324 31 331 31 331 18 c 0
 331 0 319 0 312 0 c 0
 273 0 232 3 193 3 c 0
 155 3 115 0 77 0 c 0
 74 0 63 0 63 12 c 0
 63 31 74 31 90 31 c 0x68
 158 31 164 39 172 73 c 2
 307 616 l 2
 311 630 311 632 311 635 c 0
 311 652 284 652 253 652 c 0
 234 652 226 652 226 664 c 0
 226 683 237 683 253 683 c 2
 517 683 l 2
 642 683 718 614 718 535 c 0
 718 462 650 375 508 339 c 1
 559 321 594 279 594 223 c 0
 594 202 589 158 586 135 c 0
 583 109 580 85 580 59 c 0
 580 27 583 0 613 0 c 0
 644 0 674 32 691 88 c 0
 694 100 695 105 708 105 c 0
 721 105 723 99 723 92 c 0x9c
628 558 m 0
 628 652 530 652 466 652 c 0
 447 652 415 652 408 650 c 0
 401 648 393 646 386 616 c 2
 321 353 l 1
 422 353 l 2
 490 353 540 376 570 405 c 0
 624 459 628 552 628 558 c 0
EndSplineSet
Position2: "'cpsp' Capital Spacing lookup 0 subtable" dx=7 dy=0 dh=14 dv=0
EndChar

StartChar: r
Encoding: 114 114 96
Width: 422
Flags: MW
HStem: -11 21G<144 169> 326 79 420 22<169.5 198 356.5 392.5>
VStem: 405 84<359.5 360.5>
LayerCount: 2
Fore
SplineSet
489 379 m 0
 489 340 458 326 440 326 c 0
 414 326 405 345 405 358 c 0
 405 363 408 395 443 406 c 1
 423 420 395 420 390 420 c 0
 304 420 259 291 258 288 c 2
 193 26 l 2
 191 18 184 -11 154 -11 c 0
 134 -11 126 4 126 15 c 0
 126 18 127 23 129 29 c 2
 204 329 l 2
 208 345 211 364 211 380 c 0
 211 391 211 420 185 420 c 0
 154 420 135 371 117 301 c 0
 112 279 111 278 98 278 c 0
 93 278 83 278 83 288 c 2
 83 288 96 349 115 389 c 0
 131 419 151 442 187 442 c 0
 220 442 259 423 270 370 c 1
 286 392 322 442 391 442 c 0
 424 442 489 431 489 379 c 0
EndSplineSet
EndChar

StartChar: S
Encoding: 83 83 97
Width: 562
Flags: MW
HStem: -22 31<275 347.5 265.5 364> 677 28<386.5 441 369.5 476>
VStem: 199 68<485.5 524.5> 470 68<175 218>
LayerCount: 2
Fore
SplineSet
538 238 m 0
 538 112 427 -22 301 -22 c 0
 249 -22 185 -7 148 47 c 1
 138 34 112 2 101 -10 c 0
 93 -20 92 -22 85 -22 c 0
 79 -22 74 -18 74 -12 c 0
 74 -9 75 -6 77 1 c 2
 129 210 l 2
 133 225 135 227 147 227 c 0
 153 227 162 227 162 216 c 2
 161 210 l 2
 158 199 153 172 153 149 c 0
 153 45 228 9 303 9 c 0
 392 9 470 109 470 200 c 0
 470 236 459 258 448 272 c 0
 431 290 423 293 371 308 c 2
 322 322 l 2
 307 326 285 332 279 335 c 0
 221 362 199 415 199 467 c 0
 199 582 308 705 431 705 c 0
 451 705 522 704 561 637 c 1
 606 693 l 2
 615 704 616 705 621 705 c 0
 631 705 632 695 632 695 c 2
 632 691 631 685 630 681 c 2
 578 474 l 2
 574 457 571 456 560 456 c 0
 555 456 545 456 545 466 c 2
 546 480 l 2
 550 502 551 509 551 535 c 0
 551 609 523 677 429 677 c 0
 344 677 267 588 267 506 c 0
 267 465 284 433 318 418 c 0
 323 416 354 407 373 402 c 0
 468 374 480 371 505 340 c 0
 531 308 538 267 538 238 c 0
EndSplineSet
Position2: "'cpsp' Capital Spacing lookup 0 subtable" dx=7 dy=0 dh=14 dv=0
EndChar

StartChar: s
Encoding: 115 115 98
Width: 409
Flags: MW
HStem: -11 22<195 257.5 195 280> 68 80 302 68 420 22<271 324.5>
VStem: 154 56<306.5 320> 336 57<134 150>
LayerCount: 2
Fore
SplineSet
393 157 m 0
 393 111 355 -11 205 -11 c 0
 134 -11 76 25 76 86 c 0
 76 131 104 148 127 148 c 0
 148 148 161 135 161 116 c 1
 161 116 161 72 110 67 c 1
 126 16 184 11 206 11 c 0
 309 11 336 91 336 123 c 0
 336 177 291 187 247 197 c 0
 219 203 154 217 154 294 c 0
 154 346 195 442 312 442 c 0
 378 442 419 403 419 357 c 0
 419 314 393 302 376 302 c 0
 352 302 346 319 346 330 c 0
 346 340 354 367 386 371 c 1
 375 410 338 420 311 420 c 0
 231 420 210 352 210 328 c 0
 210 285 246 277 274 271 c 0
 315 262 393 244 393 157 c 0
EndSplineSet
EndChar

StartChar: semicolon
Encoding: 59 59 99
Width: 307
Flags: MW
HStem: -193 21G<80 92> 0 106<158 167> 325 106<242 255>
VStem: 113 105<26 56.5>
LayerCount: 2
Fore
SplineSet
218 53 m 0
 218 -67 101 -193 83 -193 c 0
 77 -193 73 -188 73 -182 c 0
 73 -178 75 -175 80 -172 c 0
 132 -122 172 -65 190 9 c 1
 188 8 177 0 157 0 c 0
 136 0 113 10 113 42 c 0
 113 71 138 106 178 106 c 0
 218 106 218 66 218 53 c 0
303 388 m 0
 303 357 272 325 238 325 c 0
 210 325 194 345 194 368 c 0
 194 399 225 431 259 431 c 0
 287 431 303 411 303 388 c 0
EndSplineSet
EndChar

StartChar: seven
Encoding: 55 55 100
Width: 511
Flags: MW
HStem: -22 21G<294.5 322.5> 527 22<459.5 476> 596 70<377.5 387.5>
VStem: 144 481<427 661>
LayerCount: 2
Fore
SplineSet
625 656 m 1
 625 656 625 652 616 639 c 0
 588 596 542 527 490 415 c 0
 432 291 390 164 359 44 c 0
 351 10 342 -22 303 -22 c 0
 286 -22 268 -11 268 11 c 0
 268 15 287 122 378 304 c 0
 411 370 412 372 513 538 c 1
 499 531 484 527 468 527 c 0
 451 527 435 532 419 561 c 0
 402 589 397 596 378 596 c 0
 342 596 250 575 175 430 c 0
 171 423 170 422 159 422 c 0
 152 422 144 422 144 432 c 2
 144 432 144 435 150 447 c 2
 246 651 l 2
 253 665 254 666 265 666 c 0
 270 666 280 666 280 656 c 2
 280 656 280 653 257 603 c 1
 315 658 364 666 391 666 c 0
 432 666 436 636 440 598 c 0
 443 564 446 549 468 549 c 0
 509 549 546 589 583 643 c 2
 598 663 l 2
 602 666 606 666 611 666 c 0
 617 666 625 666 625 656 c 1
EndSplineSet
Substitution2: "'pnum' Proportional Numbers lookup 6 subtable" seven.prop
Substitution2: "'onum' Oldstyle Figures lookup 4 subtable" seven.oldstyle
AlternateSubs2: "'aalt' Access All Alternates lookup 1 subtable" seven.oldstyle seven.prop
EndChar

StartChar: six
Encoding: 54 54 101
Width: 511
Flags: MW
HStem: -22 28<226.5 284 226.5 317> 404 22<336.5 371> 521 80<511 533> 641 25<439.5 481>
VStem: 120 65<82.5 193> 435 72<294 295 195 332.5>
LayerCount: 2
Fore
SplineSet
507 270 m 0
 507 120 380 -22 254 -22 c 0
 120 -22 120 131 120 158 c 0
 120 228 142 387 227 507 c 0
 299 609 389 666 471 666 c 0
 531 666 568 637 568 587 c 0
 568 549 550 521 516 521 c 0
 490 521 482 539 482 553 c 0
 482 560 487 601 535 601 c 1
 525 637 492 641 470 641 c 0
 409 641 356 593 325 554 c 0
 279 495 255 429 232 339 c 1
 262 383 306 426 367 426 c 0
 480 426 507 320 507 270 c 0
380 96 m 0
 400 135 435 271 435 317 c 0
 435 348 426 368 417 380 c 0
 400 404 378 404 364 404 c 0
 231 404 185 176 185 97 c 0
 185 68 197 6 256 6 c 0
 312 6 354 49 380 96 c 0
EndSplineSet
Substitution2: "'pnum' Proportional Numbers lookup 6 subtable" six.prop
Substitution2: "'onum' Oldstyle Figures lookup 4 subtable" six.oldstyle
AlternateSubs2: "'aalt' Access All Alternates lookup 1 subtable" six.oldstyle six.prop
EndChar

StartChar: slash
Encoding: 47 47 102
Width: 511
Flags: MW
HStem: -250 21G<34 43> 730 20G<593 616>
VStem: 20 596
LayerCount: 2
Fore
SplineSet
616 730 m 2
 616 730 616 724 609 711 c 2
 62 -232 l 2
 53 -247 47 -250 39 -250 c 0
 29 -250 20 -241 20 -230 c 2
 20 -230 20 -224 27 -211 c 2
 574 732 l 2
 583 747 589 750 597 750 c 0
 607 750 616 741 616 730 c 2
EndSplineSet
EndChar

StartChar: T
Encoding: 84 84 104
Width: 716
Flags: MW
HStem: 0 31<215 229.5 497 512 512 519.5> 646 31<353.5 418 418 452 618.5 679>
VStem: 175 631<457.5 671>
LayerCount: 2
Fore
SplineSet
775 473 m 2
 772 455 770 452 757 452 c 0
 752 452 742 452 742 465 c 2
 742 465 742 469 744 480 c 0
 754 539 754 558 754 570 c 0
 754 632 731 646 627 646 c 0
 610 646 583 646 575 644 c 0
 567 643 559 641 552 611 c 2
 418 73 l 2
 414 59 414 57 414 54 c 0
 414 40 419 36 447 33 c 0
 450 33 481 31 497 31 c 2
 512 31 l 2
 527 31 537 31 537 20 c 0
 537 0 525 0 516 0 c 0
 465 0 411 3 359 3 c 0
 308 3 255 0 204 0 c 0
 199 0 187 0 187 12 c 0
 187 31 198 31 215 31 c 2
 231 31 l 2
 319 31 328 41 337 76 c 2
 471 613 l 2
 473 619 475 628 475 635 c 0
 475 642 475 646 452 646 c 2
 418 646 l 2
 289 646 261 625 214 484 c 0
 204 458 203 457 201 455 c 0
 198 452 194 452 190 452 c 0
 187 452 175 452 175 463 c 2
 175 463 175 467 180 480 c 2
 239 659 l 2
 245 677 248 677 268 677 c 2
 781 677 l 2
 797 677 806 677 806 665 c 0
 806 661 806 656 805 652 c 2
 775 473 l 2
EndSplineSet
Position2: "'cpsp' Capital Spacing lookup 0 subtable" dx=7 dy=0 dh=14 dv=0
EndChar

StartChar: t
Encoding: 116 116 105
Width: 332
Flags: MW
HStem: -11 22<192.5 234.5 192.5 254.5> 400 31<108 204 119 196 268 345> 606 20G<269.5 287>
VStem: 119 60<54 55.5 44 86>
LayerCount: 2
Fore
SplineSet
356 143 m 0
 356 138 305 -11 204 -11 c 0
 152 -11 119 29 119 79 c 0
 119 93 123 109 124 113 c 2
 196 400 l 1
 116 400 l 2
 100 400 91 400 91 412 c 0
 91 431 102 431 119 431 c 2
 204 431 l 1
 243 590 l 2
 247 605 257 626 282 626 c 0
 292 626 309 621 309 600 c 0
 309 595 309 593 305 579 c 2
 268 431 l 1
 348 431 l 2
 364 431 373 431 373 419 c 0
 373 400 362 400 345 400 c 2
 260 400 l 1
 186 103 l 2
 179 75 179 59 179 52 c 0
 179 36 179 11 206 11 c 0
 263 11 303 86 321 134 c 0
 329 152 329 153 341 153 c 0
 348 153 356 153 356 143 c 0
EndSplineSet
EndChar

StartChar: three
Encoding: 51 51 106
Width: 511
Flags: MW
HStem: -22 22<203 250.5 203 291> 319 31<294.5 327 304 327 327 331> 412 22<245 269.5 245 273.5> 644 22<368.5 435.5>
VStem: 199 30<462 510.5 462 518.5> 278 60 316 22<479 503.5> 408 72<143 276.5> 502 60<546 574.5 494 590>
LayerCount: 2
Fore
SplineSet
480 203 m 0x7a80
 480 83 354 -22 228 -22 c 0
 143 -22 95 38 95 106 c 0
 95 124 97 184 148 184 c 0
 171 184 182 168 182 152 c 0
 182 137 169 100 126 104 c 1
 128 30 178 0 228 0 c 0
 273 0 319 25 347 59 c 0
 399 119 408 218 408 236 c 0
 408 317 350 319 331 319 c 2
 303 319 l 2
 286 319 278 319 278 329 c 0xc5
 278 350 287 350 304 350 c 2
 327 350 l 2
 492 350 502 538 502 554 c 0
 502 626 454 644 417 644 c 0
 320 644 229 550 229 471 c 0
 229 453 235 434 255 434 c 0
 284 434 316 462 316 496 c 0
 316 511 308 525 308 525 c 2
 305 531 304 533 304 536 c 0
 304 542 309 547 315 547 c 0
 327 547 338 516 338 497 c 0
 338 447 292 412 255 412 c 0
 218 412 199 441 199 476 c 0
 199 561 300 666 419 666 c 0
 497 666 562 617 562 532 c 0
 562 456 504 365 400 330 c 1
 476 295 480 222 480 203 c 0x7a80
EndSplineSet
Substitution2: "'pnum' Proportional Numbers lookup 6 subtable" three.prop
Substitution2: "'onum' Oldstyle Figures lookup 4 subtable" three.oldstyle
AlternateSubs2: "'aalt' Access All Alternates lookup 1 subtable" three.oldstyle three.prop
EndChar

StartChar: two
Encoding: 50 50 107
Width: 511
Flags: MW
HStem: -22 70<349 396.5 349 411.5> 55 22<168.5 188> 336 22<211 247.5 211 255.5> 644 22<331 412.5>
VStem: 165 30<389 423.5 377 431.5> 315 22<478.5 499> 480 71<461.5 554.5 432.5 575.5>
LayerCount: 2
Fore
SplineSet
515 163 m 0
 515 152 469 -22 354 -22 c 0
 314 -22 283 0 257 18 c 0
 232 35 204 55 172 55 c 0
 142 55 124 19 116 -9 c 0
 113 -20 111 -22 99 -22 c 0
 94 -22 84 -22 84 -12 c 1
 84 -12 95 59 165 143 c 0
 207 195 249 219 294 246 c 0
 393 305 480 389 480 534 c 0
 480 617 433 644 392 644 c 0
 270 644 195 456 195 391 c 0
 195 363 205 358 217 358 c 0
 278 358 315 464 315 493 c 0
 315 505 311 518 305 530 c 0
 304 532 304 536 304 536 c 2
 304 542 309 547 315 547 c 0
 328 547 337 512 337 494 c 0
 337 456 295 336 216 336 c 0
 171 336 165 379 165 399 c 0
 165 464 247 666 395 666 c 0
 473 666 551 612 551 497 c 0
 551 368 460 306 306 219 c 0
 275 201 202 160 152 74 c 1
 154 75 163 77 174 77 c 0
 205 77 244 68 280 60 c 0
 296 56 335 48 363 48 c 0
 430 48 469 115 483 156 c 0
 487 172 488 173 500 173 c 0
 507 173 515 173 515 163 c 0
EndSplineSet
Substitution2: "'pnum' Proportional Numbers lookup 6 subtable" two.prop
Substitution2: "'onum' Oldstyle Figures lookup 4 subtable" two.oldstyle
AlternateSubs2: "'aalt' Access All Alternates lookup 1 subtable" two.oldstyle two.prop
EndChar

StartChar: U
Encoding: 85 85 108
Width: 743
Flags: MW
HStem: -22 31<358 431 358 443.5> 652 31<242.5 263.5 241 267.5 463 476.5 646.5 649 837 838.5>
VStem: 202 75<106 145 88.5 171>
LayerCount: 2
Fore
SplineSet
852 670 m 0
 852 653 840 652 837 652 c 0
 808 651 752 648 736 584 c 2
 645 218 l 2
 618 108 507 -22 380 -22 c 0
 286 -22 202 46 202 166 c 0
 202 176 202 198 210 230 c 2
 306 616 l 2
 310 630 310 632 310 635 c 0
 310 652 283 652 252 652 c 0
 233 652 225 652 225 664 c 0
 225 683 238 683 244 683 c 0
 283 683 324 680 364 680 c 0
 403 680 444 683 482 683 c 0
 489 683 496 681 496 670 c 0
 496 652 487 652 466 652 c 0
 403 652 395 644 387 612 c 2
 287 210 l 2
 282 188 277 156 277 134 c 0
 277 43 332 9 384 9 c 0
 478 9 584 100 616 229 c 2
 705 585 l 2
 707 593 709 600 709 609 c 0
 709 630 701 650 649 652 c 0
 640 652 631 653 631 664 c 0
 631 683 644 683 649 683 c 0
 680 683 713 680 745 680 c 0
 776 680 809 683 839 683 c 0
 848 683 852 678 852 670 c 0
EndSplineSet
Position2: "'cpsp' Capital Spacing lookup 0 subtable" dx=7 dy=0 dh=14 dv=0
EndChar

StartChar: u
Encoding: 117 117 109
Width: 537
Flags: MW
HStem: -11 22<247.5 292 247.5 293.5 448.5 476.5> 420 22<180 214.5>
VStem: 155 61<71.5 118.5 71.5 131> 231 56<379 386 351.5 404>
LayerCount: 2
Fore
SplineSet
561 143 m 2
 561 143 549 83 531 45 c 0
 516 14 495 -11 458 -11 c 0
 439 -11 396 -5 378 49 c 1
 354 19 320 -11 267 -11 c 0
 213 -11 155 18 155 105 c 0
 155 157 181 231 207 301 c 0
 221 340 231 367 231 391 c 0
 231 417 220 420 209 420 c 0
 151 420 124 325 116 294 c 0
 112 280 111 278 98 278 c 0
 93 278 83 278 83 288 c 0
 83 294 118 442 211 442 c 0
 254 442 287 411 287 361 c 0
 287 342 282 328 274 307 c 0
 249 239 216 149 216 88 c 0
 216 55 225 11 270 11 c 0
 314 11 343 41 362 69 c 0
 371 82 371 84 376 102 c 2
 449 394 l 2
 451 402 458 431 488 431 c 0
 508 431 516 416 516 405 c 0
 516 402 515 397 513 391 c 2
 441 103 l 2
 434 75 434 59 434 52 c 0
 434 38 434 11 460 11 c 0
 494 11 513 74 527 130 c 0
 533 152 534 153 546 153 c 0
 553 153 561 153 561 143 c 2
EndSplineSet
EndChar

StartChar: underscore
Encoding: 95 95 110
Width: 743
Flags: MW
HStem: -140 30<-39 716 -27 708>
LayerCount: 2
Fore
SplineSet
727 -125 m 0
 725 -133 717 -140 708 -140 c 2
 -35 -140 l 2
 -43 -140 -48 -133 -46 -125 c 0
 -44 -117 -36 -110 -27 -110 c 2
 716 -110 l 2
 724 -110 729 -117 727 -125 c 0
EndSplineSet
EndChar

StartChar: V
Encoding: 86 86 111
Width: 743
Flags: MW
HStem: -22 21G<358 372> 652 31<226 243.5 224.5 258 428 440>
VStem: 209 659<662.5 672 662.5 673.5>
LayerCount: 2
Fore
SplineSet
868 672 m 1
 868 653 857 653 849 652 c 0
 812 649 777 638 737 571 c 2
 394 -3 l 2
 383 -21 378 -22 366 -22 c 0
 350 -22 349 -17 347 2 c 2
 287 618 l 2
 285 643 283 652 233 652 c 0
 219 652 209 652 209 664 c 0
 209 683 222 683 227 683 c 0
 260 683 295 680 329 680 c 0
 367 680 407 683 444 683 c 0
 447 683 458 683 458 671 c 0
 458 652 447 652 433 652 c 0
 423 652 370 651 370 621 c 2
 421 97 l 1
 710 580 l 2
 714 587 725 607 725 620 c 0
 725 644 701 651 685 652 c 0
 677 653 669 653 669 664 c 0
 669 683 681 683 687 683 c 0
 716 683 749 680 779 680 c 0
 804 680 831 683 855 683 c 0
 866 683 868 672 868 672 c 1
EndSplineSet
Position2: "'cpsp' Capital Spacing lookup 0 subtable" dx=7 dy=0 dh=14 dv=0
EndChar

StartChar: v
Encoding: 118 118 112
Width: 460
Flags: MW
HStem: -11 22<255 339.5 255 363> 420 22<180 214.5>
VStem: 156 61<77.5 123 77.5 132.5> 231 56<379 386 351.5 404> 404 89<389.5 393.5 363 407.5>
LayerCount: 2
Fore
SplineSet
493 376 m 0
 493 350 447 -11 279 -11 c 0
 220 -11 156 18 156 109 c 0
 156 156 176 216 207 301 c 0
 221 340 231 367 231 391 c 0
 231 417 220 420 209 420 c 0
 151 420 124 325 116 294 c 0
 112 280 111 278 98 278 c 0
 93 278 83 278 83 288 c 0
 83 294 118 442 211 442 c 0
 254 442 287 411 287 361 c 0
 287 342 281 327 276 311 c 0
 249 239 217 152 217 94 c 0
 217 61 228 11 282 11 c 0
 397 11 444 262 444 290 c 0
 444 311 441 343 417 369 c 0
 411 376 404 383 404 396 c 0
 404 419 429 442 452 442 c 0
 481 442 493 411 493 376 c 0
EndSplineSet
EndChar

StartChar: W
Encoding: 87 87 113
Width: 999
Flags: MW
HStem: -22 21G<316.5 331.5 656.5 669> 652 31<225 241.5 224 254.5 426 433 565 582.5 772 776>
VStem: 208 916<667 672 667 673.5>
LayerCount: 2
Fore
SplineSet
1124 672 m 1
 1124 662 1120 653 1110 652 c 0
 1062 648 1038 632 1004 570 c 2
 691 -4 l 2
 681 -22 673 -22 665 -22 c 0
 648 -22 648 -16 647 3 c 2
 625 501 l 1
 350 -2 l 2
 342 -17 339 -22 324 -22 c 0
 309 -22 307 -18 306 3 c 2
 278 620 l 2
 277 644 277 652 232 652 c 0
 218 652 208 652 208 664 c 0
 208 683 222 683 226 683 c 0
 257 683 292 680 324 680 c 0
 361 680 400 683 437 683 c 0
 440 683 451 683 451 671 c 0
 451 652 440 652 426 652 c 0
 359 651 360 626 361 605 c 2
 383 116 l 1
 616 544 l 2
 622 554 622 556 622 564 c 2
 622 564 619 627 618 631 c 0
 616 646 612 652 570 652 c 0
 560 652 549 652 549 664 c 0
 549 683 563 683 567 683 c 0
 598 683 633 680 665 680 c 0
 702 680 741 683 778 683 c 0
 784 683 792 681 792 672 c 0
 792 652 780 652 772 652 c 0
 707 651 701 632 701 615 c 0
 701 611 702 608 702 608 c 1
 724 116 l 1
 977 582 l 2
 983 593 988 602 988 614 c 0
 988 645 954 651 937 652 c 0
 930 652 921 653 921 664 c 0
 921 683 934 683 940 683 c 0
 972 683 1007 680 1039 680 c 0
 1063 680 1089 683 1112 683 c 0
 1124 683 1124 672 1124 672 c 1
EndSplineSet
Position2: "'cpsp' Capital Spacing lookup 0 subtable" dx=7 dy=0 dh=14 dv=0
EndChar

StartChar: w
Encoding: 119 119 114
Width: 664
Flags: MW
HStem: -11 22<276.5 301 474 522> 420 22<180 214.5>
VStem: 157 61<95 125 91.5 125.5> 231 56<379 386 351.5 404> 372 61<73 112> 608 89<389.5 393.5 349.5 407.5>
LayerCount: 2
Fore
SplineSet
697 376 m 0
 697 323 658 169 628 101 c 0
 598 30 556 -11 496 -11 c 0
 437 -11 397 16 382 53 c 1
 352 2 317 -11 285 -11 c 0
 268 -11 223 -8 191 20 c 0
 165 44 157 78 157 112 c 0
 157 139 157 165 207 301 c 0
 221 340 231 367 231 391 c 0
 231 417 220 420 209 420 c 0
 151 420 124 325 116 294 c 0
 112 280 111 278 98 278 c 0
 93 278 83 278 83 288 c 0
 83 294 118 442 211 442 c 0
 254 442 287 411 287 361 c 0
 287 342 282 327 275 308 c 0
 244 226 218 152 218 98 c 0
 218 85 218 11 288 11 c 0
 341 11 372 94 372 105 c 0
 372 119 373 140 380 168 c 2
 437 396 l 2
 439 404 446 431 475 431 c 0
 495 431 503 416 503 405 c 0
 503 401 493 361 487 339 c 2
 445 171 l 2
 434 127 433 103 433 94 c 0
 433 52 449 11 499 11 c 0
 545 11 577 52 599 104 c 0
 616 145 648 250 648 290 c 0
 648 311 645 343 621 369 c 0
 615 376 608 383 608 396 c 0
 608 419 633 442 656 442 c 0
 685 442 697 411 697 376 c 0
EndSplineSet
EndChar

StartChar: X
Encoding: 88 88 115
Width: 743
Flags: MW
HStem: 0 31<237.5 260 665.5 684> 652 31<243 261.5 242 277 462 464.5>
VStem: 51 774<10 675.5>
LayerCount: 2
Fore
SplineSet
700 18 m 0
 700 0 688 0 682 0 c 0
 649 0 613 3 579 3 c 0
 541 3 501 0 463 0 c 0
 460 0 448 0 448 12 c 0
 448 27 457 30 464 31 c 0
 500 33 521 51 521 61 c 0
 521 64 519 69 518 73 c 2
 430 312 l 1
 238 93 l 1
 237 91 l 2
 236 89 235 87 233 85 c 0
 226 75 225 65 225 61 c 0
 225 51 230 34 260 31 c 1
 260 31 273 30 273 20 c 0
 273 0 259 0 254 0 c 0
 221 0 185 3 151 3 c 0
 122 3 91 0 63 0 c 0
 53 0 51 8 51 12 c 2
 51 12 52 30 63 31 c 0
 96 33 152 36 211 104 c 2
 419 341 l 1
 316 620 l 2
 308 642 304 652 250 652 c 0
 236 652 226 652 226 664 c 0
 226 683 239 683 245 683 c 0
 278 683 313 680 347 680 c 0
 386 680 426 683 464 683 c 0
 471 683 478 681 478 670 c 0
 478 653 467 652 462 652 c 0
 425 649 405 630 405 623 c 2
 409 611 l 1
 482 412 l 1
 630 582 l 2
 648 603 651 614 651 622 c 0
 651 649 622 651 615 652 c 0
 612 652 603 653 603 664 c 0
 603 683 615 683 621 683 c 0
 654 683 691 680 725 680 c 0
 754 680 784 683 812 683 c 0
 818 683 825 680 825 671 c 0
 825 653 815 653 804 652 c 0
 728 647 691 606 667 580 c 1
 655 570 l 1
 492 383 l 1
 611 61 l 2
 618 42 622 31 676 31 c 0
 692 31 700 31 700 18 c 0
EndSplineSet
Position2: "'cpsp' Capital Spacing lookup 0 subtable" dx=7 dy=0 dh=14 dv=0
EndChar

StartChar: x
Encoding: 120 120 116
Width: 464
Flags: MW
HStem: -11 22<140.5 165 326 357> 27 78 420 22<215 249.5 406.5 431.5>
VStem: 53 84<65.5 67.5> 434 84<351.5 404.5>
LayerCount: 2
Fore
SplineSet
488 143 m 0
 488 123 437 -11 334 -11 c 0
 308 -11 259 0 239 57 c 1
 222 27 189 -11 141 -11 c 0
 95 -11 53 12 53 51 c 0
 53 84 78 105 103 105 c 0
 116 105 137 99 137 73 c 0
 137 58 128 33 98 25 c 1
 115 11 139 11 142 11 c 0
 202 11 223 91 239 156 c 2
 262 247 l 2
 271 284 283 333 283 357 c 0
 283 397 264 420 235 420 c 0
 195 420 143 381 116 295 c 0
 111 279 111 278 98 278 c 0
 93 278 83 278 83 288 c 0
 83 311 137 442 237 442 c 0
 262 442 311 434 333 374 c 1
 343 393 376 442 431 442 c 0
 460 442 518 430 518 379 c 0
 518 340 487 326 469 326 c 0
 443 326 434 345 434 358 c 1
 434 358 434 396 474 406 c 1
 458 420 433 420 430 420 c 0
 383 420 356 365 342 313 c 2
 308 176 l 2
 300 142 289 99 289 75 c 0
 289 23 316 11 336 11 c 0
 378 11 428 50 455 136 c 0
 460 152 461 153 473 153 c 0
 480 153 488 153 488 143 c 0
EndSplineSet
EndChar

StartChar: Y
Encoding: 89 89 117
Width: 743
Flags: MW
HStem: 0 31<259 266 259 274 471 491.5> 652 31<219 237.5 218 249.5 427.5 439.5>
VStem: 202 672<662.5 672 662.5 673.5>
LayerCount: 2
Fore
SplineSet
874 672 m 1
 874 653 864 653 855 652 c 0
 807 648 769 627 722 570 c 2
 486 283 l 2
 479 275 479 273 474 256 c 2
 443 133 l 2
 436 104 424 56 424 48 c 0
 424 31 451 31 482 31 c 0
 501 31 509 31 509 19 c 0
 509 0 496 0 490 0 c 0
 452 0 410 3 371 3 c 0
 333 3 293 0 255 0 c 0
 252 0 241 0 241 12 c 0
 241 31 252 31 266 31 c 0
 340 32 341 35 354 90 c 0
 359 109 400 268 400 273 c 0
 400 277 398 283 396 288 c 2
 290 622 l 2
 283 645 273 652 226 652 c 0
 212 652 202 652 202 664 c 0
 202 683 215 683 221 683 c 0
 254 683 291 680 325 680 c 0
 364 680 404 683 442 683 c 0
 446 683 456 683 456 671 c 0
 456 652 445 652 434 652 c 0
 421 652 378 651 378 628 c 1
 378 628 378 625 382 615 c 2
 477 315 l 1
 696 582 l 2
 698 585 721 612 721 629 c 0
 721 645 707 651 690 652 c 0
 684 652 675 653 675 664 c 0
 675 683 687 683 693 683 c 0
 723 683 755 680 786 680 c 0
 811 680 838 683 862 683 c 0
 874 683 874 672 874 672 c 1
EndSplineSet
Position2: "'cpsp' Capital Spacing lookup 0 subtable" dx=7 dy=0 dh=14 dv=0
EndChar

StartChar: y
Encoding: 121 121 118
Width: 486
Flags: MW
HStem: -205 22<171 220 171 247> -11 22<247.5 290> 420 22<180 214.5>
VStem: 99 56 155 61<71.5 118.5 71.5 131> 231 56<379 386 351.5 404>
LayerCount: 2
Fore
SplineSet
415 -3 m 2xec
 390 -102 299 -205 195 -205 c 0
 140 -205 99 -171 99 -119 c 0x90
 99 -63 138 -57 150 -57 c 0
 168 -57 184 -68 184 -89 c 0
 184 -105 172 -132 141 -137 c 0
 134 -138 133 -140 133 -140 c 1
 133 -145 147 -183 195 -183 c 0
 245 -183 319 -139 357 26 c 1
 344 13 313 -11 267 -11 c 0
 213 -11 155 18 155 105 c 0
 155 157 181 231 207 301 c 0
 221 340 231 367 231 391 c 0
 231 417 220 420 209 420 c 0
 151 420 124 325 116 294 c 0
 112 280 111 278 98 278 c 0
 93 278 83 278 83 288 c 0
 83 294 118 442 211 442 c 0
 254 442 287 411 287 361 c 0
 287 342 282 328 274 307 c 0
 249 239 216 149 216 88 c 0
 216 55 225 11 270 11 c 0
 329 11 369 71 376 100 c 2
 449 394 l 2
 451 402 458 431 488 431 c 0
 508 431 516 416 516 405 c 0
 516 402 514 397 513 391 c 2
 415 -3 l 2xec
EndSplineSet
EndChar

StartChar: Z
Encoding: 90 90 119
Width: 613
Flags: MW
HStem: 0 34<91 103 177 324 324 411> 652 31<389 468 468 608>
VStem: 80 624
LayerCount: 2
Fore
SplineSet
605 255 m 2
 605 255 601 241 600 239 c 2
 532 18 l 2
 526 0 525 0 503 0 c 2
 103 0 l 2
 87 0 80 0 80 9 c 0
 80 21 86 28 91 34 c 2
 608 652 l 1
 468 652 l 2
 310 652 270 567 241 476 c 0
 236 462 235 458 223 458 c 0
 220 458 208 458 208 469 c 2
 208 469 210 480 211 482 c 2
 265 663 l 2
 271 682 272 683 294 683 c 2
 681 683 l 2
 698 683 704 683 704 674 c 0
 704 669 703 661 692 648 c 2
 177 34 l 1
 324 34 l 2
 498 34 532 127 569 242 c 0
 577 266 578 267 589 267 c 0
 595 267 605 267 605 255 c 2
EndSplineSet
Position2: "'cpsp' Capital Spacing lookup 0 subtable" dx=7 dy=0 dh=14 dv=0
EndChar

StartChar: z
Encoding: 122 122 120
Width: 409
Flags: MW
HStem: -11 64<282 313.5 282 330.5> 64 22<171.5 183> 345 22<362.5 370> 378 64<232.5 261>
VStem: 62 402
LayerCount: 2
Fore
SplineSet
433 143 m 0
 433 119 379 -11 282 -11 c 0
 251 -11 236 8 220 28 c 0
 202 53 194 64 172 64 c 0
 134 64 107 19 93 -2 c 0
 89 -9 88 -11 77 -11 c 0
 71 -11 62 -11 62 -1 c 0
 62 9 110 83 166 138 c 2
 330 301 l 2
 346 317 355 328 370 345 c 1
 355 345 344 345 311 360 c 0
 289 370 271 378 251 378 c 0
 214 378 185 353 177 331 c 0
 172 319 171 317 159 317 c 0
 151 317 144 319 144 328 c 0
 144 348 187 442 261 442 c 0
 293 442 310 419 322 403 c 0
 341 377 351 367 369 367 c 0
 385 367 398 372 431 429 c 0
 437 441 438 442 450 442 c 0
 456 442 464 442 464 432 c 0
 464 423 416 347 357 289 c 2
 212 146 l 2
 184 118 163 93 156 85 c 1
 161 86 169 86 174 86 c 0
 194 86 206 82 236 69 c 0
 256 60 272 53 292 53 c 0
 335 53 383 87 401 137 c 0
 405 150 406 153 418 153 c 0
 421 153 433 153 433 143 c 0
EndSplineSet
EndChar

StartChar: zero
Encoding: 48 48 121
Width: 511
Flags: MW
HStem: -22 22<240 282 240 284> 644 22<399 436.5>
VStem: 117 64<132.5 139 59 192.5> 493 62<513 516 455.5 582>
LayerCount: 2
Fore
SplineSet
476 164 m 0
 411 19 317 -22 251 -22 c 0
 117 -22 117 117 117 148 c 0
 117 237 160 412 209 505 c 0
 269 619 349 666 421 666 c 0
 550 666 555 536 555 496 c 0
 555 415 517 257 476 164 c 0
380 98 m 0
 423 193 493 476 493 550 c 0
 493 614 457 644 416 644 c 0
 382 644 328 622 291 547 c 0
 256 475 181 180 181 98 c 0
 181 20 224 0 256 0 c 0
 308 0 358 51 380 98 c 0
EndSplineSet
Substitution2: "'zero' Slashed Zero lookup 14 subtable" zero.slash
Substitution2: "'pnum' Proportional Numbers lookup 6 subtable" zero.prop
Substitution2: "'onum' Oldstyle Figures lookup 4 subtable" zero.oldstyle
AlternateSubs2: "'aalt' Access All Alternates lookup 1 subtable" zero.oldstyle zero.prop zero.slash
EndChar

StartChar: f_f
Encoding: 64256 64256 122
Width: 613
Flags: MW
HStem: -205 22<54 71.5 54 96.5 297 332.5> -164 80 400 31<142 218 152 212 282 509 580 655> 584 77 683 22<396 428.5 651 672.5>
VStem: -25 84<-126 -121.5> 210 84<-128.5 -122> 444 84<622 631.5> 674 84<621 628.5>
LayerCount: 2
Fore
SplineSet
758 639 m 0
 758 603 732 584 708 584 c 0
 692 584 674 594 674 616 c 0
 674 641 693 660 716 665 c 1
 700 683 674 683 671 683 c 0
 631 683 620 632 610 588 c 0
 592 504 597 515 580 431 c 1
 657 431 l 2
 673 431 683 431 683 419 c 0
 683 400 672 400 655 400 c 2
 574 400 l 1
 505 49 l 2
 495 -4 480 -57 455 -105 c 0
 433 -146 375 -205 306 -205 c 0
 268 -205 210 -189 210 -138 c 0
 210 -106 233 -84 260 -84 c 0
 276 -84 294 -94 294 -116 c 0
 294 -141 275 -160 252 -165 c 1
 267 -179 287 -183 307 -183 c 0
 358 -183 394 -122 399 -112 c 0
 410 -88 427 -24 441 50 c 2
 509 400 l 1
 276 400 l 1
 215 81 l 2
 185 -74 139 -205 54 -205 c 0
 19 -205 -25 -186 -25 -139 c 0
 -25 -104 0 -84 25 -84 c 0
 41 -84 59 -94 59 -116 c 0
 59 -136 45 -160 15 -165 c 1
 28 -183 54 -183 54 -183 c 1
 89 -183 103 -131 109 -107 c 0
 113 -93 126 -41 139 26 c 2
 212 400 l 1
 150 400 l 2
 134 400 125 400 125 412 c 0
 125 431 135 431 152 431 c 2
 218 431 l 1
 238 534 l 2
 252 607 284 705 420 705 c 0
 476 705 528 685 528 638 c 0
 528 606 505 584 478 584 c 0
 462 584 444 594 444 616 c 0
 444 647 473 662 484 665 c 1
 465 680 436 683 421 683 c 0
 371 683 339 653 332 639 c 0
 324 623 315 607 282 431 c 1
 515 431 l 1
 540 561 547 597 568 638 c 0
 587 675 629 705 671 705 c 0
 714 705 758 682 758 639 c 0
EndSplineSet
Ligature2: "'liga' Standard Ligatures lookup 8 subtable" f f
EndChar

StartChar: f_f_i
Encoding: 64259 64259 123
Width: 882
Flags: MW
HStem: -205 22<52.5 71.5 52.5 98 302.5 317> -11 22<792 821.5> 400 31<141.5 218 152 212 282 519 590 796> 574 88 683 22<414 438 734 776>
VStem: -25 84<-126 -121.5> 125 85 210 84<-129.5 -122> 470 84<622 625.5> 719 60<52.5 55.5 45 86> 831 85<599.5 668>
LayerCount: 2
Fore
SplineSet
906 143 m 2xfee0
 906 143 894 83 876 45 c 0
 861 14 840 -11 803 -11 c 0
 755 -11 719 26 719 79 c 0
 719 93 723 109 724 113 c 2
 796 400 l 1
 584 400 l 1
 522 80 l 2
 521 74 495 -58 457 -119 c 0
 447 -133 392 -205 311 -205 c 0
 269 -205 210 -189 210 -138 c 0
 210 -106 233 -84 260 -84 c 0
 276 -84 294 -94 294 -116 c 0xe140
 294 -143 272 -161 253 -165 c 1
 268 -177 293 -183 312 -183 c 0
 322 -183 346 -183 379 -150 c 0
 406 -123 413 -101 421 -76 c 0
 438 -21 441 -3 453 57 c 2
 519 400 l 1
 276 400 l 1
 215 82 l 2
 187 -65 142 -205 54 -205 c 0
 18 -205 -25 -185 -25 -139 c 0
 -25 -104 0 -84 25 -84 c 0
 41 -84 59 -94 59 -116 c 0
 59 -136 45 -160 15 -165 c 1
 29 -183 51 -183 54 -183 c 0
 89 -183 102 -134 111 -99 c 0
 123 -54 132 -9 141 36 c 2
 212 400 l 1
 150 400 l 2
 133 400 125 400 125 413 c 0
 125 431 135 431 152 431 c 2
 218 431 l 1
 236 526 l 2
 256 628 298 705 433 705 c 0
 481 705 554 694 554 638 c 0
 554 606 531 584 504 584 c 0
 488 584 470 594 470 616 c 0
 470 635 483 657 509 664 c 1
 484 683 442 683 434 683 c 0
 394 683 345 670 325 621 c 0
 316 598 316 596 282 431 c 1
 525 431 l 1
 550 559 557 597 587 636 c 0
 635 697 702 705 766 705 c 0
 795 705 916 705 916 631 c 0
 916 590 885 574 866 574 c 0
 840 574 831 593 831 606 c 1
 831 606 832 646 874 655 c 1
 848 683 783 683 769 683 c 0
 634 683 625 628 590 431 c 1
 841 431 l 2
 858 431 865 431 865 420 c 2
 865 420 863 413 862 407 c 2
 786 103 l 2
 779 75 779 59 779 52 c 0
 779 38 779 11 805 11 c 0
 839 11 858 74 872 130 c 0
 878 152 879 153 891 153 c 0
 898 153 906 153 906 143 c 2xfee0
EndSplineSet
Ligature2: "'liga' Standard Ligatures in Latin lookup 12 subtable" f_f i
Ligature2: "'liga' Standard Ligatures in Latin lookup 11 subtable" f_f i
Ligature2: "'liga' Standard Ligatures lookup 9 subtable" f_f i
EndChar

StartChar: f_f_l
Encoding: 64260 64260 124
Width: 894
Flags: MW
HStem: -205 22<52.5 71.5 52.5 97.5 309 338.5> -11 22<804 833.5> 400 31<142 217 152 211 282 519 589 808> 683 22<397.5 423 694.5 747.5>
VStem: -25 84<-126 -121.5> 209 84<-122.5 -122> 444 84<622 631.5> 731 60<52.5 55.5 45 86> 782 84<605 644>
LayerCount: 2
Fore
SplineSet
918 143 m 2x41
 918 143 906 83 888 45 c 0
 873 14 852 -11 815 -11 c 0
 767 -11 731 26 731 79 c 0x71
 731 93 735 109 736 113 c 2
 808 400 l 1
 583 400 l 1
 523 86 l 2
 520 72 494 -66 451 -127 c 0
 445 -134 389 -205 311 -205 c 0
 268 -205 209 -188 209 -138 c 0
 209 -106 232 -84 259 -84 c 0
 275 -84 293 -94 293 -116 c 0
 293 -129 285 -157 252 -164 c 1
 273 -183 307 -183 311 -183 c 0
 366 -183 404 -120 409 -110 c 0
 420 -85 437 -20 453 61 c 2
 519 400 l 1
 276 400 l 1
 214 79 l 2
 187 -63 141 -205 54 -205 c 0
 19 -205 -25 -185 -25 -139 c 0
 -25 -104 0 -84 25 -84 c 0
 41 -84 59 -94 59 -116 c 0
 59 -136 45 -160 15 -165 c 1
 29 -183 51 -183 54 -183 c 0
 89 -183 103 -130 110 -101 c 0
 125 -42 130 -23 141 36 c 2
 211 400 l 1
 150 400 l 2
 134 400 124 400 124 412 c 0
 124 431 135 431 152 431 c 2
 217 431 l 1
 237 532 l 2
 252 609 285 705 420 705 c 0
 476 705 528 685 528 638 c 0
 528 606 505 584 478 584 c 0
 462 584 444 594 444 616 c 0
 444 647 473 662 484 665 c 1
 461 683 425 683 421 683 c 0
 374 683 346 656 342 652 c 0
 334 645 325 636 308 564 c 2
 282 431 l 1
 525 431 l 1
 555 600 574 705 742 705 c 0
 769 705 801 702 826 691 c 0
 865 674 866 649 866 639 c 1xbe80
 867 639 l 1
 876 674 l 2
 882 693 883 694 904 694 c 2
 919 694 l 2
 935 694 943 694 943 684 c 0
 943 681 942 677 940 671 c 2
 798 103 l 2
 791 75 791 59 791 52 c 0
 791 38 791 11 817 11 c 0
 851 11 870 74 884 130 c 0
 890 152 891 153 903 153 c 0
 910 153 918 153 918 143 c 2x41
816 431 m 1
 859 607 l 1
 858 607 l 1
 853 597 836 584 816 584 c 0
 800 584 782 594 782 616 c 0x2080
 782 635 795 657 821 664 c 1
 796 683 751 683 744 683 c 0
 645 683 630 623 618 571 c 0
 613 555 613 553 589 431 c 1
 816 431 l 1
EndSplineSet
Ligature2: "'liga' Standard Ligatures lookup 8 subtable" f f l
EndChar

StartChar: f_i
Encoding: 64257 64257 125
Width: 562
Flags: MW
HStem: -205 22<54 72 54 99> -164 80 -11 22<472 501.5> 400 31<142 218 153 212 282 476> 574 80 683 22<395 465.5 395 469>
VStem: -25 84<-126 -121.5> 399 60<52.5 55.5 45 86> 511 85<599.5 667.5>
LayerCount: 2
Fore
SplineSet
586 143 m 2
 586 143 574 83 556 45 c 0
 541 14 520 -11 483 -11 c 0
 435 -11 399 26 399 79 c 0
 399 93 403 109 404 113 c 2
 476 400 l 1
 276 400 l 1
 216 86 l 2
 188 -59 144 -205 54 -205 c 0
 19 -205 -25 -186 -25 -139 c 0
 -25 -104 0 -84 25 -84 c 0
 41 -84 59 -94 59 -116 c 0
 59 -136 45 -160 15 -165 c 1
 28 -183 54 -183 54 -183 c 1
 90 -183 103 -130 110 -104 c 2
 143 43 l 1
 212 400 l 1
 150 400 l 2
 134 400 125 400 125 412 c 0
 125 431 136 431 153 431 c 2
 218 431 l 1
 236 525 l 2
 263 666 337 705 453 705 c 0
 478 705 596 705 596 630 c 0
 596 592 568 574 546 574 c 0
 520 574 511 593 511 606 c 1
 511 606 511 646 555 655 c 1
 530 680 483 683 455 683 c 0
 333 683 320 620 300 524 c 2
 282 431 l 1
 521 431 l 2
 538 431 545 431 545 420 c 2
 545 420 543 413 542 407 c 2
 466 103 l 2
 459 75 459 59 459 52 c 0
 459 38 459 11 485 11 c 0
 519 11 538 74 552 130 c 0
 558 152 559 153 571 153 c 0
 578 153 586 153 586 143 c 2
EndSplineSet
Ligature2: "'liga' Standard Ligatures in Latin lookup 12 subtable" f i
Ligature2: "'liga' Standard Ligatures in Latin lookup 11 subtable" f i
Ligature2: "'liga' Standard Ligatures lookup 9 subtable" f i
EndChar

StartChar: f_l
Encoding: 64258 64258 126
Width: 588
Flags: MW
HStem: -205 22<51.5 72 51.5 98.5> -164 80 -11 22<498 527.5> 400 31<142 218 153 212 283 502> 584 79 683 22<416 441>
VStem: -25 84<-126 -121.5> 425 60<52.5 55.5 45 86> 476 84<605 644>
LayerCount: 2
Fore
SplineSet
612 143 m 2x21
 612 143 600 83 582 45 c 0
 567 14 546 -11 509 -11 c 0
 461 -11 425 26 425 79 c 0x35
 425 93 429 109 430 113 c 2
 502 400 l 1
 277 400 l 1
 215 80 l 2
 188 -62 143 -205 54 -205 c 0
 20 -205 -25 -186 -25 -139 c 0
 -25 -104 0 -84 25 -84 c 0
 41 -84 59 -94 59 -116 c 0
 59 -136 45 -160 15 -165 c 1
 27 -182 49 -183 54 -183 c 0
 90 -183 103 -131 111 -100 c 2
 142 37 l 1
 212 400 l 1
 150 400 l 2
 134 400 125 400 125 412 c 0
 125 431 136 431 153 431 c 2
 218 431 l 1
 250 605 269 705 436 705 c 0
 463 705 495 702 520 691 c 0
 559 674 560 649 560 639 c 1xd680
 561 639 l 1
 570 674 l 2
 576 693 577 694 598 694 c 2
 613 694 l 2
 629 694 637 694 637 684 c 0
 637 681 636 677 634 671 c 2
 492 103 l 2
 485 75 485 59 485 52 c 0
 485 38 485 11 511 11 c 0
 545 11 564 74 578 130 c 0
 584 152 585 153 597 153 c 0
 604 153 612 153 612 143 c 2x21
510 431 m 1
 553 607 l 1
 552 607 l 1
 547 597 530 584 510 584 c 0
 494 584 476 594 476 616 c 0x1880
 476 635 489 657 515 664 c 1
 490 683 445 683 437 683 c 0
 395 683 343 669 325 618 c 0
 310 577 295 494 283 431 c 1
 510 431 l 1
EndSplineSet
Ligature2: "'liga' Standard Ligatures lookup 8 subtable" f l
EndChar

StartChar: Aacute
Encoding: 193 193 127
Width: 743
Flags: MW
HStem: 0 31<456.5 472.5 657 676> 229 31<307 516 307 518 290 516> 696 20G<542 558> 747 21G 886 20G<693.5 708.5>
VStem: 59 633<10.5 12>
LayerCount: 2
Fore
SplineSet
692 18 m 0
 692 0 680 0 674 0 c 0
 640 0 604 3 569 3 c 0
 531 3 491 0 454 0 c 0
 451 0 439 0 439 12 c 0
 439 31 451 31 462 31 c 0
 505 31 529 43 529 63 c 2
 518 229 l 1
 290 229 l 1
 218 103 l 2
 209 86 204 74 204 65 c 0
 204 34 240 32 246 31 c 0
 254 30 262 30 262 19 c 0
 262 0 249 0 244 0 c 0
 214 0 182 3 151 3 c 0
 125 3 96 0 71 0 c 0
 60 0 59 9 59 12 c 2
 59 12 60 30 71 31 c 0
 106 33 149 37 192 113 c 2
 524 698 l 2
 530 709 534 716 550 716 c 0
 566 716 567 713 568 691 c 2
 611 65 l 2
 613 39 616 31 668 31 c 0
 684 31 692 31 692 18 c 0
516 260 m 1
 493 587 l 1
 307 260 l 1
 516 260 l 1
727 873 m 0x18
 724 857 712 850 702 845 c 2
 522 752 l 2
 512 746 510 746 507 747 c 0
 500 748 493 758 494 766 c 0
 495 769 495 771 506 779 c 2
 671 895 l 2
 680 901 688 906 699 906 c 0
 718 906 730 892 727 873 c 0x18
EndSplineSet
Position2: "'cpsp' Capital Spacing lookup 0 subtable" dx=7 dy=0 dh=14 dv=0
EndChar

StartChar: aacute
Encoding: 225 225 128
Width: 511
Flags: MW
HStem: -11 22<197.5 237 411 440.5> 420 22<306.5 343 271.5 349> 505 21G<340.5 345.5> 676 20G<504 517>
VStem: 98 68<101.5 125 85 217>
LayerCount: 2
Fore
SplineSet
525 143 m 2
 525 143 513 83 495 45 c 0
 480 14 459 -11 422 -11 c 0
 387 -11 350 10 339 59 c 1
 299 10 255 -11 219 -11 c 0
 144 -11 98 59 98 144 c 0
 98 290 216 442 327 442 c 0
 359 442 391 426 410 383 c 1
 411 388 418 422 450 422 c 0
 460 422 477 417 477 396 c 0
 477 391 477 389 473 375 c 2
 405 103 l 2
 398 75 398 59 398 52 c 0
 398 38 398 11 424 11 c 0
 458 11 477 74 491 130 c 0
 497 152 498 153 510 153 c 0
 517 153 525 153 525 143 c 2
346 124 m 2
 393 313 l 2
 395 319 396 326 396 326 c 1
 396 368 371 420 327 420 c 0
 286 420 240 370 215 309 c 0
 197 267 166 150 166 100 c 0
 166 70 174 11 221 11 c 0
 276 11 338 92 346 124 c 2
539 668 m 0x30
 539 651 528 642 519 636 c 2
 358 513 l 2
 349 505 347 505 344 505 c 0
 337 505 328 514 328 522 c 0
 328 525 328 527 338 537 c 2
 480 679 l 2
 489 688 497 696 511 696 c 0
 523 696 539 686 539 668 c 0x30
EndSplineSet
EndChar

StartChar: Abreve
Encoding: 258 258 129
Width: 743
Flags: MW
HStem: 0 31<456.5 472.5 657 676> 229 31<307 516 307 518 290 516> 696 20G<542 558> 746 36<534.5 587.5 534.5 616> 896 20G<461.5 472 721 728>
VStem: 59 633<10.5 12>
LayerCount: 2
Fore
SplineSet
692 18 m 0
 692 0 680 0 674 0 c 0
 640 0 604 3 569 3 c 0
 531 3 491 0 454 0 c 0
 451 0 439 0 439 12 c 0
 439 31 451 31 462 31 c 0
 505 31 529 43 529 63 c 2
 518 229 l 1
 290 229 l 1
 218 103 l 2
 209 86 204 74 204 65 c 0
 204 34 240 32 246 31 c 0
 254 30 262 30 262 19 c 0
 262 0 249 0 244 0 c 0
 214 0 182 3 151 3 c 0
 125 3 96 0 71 0 c 0
 60 0 59 9 59 12 c 2
 59 12 60 30 71 31 c 0
 106 33 149 37 192 113 c 2
 524 698 l 2
 530 709 534 716 550 716 c 0
 566 716 567 713 568 691 c 2
 611 65 l 2
 613 39 616 31 668 31 c 0
 684 31 692 31 692 18 c 0
516 260 m 1
 493 587 l 1
 307 260 l 1
 516 260 l 1
736 906 m 0x18
 736 877 672 746 560 746 c 0
 489 746 453 803 453 864 c 0
 453 869 453 916 470 916 c 0
 474 916 481 914 481 905 c 2
 481 905 476 882 476 872 c 0
 476 825 505 782 564 782 c 0
 611 782 684 817 712 902 c 0
 715 911 717 916 725 916 c 0
 731 916 736 912 736 906 c 0x18
EndSplineSet
Position2: "'cpsp' Capital Spacing lookup 0 subtable" dx=7 dy=0 dh=14 dv=0
EndChar

StartChar: abreve
Encoding: 259 259 130
Width: 511
Flags: MW
HStem: -11 22<197.5 237 411 440.5> 420 22<306.5 343 271.5 349> 516 36<361.5 414.5 361.5 443> 666 20G<288.5 299 548 555>
VStem: 98 68<101.5 125 85 217>
LayerCount: 2
Fore
SplineSet
525 143 m 2
 525 143 513 83 495 45 c 0
 480 14 459 -11 422 -11 c 0
 387 -11 350 10 339 59 c 1
 299 10 255 -11 219 -11 c 0
 144 -11 98 59 98 144 c 0
 98 290 216 442 327 442 c 0
 359 442 391 426 410 383 c 1
 411 388 418 422 450 422 c 0
 460 422 477 417 477 396 c 0
 477 391 477 389 473 375 c 2
 405 103 l 2
 398 75 398 59 398 52 c 0
 398 38 398 11 424 11 c 0
 458 11 477 74 491 130 c 0
 497 152 498 153 510 153 c 0
 517 153 525 153 525 143 c 2
346 124 m 2
 393 313 l 2
 395 319 396 326 396 326 c 1
 396 368 371 420 327 420 c 0
 286 420 240 370 215 309 c 0
 197 267 166 150 166 100 c 0
 166 70 174 11 221 11 c 0
 276 11 338 92 346 124 c 2
563 676 m 0x30
 563 647 499 516 387 516 c 0
 316 516 280 573 280 634 c 0
 280 639 280 686 297 686 c 0
 301 686 308 684 308 675 c 2
 308 675 303 652 303 642 c 0
 303 595 332 552 391 552 c 0
 438 552 511 587 539 672 c 0
 542 681 544 686 552 686 c 0
 558 686 563 682 563 676 c 0x30
EndSplineSet
EndChar

StartChar: Abreveacute
Encoding: 7854 7854 131
Width: 743
Flags: MW
HStem: 0 31<456.5 472.5 657 676> 229 31<307 516 307 518 290 516> 696 20G<542 558> 746 36<534.5 587.5 534.5 616> 1075 20G<706.5 721.5>
VStem: 59 633<10.5 12>
LayerCount: 2
Fore
SplineSet
692 18 m 0
 692 0 680 0 674 0 c 0
 640 0 604 3 569 3 c 0
 531 3 491 0 454 0 c 0
 451 0 439 0 439 12 c 0
 439 31 451 31 462 31 c 0
 505 31 529 43 529 63 c 2
 518 229 l 1
 290 229 l 1
 218 103 l 2
 209 86 204 74 204 65 c 0
 204 34 240 32 246 31 c 0
 254 30 262 30 262 19 c 0
 262 0 249 0 244 0 c 0
 214 0 182 3 151 3 c 0
 125 3 96 0 71 0 c 0
 60 0 59 9 59 12 c 2
 59 12 60 30 71 31 c 0
 106 33 149 37 192 113 c 2
 524 698 l 2
 530 709 534 716 550 716 c 0
 566 716 567 713 568 691 c 2
 611 65 l 2
 613 39 616 31 668 31 c 0
 684 31 692 31 692 18 c 0
516 260 m 1
 493 587 l 1
 307 260 l 1
 516 260 l 1
736 906 m 0x18
 736 877 672 746 560 746 c 0
 489 746 453 803 453 864 c 0
 453 869 453 916 470 916 c 0
 474 916 481 914 481 905 c 2
 481 905 476 882 476 872 c 0
 476 825 505 782 564 782 c 0
 611 782 684 817 712 902 c 0
 715 911 717 916 725 916 c 0
 731 916 736 912 736 906 c 0x18
740 1062 m 0
 737 1046 725 1039 715 1034 c 2
 535 941 l 2
 525 935 523 935 520 936 c 0
 513 937 506 947 507 955 c 0
 508 958 508 960 519 968 c 2
 684 1084 l 2
 693 1090 701 1095 712 1095 c 0
 731 1095 743 1081 740 1062 c 0
EndSplineSet
Position2: "'cpsp' Capital Spacing lookup 0 subtable" dx=7 dy=0 dh=14 dv=0
EndChar

StartChar: abreveacute
Encoding: 7855 7855 132
Width: 511
Flags: MW
HStem: -11 22<197.5 237 411 440.5> 420 22<306.5 343 271.5 349> 516 36<361.5 414.5 361.5 443> 845 20G<533.5 548.5>
VStem: 98 68<101.5 125 85 217>
LayerCount: 2
Fore
SplineSet
525 143 m 2
 525 143 513 83 495 45 c 0
 480 14 459 -11 422 -11 c 0
 387 -11 350 10 339 59 c 1
 299 10 255 -11 219 -11 c 0
 144 -11 98 59 98 144 c 0
 98 290 216 442 327 442 c 0
 359 442 391 426 410 383 c 1
 411 388 418 422 450 422 c 0
 460 422 477 417 477 396 c 0
 477 391 477 389 473 375 c 2
 405 103 l 2
 398 75 398 59 398 52 c 0
 398 38 398 11 424 11 c 0
 458 11 477 74 491 130 c 0
 497 152 498 153 510 153 c 0
 517 153 525 153 525 143 c 2
346 124 m 2
 393 313 l 2
 395 319 396 326 396 326 c 1
 396 368 371 420 327 420 c 0
 286 420 240 370 215 309 c 0
 197 267 166 150 166 100 c 0
 166 70 174 11 221 11 c 0
 276 11 338 92 346 124 c 2
563 676 m 0x30
 563 647 499 516 387 516 c 0
 316 516 280 573 280 634 c 0
 280 639 280 686 297 686 c 0
 301 686 308 684 308 675 c 2
 308 675 303 652 303 642 c 0
 303 595 332 552 391 552 c 0
 438 552 511 587 539 672 c 0
 542 681 544 686 552 686 c 0
 558 686 563 682 563 676 c 0x30
567 832 m 0
 564 816 552 809 542 804 c 2
 362 711 l 2
 352 705 350 705 347 706 c 0
 340 707 333 717 334 725 c 0
 335 728 335 730 346 738 c 2
 511 854 l 2
 520 860 528 865 539 865 c 0
 558 865 570 851 567 832 c 0
EndSplineSet
EndChar

StartChar: Abrevedotbelow
Encoding: 7862 7862 133
Width: 743
Flags: MW
HStem: -200 106<328 341> 0 31<456.5 472.5 657 676> 229 31<307 516 307 518 290 516> 696 20G<542 558> 746 36<534.5 587.5 534.5 616> 896 20G<461.5 472 721 728>
VStem: 59 633<10.5 12>
LayerCount: 2
Fore
SplineSet
692 18 m 0
 692 0 680 0 674 0 c 0
 640 0 604 3 569 3 c 0
 531 3 491 0 454 0 c 0
 451 0 439 0 439 12 c 0
 439 31 451 31 462 31 c 0
 505 31 529 43 529 63 c 2
 518 229 l 1
 290 229 l 1
 218 103 l 2
 209 86 204 74 204 65 c 0
 204 34 240 32 246 31 c 0
 254 30 262 30 262 19 c 0
 262 0 249 0 244 0 c 0
 214 0 182 3 151 3 c 0
 125 3 96 0 71 0 c 0
 60 0 59 9 59 12 c 2
 59 12 60 30 71 31 c 0
 106 33 149 37 192 113 c 2
 524 698 l 2
 530 709 534 716 550 716 c 0
 566 716 567 713 568 691 c 2
 611 65 l 2
 613 39 616 31 668 31 c 0
 684 31 692 31 692 18 c 0
516 260 m 1
 493 587 l 1
 307 260 l 1
 516 260 l 1
736 906 m 0
 736 877 672 746 560 746 c 0
 489 746 453 803 453 864 c 0
 453 869 453 916 470 916 c 0
 474 916 481 914 481 905 c 2
 481 905 476 882 476 872 c 0
 476 825 505 782 564 782 c 0
 611 782 684 817 712 902 c 0
 715 911 717 916 725 916 c 0
 731 916 736 912 736 906 c 0
389 -137 m 0x80
 389 -169 357 -200 325 -200 c 0
 296 -200 280 -179 280 -157 c 0
 280 -125 312 -94 344 -94 c 0
 374 -94 389 -116 389 -137 c 0x80
EndSplineSet
Position2: "'cpsp' Capital Spacing lookup 0 subtable" dx=7 dy=0 dh=14 dv=0
EndChar

StartChar: abrevedotbelow
Encoding: 7863 7863 134
Width: 511
Flags: MW
HStem: -200 106<212 225> -11 22<197.5 237 411 440.5> 420 22<306.5 343 271.5 349> 516 36<361.5 414.5 361.5 443> 666 20G<288.5 299 548 555>
VStem: 98 68<101.5 125 85 217>
LayerCount: 2
Fore
SplineSet
525 143 m 2
 525 143 513 83 495 45 c 0
 480 14 459 -11 422 -11 c 0
 387 -11 350 10 339 59 c 1
 299 10 255 -11 219 -11 c 0
 144 -11 98 59 98 144 c 0
 98 290 216 442 327 442 c 0
 359 442 391 426 410 383 c 1
 411 388 418 422 450 422 c 0
 460 422 477 417 477 396 c 0
 477 391 477 389 473 375 c 2
 405 103 l 2
 398 75 398 59 398 52 c 0
 398 38 398 11 424 11 c 0
 458 11 477 74 491 130 c 0
 497 152 498 153 510 153 c 0
 517 153 525 153 525 143 c 2
346 124 m 2
 393 313 l 2
 395 319 396 326 396 326 c 1
 396 368 371 420 327 420 c 0
 286 420 240 370 215 309 c 0
 197 267 166 150 166 100 c 0
 166 70 174 11 221 11 c 0
 276 11 338 92 346 124 c 2
563 676 m 0
 563 647 499 516 387 516 c 0
 316 516 280 573 280 634 c 0
 280 639 280 686 297 686 c 0
 301 686 308 684 308 675 c 2
 308 675 303 652 303 642 c 0
 303 595 332 552 391 552 c 0
 438 552 511 587 539 672 c 0
 542 681 544 686 552 686 c 0
 558 686 563 682 563 676 c 0
273 -137 m 0x80
 273 -169 241 -200 209 -200 c 0
 180 -200 164 -179 164 -157 c 0
 164 -125 196 -94 228 -94 c 0
 258 -94 273 -116 273 -137 c 0x80
EndSplineSet
EndChar

StartChar: Abrevegrave
Encoding: 7856 7856 135
Width: 743
Flags: MW
HStem: 0 31<456.5 472.5 657 676> 229 31<307 516 307 518 290 516> 696 20G<542 558> 746 36<534.5 587.5 534.5 616> 896 20G<461.5 472 721 728>
VStem: 59 633<10.5 12>
LayerCount: 2
Fore
SplineSet
692 18 m 0
 692 0 680 0 674 0 c 0
 640 0 604 3 569 3 c 0
 531 3 491 0 454 0 c 0
 451 0 439 0 439 12 c 0
 439 31 451 31 462 31 c 0
 505 31 529 43 529 63 c 2
 518 229 l 1
 290 229 l 1
 218 103 l 2
 209 86 204 74 204 65 c 0
 204 34 240 32 246 31 c 0
 254 30 262 30 262 19 c 0
 262 0 249 0 244 0 c 0
 214 0 182 3 151 3 c 0
 125 3 96 0 71 0 c 0
 60 0 59 9 59 12 c 2
 59 12 60 30 71 31 c 0
 106 33 149 37 192 113 c 2
 524 698 l 2
 530 709 534 716 550 716 c 0
 566 716 567 713 568 691 c 2
 611 65 l 2
 613 39 616 31 668 31 c 0
 684 31 692 31 692 18 c 0
516 260 m 1
 493 587 l 1
 307 260 l 1
 516 260 l 1
736 906 m 0x18
 736 877 672 746 560 746 c 0
 489 746 453 803 453 864 c 0
 453 869 453 916 470 916 c 0
 474 916 481 914 481 905 c 2
 481 905 476 882 476 872 c 0
 476 825 505 782 564 782 c 0
 611 782 684 817 712 902 c 0
 715 911 717 916 725 916 c 0
 731 916 736 912 736 906 c 0x18
714 955 m 0
 714 958 715 960 708 968 c 2
 601 1084 l 2
 595 1090 589 1095 579 1095 c 0
 560 1095 540 1081 534 1062 c 0
 529 1046 538 1039 545 1034 c 2
 679 941 l 2
 686 935 688 935 691 936 c 0
 699 937 711 947 714 955 c 0
EndSplineSet
Position2: "'cpsp' Capital Spacing lookup 0 subtable" dx=7 dy=0 dh=14 dv=0
EndChar

StartChar: abrevegrave
Encoding: 7857 7857 136
Width: 511
Flags: MW
HStem: -11 22<197.5 237 411 440.5> 420 22<306.5 343 271.5 349> 516 36<361.5 414.5 361.5 443> 666 20G<288.5 299 548 555>
VStem: 98 68<101.5 125 85 217>
LayerCount: 2
Fore
SplineSet
525 143 m 2
 525 143 513 83 495 45 c 0
 480 14 459 -11 422 -11 c 0
 387 -11 350 10 339 59 c 1
 299 10 255 -11 219 -11 c 0
 144 -11 98 59 98 144 c 0
 98 290 216 442 327 442 c 0
 359 442 391 426 410 383 c 1
 411 388 418 422 450 422 c 0
 460 422 477 417 477 396 c 0
 477 391 477 389 473 375 c 2
 405 103 l 2
 398 75 398 59 398 52 c 0
 398 38 398 11 424 11 c 0
 458 11 477 74 491 130 c 0
 497 152 498 153 510 153 c 0
 517 153 525 153 525 143 c 2
346 124 m 2
 393 313 l 2
 395 319 396 326 396 326 c 1
 396 368 371 420 327 420 c 0
 286 420 240 370 215 309 c 0
 197 267 166 150 166 100 c 0
 166 70 174 11 221 11 c 0
 276 11 338 92 346 124 c 2
563 676 m 0x30
 563 647 499 516 387 516 c 0
 316 516 280 573 280 634 c 0
 280 639 280 686 297 686 c 0
 301 686 308 684 308 675 c 2
 308 675 303 652 303 642 c 0
 303 595 332 552 391 552 c 0
 438 552 511 587 539 672 c 0
 542 681 544 686 552 686 c 0
 558 686 563 682 563 676 c 0x30
541 725 m 0
 541 728 542 730 535 738 c 2
 428 854 l 2
 422 860 416 865 406 865 c 0
 387 865 367 851 361 832 c 0
 356 816 365 809 372 804 c 2
 506 711 l 2
 513 705 515 705 518 706 c 0
 526 707 538 717 541 725 c 0
EndSplineSet
EndChar

StartChar: Abrevehookabove
Encoding: 7858 7858 137
Width: 743
Flags: MW
HStem: 0 31<456.5 472.5 657 676> 229 31<307 516 307 518 290 516> 696 20G<542 558> 746 36<534.5 587.5 534.5 616> 1105 20G<632 651>
VStem: 59 633<10.5 12>
LayerCount: 2
Fore
SplineSet
692 18 m 0
 692 0 680 0 674 0 c 0
 640 0 604 3 569 3 c 0
 531 3 491 0 454 0 c 0
 451 0 439 0 439 12 c 0
 439 31 451 31 462 31 c 0
 505 31 529 43 529 63 c 2
 518 229 l 1
 290 229 l 1
 218 103 l 2
 209 86 204 74 204 65 c 0
 204 34 240 32 246 31 c 0
 254 30 262 30 262 19 c 0
 262 0 249 0 244 0 c 0
 214 0 182 3 151 3 c 0
 125 3 96 0 71 0 c 0
 60 0 59 9 59 12 c 2
 59 12 60 30 71 31 c 0
 106 33 149 37 192 113 c 2
 524 698 l 2
 530 709 534 716 550 716 c 0
 566 716 567 713 568 691 c 2
 611 65 l 2
 613 39 616 31 668 31 c 0
 684 31 692 31 692 18 c 0
516 260 m 1
 493 587 l 1
 307 260 l 1
 516 260 l 1
736 906 m 0x18
 736 877 672 746 560 746 c 0
 489 746 453 803 453 864 c 0
 453 869 453 916 470 916 c 0
 474 916 481 914 481 905 c 2
 481 905 476 882 476 872 c 0
 476 825 505 782 564 782 c 0
 611 782 684 817 712 902 c 0
 715 911 717 916 725 916 c 0
 731 916 736 912 736 906 c 0x18
725 1056 m 0
 721 1038 706 1023 688 1015 c 0
 647 995 618 971 610 942 c 2
 606 923 l 2
 605 919 601 916 596 916 c 2
 594 916 l 2
 589 917 586 921 586 926 c 2
 587 928 l 1
 591 947 l 2
 600 979 624 1009 656 1031 c 0
 665 1038 672 1049 675 1061 c 0
 678 1072 679 1078 679 1084 c 0
 679 1089 678 1092 676 1095 c 0
 671 1102 659 1105 643 1105 c 0
 621 1105 599 1097 584 1084 c 1
 592 1081 599 1074 599 1063 c 2
 599 1063 599 1058 598 1056 c 0
 594 1041 581 1032 568 1032 c 0
 556 1032 546 1040 546 1054 c 2
 546 1061 l 1
 549 1067 l 1
 561 1102 603 1125 644 1125 c 0
 670 1125 693 1121 709 1108 c 0
 721 1099 727 1086 727 1071 c 0
 727 1066 726 1061 725 1056 c 0
EndSplineSet
Position2: "'cpsp' Capital Spacing lookup 0 subtable" dx=7 dy=0 dh=14 dv=0
EndChar

StartChar: abrevehookabove
Encoding: 7859 7859 138
Width: 511
Flags: MW
HStem: -11 22<197.5 237 411 440.5> 420 22<306.5 343 271.5 349> 516 36<361.5 414.5 361.5 443> 875 20G<459 478>
VStem: 98 68<101.5 125 85 217>
LayerCount: 2
Fore
SplineSet
525 143 m 2
 525 143 513 83 495 45 c 0
 480 14 459 -11 422 -11 c 0
 387 -11 350 10 339 59 c 1
 299 10 255 -11 219 -11 c 0
 144 -11 98 59 98 144 c 0
 98 290 216 442 327 442 c 0
 359 442 391 426 410 383 c 1
 411 388 418 422 450 422 c 0
 460 422 477 417 477 396 c 0
 477 391 477 389 473 375 c 2
 405 103 l 2
 398 75 398 59 398 52 c 0
 398 38 398 11 424 11 c 0
 458 11 477 74 491 130 c 0
 497 152 498 153 510 153 c 0
 517 153 525 153 525 143 c 2
346 124 m 2
 393 313 l 2
 395 319 396 326 396 326 c 1
 396 368 371 420 327 420 c 0
 286 420 240 370 215 309 c 0
 197 267 166 150 166 100 c 0
 166 70 174 11 221 11 c 0
 276 11 338 92 346 124 c 2
563 676 m 0x30
 563 647 499 516 387 516 c 0
 316 516 280 573 280 634 c 0
 280 639 280 686 297 686 c 0
 301 686 308 684 308 675 c 2
 308 675 303 652 303 642 c 0
 303 595 332 552 391 552 c 0
 438 552 511 587 539 672 c 0
 542 681 544 686 552 686 c 0
 558 686 563 682 563 676 c 0x30
552 826 m 0
 548 808 533 793 515 785 c 0
 474 765 445 741 437 712 c 2
 433 693 l 2
 432 689 428 686 423 686 c 2
 421 686 l 2
 416 687 413 691 413 696 c 2
 414 698 l 1
 418 717 l 2
 427 749 451 779 483 801 c 0
 492 808 499 819 502 831 c 0
 505 842 506 848 506 854 c 0
 506 859 505 862 503 865 c 0
 498 872 486 875 470 875 c 0
 448 875 426 867 411 854 c 1
 419 851 426 844 426 833 c 2
 426 833 426 828 425 826 c 0
 421 811 408 802 395 802 c 0
 383 802 373 810 373 824 c 2
 373 831 l 1
 376 837 l 1
 388 872 430 895 471 895 c 0
 497 895 520 891 536 878 c 0
 548 869 554 856 554 841 c 0
 554 836 553 831 552 826 c 0
EndSplineSet
EndChar

StartChar: Abrevetilde
Encoding: 7860 7860 139
Width: 743
Flags: MW
HStem: 0 31<456.5 472.5 657 676> 229 31<307 516 307 518 290 516> 696 20G<542 558> 746 36<534.5 587.5 534.5 616> 956 35<665 680> 956 100<643.5 777> 957 100 1022 35<576 581.5>
VStem: 59 633<10.5 12>
LayerCount: 2
Fore
SplineSet
692 18 m 0xe080
 692 0 680 0 674 0 c 0
 640 0 604 3 569 3 c 0
 531 3 491 0 454 0 c 0
 451 0 439 0 439 12 c 0
 439 31 451 31 462 31 c 0
 505 31 529 43 529 63 c 2
 518 229 l 1
 290 229 l 1
 218 103 l 2
 209 86 204 74 204 65 c 0
 204 34 240 32 246 31 c 0
 254 30 262 30 262 19 c 0
 262 0 249 0 244 0 c 0
 214 0 182 3 151 3 c 0
 125 3 96 0 71 0 c 0
 60 0 59 9 59 12 c 2
 59 12 60 30 71 31 c 0
 106 33 149 37 192 113 c 2
 524 698 l 2
 530 709 534 716 550 716 c 0
 566 716 567 713 568 691 c 2
 611 65 l 2
 613 39 616 31 668 31 c 0
 684 31 692 31 692 18 c 0xe080
516 260 m 1
 493 587 l 1
 307 260 l 1
 516 260 l 1
736 906 m 0x14
 736 877 672 746 560 746 c 0
 489 746 453 803 453 864 c 0
 453 869 453 916 470 916 c 0
 474 916 481 914 481 905 c 2
 481 905 476 882 476 872 c 0
 476 825 505 782 564 782 c 0
 611 782 684 817 712 902 c 0
 715 911 717 916 725 916 c 0
 731 916 736 912 736 906 c 0x14
785 1046 m 0
 785 1037 703 956 657 956 c 0
 630 956 617 977 606 995 c 0
 597 1010 589 1022 574 1022 c 0x09
 544 1022 485 964 485 964 c 2
 480 960 477 957 472 957 c 0x02
 465 957 461 961 461 967 c 0
 461 978 514 1021 514 1021 c 2
 535 1037 564 1057 588 1057 c 0
 615 1057 627 1039 642 1014 c 0
 651 999 659 991 671 991 c 0x09
 701 991 758 1045 761 1049 c 0
 766 1054 769 1056 774 1056 c 0
 780 1056 785 1052 785 1046 c 0
EndSplineSet
Position2: "'cpsp' Capital Spacing lookup 0 subtable" dx=7 dy=0 dh=14 dv=0
EndChar

StartChar: abrevetilde
Encoding: 7861 7861 140
Width: 511
Flags: MW
HStem: -11 22<197.5 237 411 440.5> 420 22<306.5 343 271.5 349> 516 36<361.5 414.5 361.5 443> 726 35<492 507> 726 100<470.5 604> 727 100 792 35<403 408.5>
VStem: 98 68<101.5 125 85 217>
LayerCount: 2
Fore
SplineSet
525 143 m 2xc1
 525 143 513 83 495 45 c 0
 480 14 459 -11 422 -11 c 0
 387 -11 350 10 339 59 c 1
 299 10 255 -11 219 -11 c 0
 144 -11 98 59 98 144 c 0
 98 290 216 442 327 442 c 0
 359 442 391 426 410 383 c 1
 411 388 418 422 450 422 c 0
 460 422 477 417 477 396 c 0
 477 391 477 389 473 375 c 2
 405 103 l 2
 398 75 398 59 398 52 c 0
 398 38 398 11 424 11 c 0
 458 11 477 74 491 130 c 0
 497 152 498 153 510 153 c 0
 517 153 525 153 525 143 c 2xc1
346 124 m 2
 393 313 l 2
 395 319 396 326 396 326 c 1
 396 368 371 420 327 420 c 0
 286 420 240 370 215 309 c 0
 197 267 166 150 166 100 c 0
 166 70 174 11 221 11 c 0
 276 11 338 92 346 124 c 2
563 676 m 0x28
 563 647 499 516 387 516 c 0
 316 516 280 573 280 634 c 0
 280 639 280 686 297 686 c 0
 301 686 308 684 308 675 c 2
 308 675 303 652 303 642 c 0
 303 595 332 552 391 552 c 0
 438 552 511 587 539 672 c 0
 542 681 544 686 552 686 c 0
 558 686 563 682 563 676 c 0x28
612 816 m 0
 612 807 530 726 484 726 c 0
 457 726 444 747 433 765 c 0
 424 780 416 792 401 792 c 0x12
 371 792 312 734 312 734 c 2
 307 730 304 727 299 727 c 0x04
 292 727 288 731 288 737 c 0
 288 748 341 791 341 791 c 2
 362 807 391 827 415 827 c 0
 442 827 454 809 469 784 c 0
 478 769 486 761 498 761 c 0x12
 528 761 585 815 588 819 c 0
 593 824 596 826 601 826 c 0
 607 826 612 822 612 816 c 0
EndSplineSet
EndChar

StartChar: Acaron
Encoding: 461 461 141
Width: 743
Flags: MW
HStem: 0 31<456.5 472.5 657 676> 229 31<307 516 307 518 290 516> 696 20G<542 558>
VStem: 59 633<10.5 12>
LayerCount: 2
Fore
SplineSet
692 18 m 0
 692 0 680 0 674 0 c 0
 640 0 604 3 569 3 c 0
 531 3 491 0 454 0 c 0
 451 0 439 0 439 12 c 0
 439 31 451 31 462 31 c 0
 505 31 529 43 529 63 c 2
 518 229 l 1
 290 229 l 1
 218 103 l 2
 209 86 204 74 204 65 c 0
 204 34 240 32 246 31 c 0
 254 30 262 30 262 19 c 0
 262 0 249 0 244 0 c 0
 214 0 182 3 151 3 c 0
 125 3 96 0 71 0 c 0
 60 0 59 9 59 12 c 2
 59 12 60 30 71 31 c 0
 106 33 149 37 192 113 c 2
 524 698 l 2
 530 709 534 716 550 716 c 0
 566 716 567 713 568 691 c 2
 611 65 l 2
 613 39 616 31 668 31 c 0
 684 31 692 31 692 18 c 0
516 260 m 1
 493 587 l 1
 307 260 l 1
 516 260 l 1
716 836 m 2
 561 738 l 2
 557 736 552 736 549 738 c 2
 443 836 l 2
 435 843 448 859 458 854 c 2
 570 799 l 1
 710 854 l 2
 723 859 728 843 716 836 c 2
EndSplineSet
EndChar

StartChar: acaron
Encoding: 462 462 142
Width: 511
Flags: MW
HStem: -11 22<197.5 237 411 440.5> 420 22<306.5 343 271.5 349>
VStem: 98 68<101.5 125 85 217>
LayerCount: 2
Fore
SplineSet
525 143 m 2
 525 143 513 83 495 45 c 0
 480 14 459 -11 422 -11 c 0
 387 -11 350 10 339 59 c 1
 299 10 255 -11 219 -11 c 0
 144 -11 98 59 98 144 c 0
 98 290 216 442 327 442 c 0
 359 442 391 426 410 383 c 1
 411 388 418 422 450 422 c 0
 460 422 477 417 477 396 c 0
 477 391 477 389 473 375 c 2
 405 103 l 2
 398 75 398 59 398 52 c 0
 398 38 398 11 424 11 c 0
 458 11 477 74 491 130 c 0
 497 152 498 153 510 153 c 0
 517 153 525 153 525 143 c 2
346 124 m 2
 393 313 l 2
 395 319 396 326 396 326 c 1
 396 368 371 420 327 420 c 0
 286 420 240 370 215 309 c 0
 197 267 166 150 166 100 c 0
 166 70 174 11 221 11 c 0
 276 11 338 92 346 124 c 2
560 665 m 2
 394 521 l 2
 389 517 382 517 379 521 c 2
 285 665 l 2
 278 675 295 689 303 681 c 2
 402 582 l 1
 549 681 l 2
 561 689 571 675 560 665 c 2
EndSplineSet
EndChar

StartChar: Acircumflex
Encoding: 194 194 143
Width: 743
Flags: MW
HStem: 0 31<456.5 472.5 657 676> 229 31<307 516 307 518 290 516> 696 20G<542 558>
VStem: 59 633<10.5 12>
LayerCount: 2
Fore
SplineSet
692 18 m 0
 692 0 680 0 674 0 c 0
 640 0 604 3 569 3 c 0
 531 3 491 0 454 0 c 0
 451 0 439 0 439 12 c 0
 439 31 451 31 462 31 c 0
 505 31 529 43 529 63 c 2
 518 229 l 1
 290 229 l 1
 218 103 l 2
 209 86 204 74 204 65 c 0
 204 34 240 32 246 31 c 0
 254 30 262 30 262 19 c 0
 262 0 249 0 244 0 c 0
 214 0 182 3 151 3 c 0
 125 3 96 0 71 0 c 0
 60 0 59 9 59 12 c 2
 59 12 60 30 71 31 c 0
 106 33 149 37 192 113 c 2
 524 698 l 2
 530 709 534 716 550 716 c 0
 566 716 567 713 568 691 c 2
 611 65 l 2
 613 39 616 31 668 31 c 0
 684 31 692 31 692 18 c 0
516 260 m 1
 493 587 l 1
 307 260 l 1
 516 260 l 1
696 755 m 2
 704 748 691 732 681 737 c 2
 569 792 l 1
 429 737 l 2
 416 732 411 748 423 755 c 2
 578 853 l 2
 582 855 587 855 590 853 c 2
 696 755 l 2
EndSplineSet
Position2: "'cpsp' Capital Spacing lookup 0 subtable" dx=7 dy=0 dh=14 dv=0
EndChar

StartChar: acircumflex
Encoding: 226 226 144
Width: 511
Flags: MW
HStem: -11 22<197.5 237 411 440.5> 420 22<306.5 343 271.5 349>
VStem: 98 68<101.5 125 85 217>
LayerCount: 2
Fore
SplineSet
525 143 m 2
 525 143 513 83 495 45 c 0
 480 14 459 -11 422 -11 c 0
 387 -11 350 10 339 59 c 1
 299 10 255 -11 219 -11 c 0
 144 -11 98 59 98 144 c 0
 98 290 216 442 327 442 c 0
 359 442 391 426 410 383 c 1
 411 388 418 422 450 422 c 0
 460 422 477 417 477 396 c 0
 477 391 477 389 473 375 c 2
 405 103 l 2
 398 75 398 59 398 52 c 0
 398 38 398 11 424 11 c 0
 458 11 477 74 491 130 c 0
 497 152 498 153 510 153 c 0
 517 153 525 153 525 143 c 2
346 124 m 2
 393 313 l 2
 395 319 396 326 396 326 c 1
 396 368 371 420 327 420 c 0
 286 420 240 370 215 309 c 0
 197 267 166 150 166 100 c 0
 166 70 174 11 221 11 c 0
 276 11 338 92 346 124 c 2
527 536 m 2
 534 526 517 512 509 520 c 2
 411 619 l 1
 263 520 l 2
 251 512 241 526 252 536 c 2
 418 680 l 2
 423 684 430 684 433 680 c 2
 527 536 l 2
EndSplineSet
EndChar

StartChar: Acircumflexacute
Encoding: 7844 7844 145
Width: 743
Flags: MW
HStem: 0 31<456.5 472.5 657 676> 229 31<307 516 307 518 290 516> 696 20G<542 558> 1014 20G<690.5 705.5>
VStem: 59 633<10.5 12>
LayerCount: 2
Fore
SplineSet
692 18 m 0
 692 0 680 0 674 0 c 0
 640 0 604 3 569 3 c 0
 531 3 491 0 454 0 c 0
 451 0 439 0 439 12 c 0
 439 31 451 31 462 31 c 0
 505 31 529 43 529 63 c 2
 518 229 l 1
 290 229 l 1
 218 103 l 2
 209 86 204 74 204 65 c 0
 204 34 240 32 246 31 c 0
 254 30 262 30 262 19 c 0
 262 0 249 0 244 0 c 0
 214 0 182 3 151 3 c 0
 125 3 96 0 71 0 c 0
 60 0 59 9 59 12 c 2
 59 12 60 30 71 31 c 0
 106 33 149 37 192 113 c 2
 524 698 l 2
 530 709 534 716 550 716 c 0
 566 716 567 713 568 691 c 2
 611 65 l 2
 613 39 616 31 668 31 c 0
 684 31 692 31 692 18 c 0
516 260 m 1
 493 587 l 1
 307 260 l 1
 516 260 l 1
696 755 m 2x10
 704 748 691 732 681 737 c 2
 569 792 l 1
 429 737 l 2
 416 732 411 748 423 755 c 2
 578 853 l 2
 582 855 587 855 590 853 c 2
 696 755 l 2x10
724 1001 m 0
 721 985 709 978 699 973 c 2
 519 880 l 2
 509 874 507 874 504 875 c 0
 497 876 490 886 491 894 c 0
 492 897 492 899 503 907 c 2
 668 1023 l 2
 677 1029 685 1034 696 1034 c 0
 715 1034 727 1020 724 1001 c 0
EndSplineSet
Position2: "'cpsp' Capital Spacing lookup 0 subtable" dx=7 dy=0 dh=14 dv=0
EndChar

StartChar: acircumflexacute
Encoding: 7845 7845 146
Width: 511
Flags: MW
HStem: -11 22<197.5 237 411 440.5> 420 22<306.5 343 271.5 349> 796 20G<520.5 535.5>
VStem: 98 68<101.5 125 85 217>
LayerCount: 2
Fore
SplineSet
525 143 m 2
 525 143 513 83 495 45 c 0
 480 14 459 -11 422 -11 c 0
 387 -11 350 10 339 59 c 1
 299 10 255 -11 219 -11 c 0
 144 -11 98 59 98 144 c 0
 98 290 216 442 327 442 c 0
 359 442 391 426 410 383 c 1
 411 388 418 422 450 422 c 0
 460 422 477 417 477 396 c 0
 477 391 477 389 473 375 c 2
 405 103 l 2
 398 75 398 59 398 52 c 0
 398 38 398 11 424 11 c 0
 458 11 477 74 491 130 c 0
 497 152 498 153 510 153 c 0
 517 153 525 153 525 143 c 2
346 124 m 2
 393 313 l 2
 395 319 396 326 396 326 c 1
 396 368 371 420 327 420 c 0
 286 420 240 370 215 309 c 0
 197 267 166 150 166 100 c 0
 166 70 174 11 221 11 c 0
 276 11 338 92 346 124 c 2
526 537 m 2x20
 534 530 521 514 511 519 c 2
 399 574 l 1
 259 519 l 2
 246 514 241 530 253 537 c 2
 408 635 l 2
 412 637 417 637 420 635 c 2
 526 537 l 2x20
554 783 m 0
 551 767 539 760 529 755 c 2
 349 662 l 2
 339 656 337 656 334 657 c 0
 327 658 320 668 321 676 c 0
 322 679 322 681 333 689 c 2
 498 805 l 2
 507 811 515 816 526 816 c 0
 545 816 557 802 554 783 c 0
EndSplineSet
EndChar

StartChar: Acircumflexdotbelow
Encoding: 7852 7852 147
Width: 743
Flags: MW
HStem: -200 106<328 341> 0 31<456.5 472.5 657 676> 229 31<307 516 307 518 290 516> 696 20G<542 558>
VStem: 59 633<10.5 12>
LayerCount: 2
Fore
SplineSet
692 18 m 0
 692 0 680 0 674 0 c 0
 640 0 604 3 569 3 c 0
 531 3 491 0 454 0 c 0
 451 0 439 0 439 12 c 0
 439 31 451 31 462 31 c 0
 505 31 529 43 529 63 c 2
 518 229 l 1
 290 229 l 1
 218 103 l 2
 209 86 204 74 204 65 c 0
 204 34 240 32 246 31 c 0
 254 30 262 30 262 19 c 0
 262 0 249 0 244 0 c 0
 214 0 182 3 151 3 c 0
 125 3 96 0 71 0 c 0
 60 0 59 9 59 12 c 2
 59 12 60 30 71 31 c 0
 106 33 149 37 192 113 c 2
 524 698 l 2
 530 709 534 716 550 716 c 0
 566 716 567 713 568 691 c 2
 611 65 l 2
 613 39 616 31 668 31 c 0
 684 31 692 31 692 18 c 0
516 260 m 1
 493 587 l 1
 307 260 l 1
 516 260 l 1
696 755 m 2
 704 748 691 732 681 737 c 2
 569 792 l 1
 429 737 l 2
 416 732 411 748 423 755 c 2
 578 853 l 2
 582 855 587 855 590 853 c 2
 696 755 l 2
389 -137 m 0x80
 389 -169 357 -200 325 -200 c 0
 296 -200 280 -179 280 -157 c 0
 280 -125 312 -94 344 -94 c 0
 374 -94 389 -116 389 -137 c 0x80
EndSplineSet
Position2: "'cpsp' Capital Spacing lookup 0 subtable" dx=7 dy=0 dh=14 dv=0
EndChar

StartChar: acircumflexdotbelow
Encoding: 7853 7853 148
Width: 511
Flags: MW
HStem: -200 106<212 225> -11 22<197.5 237 411 440.5> 420 22<306.5 343 271.5 349>
VStem: 98 68<101.5 125 85 217>
LayerCount: 2
Fore
SplineSet
525 143 m 2
 525 143 513 83 495 45 c 0
 480 14 459 -11 422 -11 c 0
 387 -11 350 10 339 59 c 1
 299 10 255 -11 219 -11 c 0
 144 -11 98 59 98 144 c 0
 98 290 216 442 327 442 c 0
 359 442 391 426 410 383 c 1
 411 388 418 422 450 422 c 0
 460 422 477 417 477 396 c 0
 477 391 477 389 473 375 c 2
 405 103 l 2
 398 75 398 59 398 52 c 0
 398 38 398 11 424 11 c 0
 458 11 477 74 491 130 c 0
 497 152 498 153 510 153 c 0
 517 153 525 153 525 143 c 2
346 124 m 2
 393 313 l 2
 395 319 396 326 396 326 c 1
 396 368 371 420 327 420 c 0
 286 420 240 370 215 309 c 0
 197 267 166 150 166 100 c 0
 166 70 174 11 221 11 c 0
 276 11 338 92 346 124 c 2
527 536 m 2
 534 526 517 512 509 520 c 2
 411 619 l 1
 263 520 l 2
 251 512 241 526 252 536 c 2
 418 680 l 2
 423 684 430 684 433 680 c 2
 527 536 l 2
273 -137 m 0x80
 273 -169 241 -200 209 -200 c 0
 180 -200 164 -179 164 -157 c 0
 164 -125 196 -94 228 -94 c 0
 258 -94 273 -116 273 -137 c 0x80
EndSplineSet
EndChar

StartChar: Acircumflexgrave
Encoding: 7846 7846 149
Width: 743
Flags: MW
HStem: 0 31<456.5 472.5 657 676> 229 31<307 516 307 518 290 516> 696 20G<542 558>
VStem: 59 633<10.5 12>
LayerCount: 2
Fore
SplineSet
692 18 m 0
 692 0 680 0 674 0 c 0
 640 0 604 3 569 3 c 0
 531 3 491 0 454 0 c 0
 451 0 439 0 439 12 c 0
 439 31 451 31 462 31 c 0
 505 31 529 43 529 63 c 2
 518 229 l 1
 290 229 l 1
 218 103 l 2
 209 86 204 74 204 65 c 0
 204 34 240 32 246 31 c 0
 254 30 262 30 262 19 c 0
 262 0 249 0 244 0 c 0
 214 0 182 3 151 3 c 0
 125 3 96 0 71 0 c 0
 60 0 59 9 59 12 c 2
 59 12 60 30 71 31 c 0
 106 33 149 37 192 113 c 2
 524 698 l 2
 530 709 534 716 550 716 c 0
 566 716 567 713 568 691 c 2
 611 65 l 2
 613 39 616 31 668 31 c 0
 684 31 692 31 692 18 c 0
516 260 m 1
 493 587 l 1
 307 260 l 1
 516 260 l 1
696 755 m 2x10
 704 748 691 732 681 737 c 2
 569 792 l 1
 429 737 l 2
 416 732 411 748 423 755 c 2
 578 853 l 2
 582 855 587 855 590 853 c 2
 696 755 l 2x10
698 894 m 0
 698 897 699 899 692 907 c 2
 585 1023 l 2
 579 1029 573 1034 563 1034 c 0
 544 1034 524 1020 518 1001 c 0
 513 985 522 978 529 973 c 2
 663 880 l 2
 670 874 672 874 675 875 c 0
 683 876 695 886 698 894 c 0
EndSplineSet
Position2: "'cpsp' Capital Spacing lookup 0 subtable" dx=7 dy=0 dh=14 dv=0
EndChar

StartChar: acircumflexgrave
Encoding: 7847 7847 150
Width: 511
Flags: MW
HStem: -11 22<197.5 237 411 440.5> 420 22<306.5 343 271.5 349>
VStem: 98 68<101.5 125 85 217>
LayerCount: 2
Fore
SplineSet
525 143 m 2
 525 143 513 83 495 45 c 0
 480 14 459 -11 422 -11 c 0
 387 -11 350 10 339 59 c 1
 299 10 255 -11 219 -11 c 0
 144 -11 98 59 98 144 c 0
 98 290 216 442 327 442 c 0
 359 442 391 426 410 383 c 1
 411 388 418 422 450 422 c 0
 460 422 477 417 477 396 c 0
 477 391 477 389 473 375 c 2
 405 103 l 2
 398 75 398 59 398 52 c 0
 398 38 398 11 424 11 c 0
 458 11 477 74 491 130 c 0
 497 152 498 153 510 153 c 0
 517 153 525 153 525 143 c 2
346 124 m 2
 393 313 l 2
 395 319 396 326 396 326 c 1
 396 368 371 420 327 420 c 0
 286 420 240 370 215 309 c 0
 197 267 166 150 166 100 c 0
 166 70 174 11 221 11 c 0
 276 11 338 92 346 124 c 2
526 537 m 2
 534 530 521 514 511 519 c 2
 399 574 l 1
 259 519 l 2
 246 514 241 530 253 537 c 2
 408 635 l 2
 412 637 417 637 420 635 c 2
 526 537 l 2
528 676 m 0
 528 679 529 681 522 689 c 2
 415 805 l 2
 409 811 403 816 393 816 c 0
 374 816 354 802 348 783 c 0
 343 767 352 760 359 755 c 2
 493 662 l 2
 500 656 502 656 505 657 c 0
 513 658 525 668 528 676 c 0
EndSplineSet
EndChar

StartChar: Acircumflexhookabove
Encoding: 7848 7848 151
Width: 743
Flags: MW
HStem: 0 31<456.5 472.5 657 676> 229 31<307 516 307 518 290 516> 696 20G<542 558> 1044 20G<707 726>
VStem: 59 633<10.5 12>
LayerCount: 2
Fore
SplineSet
692 18 m 0
 692 0 680 0 674 0 c 0
 640 0 604 3 569 3 c 0
 531 3 491 0 454 0 c 0
 451 0 439 0 439 12 c 0
 439 31 451 31 462 31 c 0
 505 31 529 43 529 63 c 2
 518 229 l 1
 290 229 l 1
 218 103 l 2
 209 86 204 74 204 65 c 0
 204 34 240 32 246 31 c 0
 254 30 262 30 262 19 c 0
 262 0 249 0 244 0 c 0
 214 0 182 3 151 3 c 0
 125 3 96 0 71 0 c 0
 60 0 59 9 59 12 c 2
 59 12 60 30 71 31 c 0
 106 33 149 37 192 113 c 2
 524 698 l 2
 530 709 534 716 550 716 c 0
 566 716 567 713 568 691 c 2
 611 65 l 2
 613 39 616 31 668 31 c 0
 684 31 692 31 692 18 c 0
516 260 m 1
 493 587 l 1
 307 260 l 1
 516 260 l 1
696 755 m 2x10
 704 748 691 732 681 737 c 2
 569 792 l 1
 429 737 l 2
 416 732 411 748 423 755 c 2
 578 853 l 2
 582 855 587 855 590 853 c 2
 696 755 l 2x10
800 995 m 0
 796 977 781 962 763 954 c 0
 722 934 693 910 685 881 c 2
 681 862 l 2
 680 858 676 855 671 855 c 2
 669 855 l 2
 664 856 661 860 661 865 c 2
 662 867 l 1
 666 886 l 2
 675 918 699 948 731 970 c 0
 740 977 747 988 750 1000 c 0
 753 1011 754 1017 754 1023 c 0
 754 1028 753 1031 751 1034 c 0
 746 1041 734 1044 718 1044 c 0
 696 1044 674 1036 659 1023 c 1
 667 1020 674 1013 674 1002 c 2
 674 1002 674 997 673 995 c 0
 669 980 656 971 643 971 c 0
 631 971 621 979 621 993 c 2
 621 1000 l 1
 624 1006 l 1
 636 1041 678 1064 719 1064 c 0
 745 1064 768 1060 784 1047 c 0
 796 1038 802 1025 802 1010 c 0
 802 1005 801 1000 800 995 c 0
EndSplineSet
Position2: "'cpsp' Capital Spacing lookup 0 subtable" dx=7 dy=0 dh=14 dv=0
EndChar

StartChar: acircumflexhookabove
Encoding: 7849 7849 152
Width: 511
Flags: MW
HStem: -11 22<197.5 237 411 440.5> 420 22<306.5 343 271.5 349> 826 20G<537 556>
VStem: 98 68<101.5 125 85 217>
LayerCount: 2
Fore
SplineSet
525 143 m 2
 525 143 513 83 495 45 c 0
 480 14 459 -11 422 -11 c 0
 387 -11 350 10 339 59 c 1
 299 10 255 -11 219 -11 c 0
 144 -11 98 59 98 144 c 0
 98 290 216 442 327 442 c 0
 359 442 391 426 410 383 c 1
 411 388 418 422 450 422 c 0
 460 422 477 417 477 396 c 0
 477 391 477 389 473 375 c 2
 405 103 l 2
 398 75 398 59 398 52 c 0
 398 38 398 11 424 11 c 0
 458 11 477 74 491 130 c 0
 497 152 498 153 510 153 c 0
 517 153 525 153 525 143 c 2
346 124 m 2
 393 313 l 2
 395 319 396 326 396 326 c 1
 396 368 371 420 327 420 c 0
 286 420 240 370 215 309 c 0
 197 267 166 150 166 100 c 0
 166 70 174 11 221 11 c 0
 276 11 338 92 346 124 c 2
526 537 m 2x20
 534 530 521 514 511 519 c 2
 399 574 l 1
 259 519 l 2
 246 514 241 530 253 537 c 2
 408 635 l 2
 412 637 417 637 420 635 c 2
 526 537 l 2x20
630 777 m 0
 626 759 611 744 593 736 c 0
 552 716 523 692 515 663 c 2
 511 644 l 2
 510 640 506 637 501 637 c 2
 499 637 l 2
 494 638 491 642 491 647 c 2
 492 649 l 1
 496 668 l 2
 505 700 529 730 561 752 c 0
 570 759 577 770 580 782 c 0
 583 793 584 799 584 805 c 0
 584 810 583 813 581 816 c 0
 576 823 564 826 548 826 c 0
 526 826 504 818 489 805 c 1
 497 802 504 795 504 784 c 2
 504 784 504 779 503 777 c 0
 499 762 486 753 473 753 c 0
 461 753 451 761 451 775 c 2
 451 782 l 1
 454 788 l 1
 466 823 508 846 549 846 c 0
 575 846 598 842 614 829 c 0
 626 820 632 807 632 792 c 0
 632 787 631 782 630 777 c 0
EndSplineSet
EndChar

StartChar: Acircumflextilde
Encoding: 7850 7850 153
Width: 743
Flags: MW
HStem: 0 31<456.5 472.5 657 676> 229 31<307 516 307 518 290 516> 696 20G<542 558> 895 35<649 664> 895 100<627.5 761> 896 100 961 35<560 565.5>
VStem: 59 633<10.5 12>
LayerCount: 2
Fore
SplineSet
692 18 m 0xe1
 692 0 680 0 674 0 c 0
 640 0 604 3 569 3 c 0
 531 3 491 0 454 0 c 0
 451 0 439 0 439 12 c 0
 439 31 451 31 462 31 c 0
 505 31 529 43 529 63 c 2
 518 229 l 1
 290 229 l 1
 218 103 l 2
 209 86 204 74 204 65 c 0
 204 34 240 32 246 31 c 0
 254 30 262 30 262 19 c 0
 262 0 249 0 244 0 c 0
 214 0 182 3 151 3 c 0
 125 3 96 0 71 0 c 0
 60 0 59 9 59 12 c 2
 59 12 60 30 71 31 c 0
 106 33 149 37 192 113 c 2
 524 698 l 2
 530 709 534 716 550 716 c 0
 566 716 567 713 568 691 c 2
 611 65 l 2
 613 39 616 31 668 31 c 0
 684 31 692 31 692 18 c 0xe1
516 260 m 1
 493 587 l 1
 307 260 l 1
 516 260 l 1
696 755 m 2x08
 704 748 691 732 681 737 c 2
 569 792 l 1
 429 737 l 2
 416 732 411 748 423 755 c 2
 578 853 l 2
 582 855 587 855 590 853 c 2
 696 755 l 2x08
769 985 m 0
 769 976 687 895 641 895 c 0
 614 895 601 916 590 934 c 0
 581 949 573 961 558 961 c 0x12
 528 961 469 903 469 903 c 2
 464 899 461 896 456 896 c 0x04
 449 896 445 900 445 906 c 0
 445 917 498 960 498 960 c 2
 519 976 548 996 572 996 c 0
 599 996 611 978 626 953 c 0
 635 938 643 930 655 930 c 0x12
 685 930 742 984 745 988 c 0
 750 993 753 995 758 995 c 0
 764 995 769 991 769 985 c 0
EndSplineSet
Position2: "'cpsp' Capital Spacing lookup 0 subtable" dx=7 dy=0 dh=14 dv=0
EndChar

StartChar: acircumflextilde
Encoding: 7851 7851 154
Width: 511
Flags: MW
HStem: -11 22<197.5 237 411 440.5> 420 22<306.5 343 271.5 349> 677 35<479 494> 677 100<457.5 591> 678 100 743 35<390 395.5>
VStem: 98 68<101.5 125 85 217>
LayerCount: 2
Fore
SplineSet
525 143 m 2xc2
 525 143 513 83 495 45 c 0
 480 14 459 -11 422 -11 c 0
 387 -11 350 10 339 59 c 1
 299 10 255 -11 219 -11 c 0
 144 -11 98 59 98 144 c 0
 98 290 216 442 327 442 c 0
 359 442 391 426 410 383 c 1
 411 388 418 422 450 422 c 0
 460 422 477 417 477 396 c 0
 477 391 477 389 473 375 c 2
 405 103 l 2
 398 75 398 59 398 52 c 0
 398 38 398 11 424 11 c 0
 458 11 477 74 491 130 c 0
 497 152 498 153 510 153 c 0
 517 153 525 153 525 143 c 2xc2
346 124 m 2
 393 313 l 2
 395 319 396 326 396 326 c 1
 396 368 371 420 327 420 c 0
 286 420 240 370 215 309 c 0
 197 267 166 150 166 100 c 0
 166 70 174 11 221 11 c 0
 276 11 338 92 346 124 c 2
526 537 m 2x10
 534 530 521 514 511 519 c 2
 399 574 l 1
 259 519 l 2
 246 514 241 530 253 537 c 2
 408 635 l 2
 412 637 417 637 420 635 c 2
 526 537 l 2x10
599 767 m 0
 599 758 517 677 471 677 c 0
 444 677 431 698 420 716 c 0
 411 731 403 743 388 743 c 0x24
 358 743 299 685 299 685 c 2
 294 681 291 678 286 678 c 0x08
 279 678 275 682 275 688 c 0
 275 699 328 742 328 742 c 2
 349 758 378 778 402 778 c 0
 429 778 441 760 456 735 c 0
 465 720 473 712 485 712 c 0x24
 515 712 572 766 575 770 c 0
 580 775 583 777 588 777 c 0
 594 777 599 773 599 767 c 0
EndSplineSet
EndChar

StartChar: acute
Encoding: 180 180 155
Width: 511
Flags: MW
HStem: 505 21G<340.5 345.5> 676 20G<504 517>
LayerCount: 2
Fore
SplineSet
539 668 m 0
 539 651 528 642 519 636 c 2
 358 513 l 2
 349 505 347 505 344 505 c 0
 337 505 328 514 328 522 c 0
 328 525 328 527 338 537 c 2
 480 679 l 2
 489 688 497 696 511 696 c 0
 523 696 539 686 539 668 c 0
EndSplineSet
EndChar

StartChar: uni0301
Encoding: 769 769 156
Width: 0
Flags: MW
HStem: 505 21G<-170.5 -165.5> 676 20G<-7 6>
LayerCount: 2
Fore
SplineSet
28 668 m 0
 28 651 17 642 8 636 c 2
 -153 513 l 2
 -162 505 -164 505 -167 505 c 0
 -174 505 -183 514 -183 522 c 0
 -183 525 -183 527 -173 537 c 2
 -31 679 l 2
 -22 688 -14 696 0 696 c 0
 12 696 28 686 28 668 c 0
EndSplineSet
EndChar

StartChar: Adblgrave
Encoding: 512 512 157
Width: 743
Flags: MW
HStem: 0 31<456.5 472.5 657 676> 229 31<307 516 307 518 290 516> 696 20G<542 558> 746 21G<472.5 477.5 625.5 630.5> 916 20G<455 472.5 608 625.5>
VStem: 59 633<10.5 12>
LayerCount: 2
Fore
SplineSet
692 18 m 0
 692 0 680 0 674 0 c 0
 640 0 604 3 569 3 c 0
 531 3 491 0 454 0 c 0
 451 0 439 0 439 12 c 0
 439 31 451 31 462 31 c 0
 505 31 529 43 529 63 c 2
 518 229 l 1
 290 229 l 1
 218 103 l 2
 209 86 204 74 204 65 c 0
 204 34 240 32 246 31 c 0
 254 30 262 30 262 19 c 0
 262 0 249 0 244 0 c 0
 214 0 182 3 151 3 c 0
 125 3 96 0 71 0 c 0
 60 0 59 9 59 12 c 2
 59 12 60 30 71 31 c 0
 106 33 149 37 192 113 c 2
 524 698 l 2
 530 709 534 716 550 716 c 0
 566 716 567 713 568 691 c 2
 611 65 l 2
 613 39 616 31 668 31 c 0
 684 31 692 31 692 18 c 0
516 260 m 1
 493 587 l 1
 307 260 l 1
 516 260 l 1
653 761 m 0x18
 648 751 633 746 628 746 c 0
 623 746 622 748 619 755 c 2
 574 879 l 2
 569 893 567 897 573 909 c 0
 582 926 600 936 616 936 c 0
 635 936 637 923 638 913 c 2
 653 775 l 2
 654 765 655 764 653 761 c 0x18
500 761 m 0
 495 751 480 746 475 746 c 0
 470 746 469 748 466 755 c 2
 421 879 l 2
 416 893 414 897 420 909 c 0
 429 926 447 936 463 936 c 0
 482 936 484 923 485 913 c 2
 500 775 l 2
 501 765 502 764 500 761 c 0
EndSplineSet
Position2: "'cpsp' Capital Spacing lookup 0 subtable" dx=7 dy=0 dh=14 dv=0
EndChar

StartChar: adblgrave
Encoding: 513 513 158
Width: 511
Flags: MW
HStem: -11 22<197.5 237 411 440.5> 420 22<306.5 343 271.5 349> 506 21G<321.5 326.5 474.5 479.5> 676 20G<304 321.5 457 474.5>
VStem: 98 68<101.5 125 85 217>
LayerCount: 2
Fore
SplineSet
525 143 m 2
 525 143 513 83 495 45 c 0
 480 14 459 -11 422 -11 c 0
 387 -11 350 10 339 59 c 1
 299 10 255 -11 219 -11 c 0
 144 -11 98 59 98 144 c 0
 98 290 216 442 327 442 c 0
 359 442 391 426 410 383 c 1
 411 388 418 422 450 422 c 0
 460 422 477 417 477 396 c 0
 477 391 477 389 473 375 c 2
 405 103 l 2
 398 75 398 59 398 52 c 0
 398 38 398 11 424 11 c 0
 458 11 477 74 491 130 c 0
 497 152 498 153 510 153 c 0
 517 153 525 153 525 143 c 2
346 124 m 2
 393 313 l 2
 395 319 396 326 396 326 c 1
 396 368 371 420 327 420 c 0
 286 420 240 370 215 309 c 0
 197 267 166 150 166 100 c 0
 166 70 174 11 221 11 c 0
 276 11 338 92 346 124 c 2
503 521 m 0x30
 498 511 482 506 477 506 c 0
 472 506 471 508 469 515 c 2
 424 639 l 2
 419 653 417 657 423 669 c 0
 431 686 449 696 465 696 c 0
 484 696 487 683 488 673 c 2
 503 535 l 2
 504 525 504 524 503 521 c 0x30
350 521 m 0
 345 511 329 506 324 506 c 0
 319 506 318 508 316 515 c 2
 271 639 l 2
 266 653 264 657 270 669 c 0
 278 686 296 696 312 696 c 0
 331 696 334 683 335 673 c 2
 350 535 l 2
 351 525 351 524 350 521 c 0
EndSplineSet
EndChar

StartChar: Adieresis
Encoding: 196 196 159
Width: 743
Flags: MW
HStem: 0 31<456.5 472.5 657 676> 229 31<307 516 307 518 290 516> 696 20G<542 558> 736 96<457.5 469 666.5 678>
VStem: 59 633<10.5 12>
LayerCount: 2
Fore
SplineSet
692 18 m 0
 692 0 680 0 674 0 c 0
 640 0 604 3 569 3 c 0
 531 3 491 0 454 0 c 0
 451 0 439 0 439 12 c 0
 439 31 451 31 462 31 c 0
 505 31 529 43 529 63 c 2
 518 229 l 1
 290 229 l 1
 218 103 l 2
 209 86 204 74 204 65 c 0
 204 34 240 32 246 31 c 0
 254 30 262 30 262 19 c 0
 262 0 249 0 244 0 c 0
 214 0 182 3 151 3 c 0
 125 3 96 0 71 0 c 0
 60 0 59 9 59 12 c 2
 59 12 60 30 71 31 c 0
 106 33 149 37 192 113 c 2
 524 698 l 2
 530 709 534 716 550 716 c 0
 566 716 567 713 568 691 c 2
 611 65 l 2
 613 39 616 31 668 31 c 0
 684 31 692 31 692 18 c 0
516 260 m 1
 493 587 l 1
 307 260 l 1
 516 260 l 1
512 793 m 0x10
 512 764 483 736 455 736 c 0
 428 736 414 755 414 775 c 0
 414 804 443 832 472 832 c 0
 499 832 512 812 512 793 c 0x10
721 793 m 0
 721 764 692 736 664 736 c 0
 637 736 623 755 623 775 c 0
 623 804 652 832 681 832 c 0
 708 832 721 812 721 793 c 0
EndSplineSet
Position2: "'cpsp' Capital Spacing lookup 0 subtable" dx=7 dy=0 dh=14 dv=0
EndChar

StartChar: adieresis
Encoding: 228 228 160
Width: 511
Flags: MW
HStem: -11 22<197.5 237 411 440.5> 420 22<306.5 343 271.5 349> 553 96<311.5 323 488.5 500>
VStem: 98 68<101.5 125 85 217>
LayerCount: 2
Fore
SplineSet
525 143 m 2
 525 143 513 83 495 45 c 0
 480 14 459 -11 422 -11 c 0
 387 -11 350 10 339 59 c 1
 299 10 255 -11 219 -11 c 0
 144 -11 98 59 98 144 c 0
 98 290 216 442 327 442 c 0
 359 442 391 426 410 383 c 1
 411 388 418 422 450 422 c 0
 460 422 477 417 477 396 c 0
 477 391 477 389 473 375 c 2
 405 103 l 2
 398 75 398 59 398 52 c 0
 398 38 398 11 424 11 c 0
 458 11 477 74 491 130 c 0
 497 152 498 153 510 153 c 0
 517 153 525 153 525 143 c 2
346 124 m 2
 393 313 l 2
 395 319 396 326 396 326 c 1
 396 368 371 420 327 420 c 0
 286 420 240 370 215 309 c 0
 197 267 166 150 166 100 c 0
 166 70 174 11 221 11 c 0
 276 11 338 92 346 124 c 2
366 610 m 0x20
 366 581 337 553 309 553 c 0
 282 553 268 572 268 592 c 0
 268 621 297 649 326 649 c 0
 353 649 366 629 366 610 c 0x20
543 610 m 0
 543 581 514 553 486 553 c 0
 459 553 445 572 445 592 c 0
 445 621 474 649 503 649 c 0
 530 649 543 629 543 610 c 0
EndSplineSet
EndChar

StartChar: Adotbelow
Encoding: 7840 7840 161
Width: 743
Flags: MW
HStem: -200 106<328 341> 0 31<456.5 472.5 657 676> 229 31<307 516 307 518 290 516> 696 20G<542 558>
VStem: 59 633<10.5 12>
LayerCount: 2
Fore
SplineSet
692 18 m 0
 692 0 680 0 674 0 c 0
 640 0 604 3 569 3 c 0
 531 3 491 0 454 0 c 0
 451 0 439 0 439 12 c 0
 439 31 451 31 462 31 c 0
 505 31 529 43 529 63 c 2
 518 229 l 1
 290 229 l 1
 218 103 l 2
 209 86 204 74 204 65 c 0
 204 34 240 32 246 31 c 0
 254 30 262 30 262 19 c 0
 262 0 249 0 244 0 c 0
 214 0 182 3 151 3 c 0
 125 3 96 0 71 0 c 0
 60 0 59 9 59 12 c 2
 59 12 60 30 71 31 c 0
 106 33 149 37 192 113 c 2
 524 698 l 2
 530 709 534 716 550 716 c 0
 566 716 567 713 568 691 c 2
 611 65 l 2
 613 39 616 31 668 31 c 0
 684 31 692 31 692 18 c 0
516 260 m 1
 493 587 l 1
 307 260 l 1
 516 260 l 1
389 -137 m 0x80
 389 -169 357 -200 325 -200 c 0
 296 -200 280 -179 280 -157 c 0
 280 -125 312 -94 344 -94 c 0
 374 -94 389 -116 389 -137 c 0x80
EndSplineSet
Position2: "'cpsp' Capital Spacing lookup 0 subtable" dx=7 dy=0 dh=14 dv=0
EndChar

StartChar: adotbelow
Encoding: 7841 7841 162
Width: 511
Flags: MW
HStem: -200 106<212 225> -11 22<197.5 237 411 440.5> 420 22<306.5 343 271.5 349>
VStem: 98 68<101.5 125 85 217>
LayerCount: 2
Fore
SplineSet
525 143 m 2
 525 143 513 83 495 45 c 0
 480 14 459 -11 422 -11 c 0
 387 -11 350 10 339 59 c 1
 299 10 255 -11 219 -11 c 0
 144 -11 98 59 98 144 c 0
 98 290 216 442 327 442 c 0
 359 442 391 426 410 383 c 1
 411 388 418 422 450 422 c 0
 460 422 477 417 477 396 c 0
 477 391 477 389 473 375 c 2
 405 103 l 2
 398 75 398 59 398 52 c 0
 398 38 398 11 424 11 c 0
 458 11 477 74 491 130 c 0
 497 152 498 153 510 153 c 0
 517 153 525 153 525 143 c 2
346 124 m 2
 393 313 l 2
 395 319 396 326 396 326 c 1
 396 368 371 420 327 420 c 0
 286 420 240 370 215 309 c 0
 197 267 166 150 166 100 c 0
 166 70 174 11 221 11 c 0
 276 11 338 92 346 124 c 2
273 -137 m 0x80
 273 -169 241 -200 209 -200 c 0
 180 -200 164 -179 164 -157 c 0
 164 -125 196 -94 228 -94 c 0
 258 -94 273 -116 273 -137 c 0x80
EndSplineSet
EndChar

StartChar: AE
Encoding: 198 198 163
Width: 883
Flags: MW
HStem: 0 31<359.5 367 367 390 529 620 620 691.5> 313 31<360 488 342 495 573 647> 652 31<448 924 458 476 672.5 689 689 779>
LayerCount: 2
Fore
SplineSet
892 247 m 2
 892 247 889 237 888 235 c 2
 799 16 l 2
 792 1 791 0 771 0 c 2
 367 0 l 2
 351 0 342 0 342 12 c 0
 342 31 354 31 365 31 c 0
 415 31 419 38 427 69 c 2
 488 313 l 1
 342 313 l 1
 218 100 l 2
 213 91 205 75 205 64 c 0
 205 38 231 32 246 31 c 0
 254 30 262 30 262 19 c 0
 262 0 250 0 244 0 c 0
 214 0 182 3 151 3 c 0
 125 3 96 0 71 0 c 0
 62 0 59 6 59 13 c 0
 59 29 68 30 79 31 c 0
 121 35 155 48 193 113 c 2
 505 651 l 1
 497 652 485 652 476 652 c 2
 456 652 l 2
 440 652 430 652 430 664 c 0
 430 683 441 683 458 683 c 2
 924 683 l 2
 944 683 951 683 948 658 c 2
 925 481 l 2
 923 463 922 458 908 458 c 0
 904 458 892 458 892 470 c 2
 894 483 l 1
 900 552 l 2
 901 564 903 613 870 634 c 0
 849 648 812 652 779 652 c 2
 689 652 l 2
 656 652 649 652 640 616 c 2
 573 344 l 1
 649 344 l 2
 730 344 746 369 764 440 c 0
 769 458 770 461 783 461 c 0
 786 461 798 461 798 450 c 0
 798 447 797 440 796 437 c 2
 741 216 l 2
 736 197 732 196 722 196 c 0
 718 196 707 196 707 208 c 2
 707 208 707 211 709 218 c 0
 710 223 718 254 718 272 c 0
 718 298 711 313 647 313 c 2
 565 313 l 1
 502 63 l 2
 501 57 498 47 498 41 c 0
 498 34 498 31 529 31 c 2
 620 31 l 2
 763 31 798 96 850 221 c 0
 855 233 863 253 866 255 c 0
 869 258 873 258 877 258 c 0
 880 258 892 258 892 247 c 2
563 612 m 2
 564 615 565 625 565 629 c 0
 565 645 549 649 537 649 c 1
 360 344 l 1
 495 344 l 1
 563 612 l 2
EndSplineSet
Position2: "'cpsp' Capital Spacing lookup 0 subtable" dx=7 dy=0 dh=14 dv=0
EndChar

StartChar: ae
Encoding: 230 230 164
Width: 715
Flags: W
HStem: -10 22<205.295 264.731 475.628 566.335> 232 22<450.149 586.383> 420 22<302.924 372.719 567.683 653.257>
VStem: 110 67<50.8957 224.507> 384 47<53.5877 114 129.495 231.35> 680 37<305.568 402.494>
LayerCount: 2
Fore
SplineSet
383 114 m 1
 377 99 366 86 357 73 c 0
 326 32 282 -10 229 -10 c 0
 223 -10 216 -9 209 -8 c 0
 129 10 110 88 110 149 c 0
 110 215 132 286 172 340 c 0
 205 384 264 442 337 442 c 0
 376 442 405 422 426 385 c 1
 429 409 437 441 466 441 c 0
 477 441 488 435 490 422 c 2
 490 419 l 2
 490 409 486 399 484 390 c 1
 520 420 568 442 616 442 c 0
 672 442 717 411 717 357 c 0
 717 239 570 232 486 232 c 2
 457 232 l 2
 434 232 431 175 431 135 c 0
 431 76 452 12 515 12 c 0
 576 12 626 58 662 101 c 0
 667 107 673 121 682 121 c 0
 689 121 697 114 698 107 c 2
 698 105 l 2
 698 102 697 98 695 96 c 0
 662 38 583 -10 513 -10 c 0
 443 -10 394 47 384 114 c 1
 383 114 l 1
411 328 m 0
 411 330 412 332 412 334 c 0
 412 343 408 352 406 360 c 0
 397 391 374 420 339 420 c 0
 314 420 292 405 275 388 c 0
 230 344 213 282 198 222 c 0
 188 182 177 141 177 100 c 0
 177 62 191 12 232 12 c 2
 234 12 l 2
 241 13 248 14 254 16 c 0
 299 36 381 124 381 195 c 1
 387 238 406 286 411 328 c 0
450 254 m 1
 469 254 l 2
 545 254 680 258 680 359 c 0
 680 391 655 420 616 420 c 0
 534 420 469 331 450 254 c 1
EndSplineSet
EndChar

StartChar: AEacute
Encoding: 508 508 165
Width: 883
Flags: MW
HStem: 0 31<359.5 367 367 390 529 620 620 691.5> 313 31<360 488 342 495 573 647> 652 31<448 924 458 476 672.5 689 689 779> 747 21G 886 20G<763.5 778.5>
LayerCount: 2
Fore
SplineSet
892 247 m 2
 892 247 889 237 888 235 c 2
 799 16 l 2
 792 1 791 0 771 0 c 2
 367 0 l 2
 351 0 342 0 342 12 c 0
 342 31 354 31 365 31 c 0
 415 31 419 38 427 69 c 2
 488 313 l 1
 342 313 l 1
 218 100 l 2
 213 91 205 75 205 64 c 0
 205 38 231 32 246 31 c 0
 254 30 262 30 262 19 c 0
 262 0 250 0 244 0 c 0
 214 0 182 3 151 3 c 0
 125 3 96 0 71 0 c 0
 62 0 59 6 59 13 c 0
 59 29 68 30 79 31 c 0
 121 35 155 48 193 113 c 2
 505 651 l 1
 497 652 485 652 476 652 c 2
 456 652 l 2
 440 652 430 652 430 664 c 0
 430 683 441 683 458 683 c 2
 924 683 l 2
 944 683 951 683 948 658 c 2
 925 481 l 2
 923 463 922 458 908 458 c 0
 904 458 892 458 892 470 c 2
 894 483 l 1
 900 552 l 2
 901 564 903 613 870 634 c 0
 849 648 812 652 779 652 c 2
 689 652 l 2
 656 652 649 652 640 616 c 2
 573 344 l 1
 649 344 l 2
 730 344 746 369 764 440 c 0
 769 458 770 461 783 461 c 0
 786 461 798 461 798 450 c 0
 798 447 797 440 796 437 c 2
 741 216 l 2
 736 197 732 196 722 196 c 0
 718 196 707 196 707 208 c 2
 707 208 707 211 709 218 c 0
 710 223 718 254 718 272 c 0
 718 298 711 313 647 313 c 2
 565 313 l 1
 502 63 l 2
 501 57 498 47 498 41 c 0
 498 34 498 31 529 31 c 2
 620 31 l 2
 763 31 798 96 850 221 c 0
 855 233 863 253 866 255 c 0
 869 258 873 258 877 258 c 0
 880 258 892 258 892 247 c 2
563 612 m 2
 564 615 565 625 565 629 c 0
 565 645 549 649 537 649 c 1
 360 344 l 1
 495 344 l 1
 563 612 l 2
797 873 m 0x18
 794 857 782 850 772 845 c 2
 592 752 l 2
 582 746 580 746 577 747 c 0
 570 748 563 758 564 766 c 0
 565 769 565 771 576 779 c 2
 741 895 l 2
 750 901 758 906 769 906 c 0
 788 906 800 892 797 873 c 0x18
EndSplineSet
Position2: "'cpsp' Capital Spacing lookup 0 subtable" dx=7 dy=0 dh=14 dv=0
EndChar

StartChar: aeacute
Encoding: 509 509 166
Width: 716
Flags: MW
HStem: -11 22<218 251 481 530.5> 231 22<450 480 480 496 444 480> 420 22<609 638.5> 505 21G<442.5 447.5> 676 20G<606 619>
VStem: 92 73<65.5 117.5 48 129.5> 681 38<350.5 375.5>
LayerCount: 2
Fore
SplineSet
699 104 m 0
 699 90 622 -11 512 -11 c 0
 448 -11 414 34 401 60 c 1
 387 2 384 -11 358 -11 c 0
 350 -11 334 -7 334 12 c 0
 334 15 334 18 343 53 c 1
 342 54 l 1
 310 19 275 -11 227 -11 c 0
 156 -11 92 31 92 100 c 0
 92 159 151 316 434 415 c 1
 440 440 461 442 466 442 c 0
 475 442 490 437 490 419 c 0
 490 409 486 398 484 390 c 1
 508 409 559 442 619 442 c 0
 678 442 719 406 719 357 c 0
 719 344 716 284 642 253 c 0
 600 236 537 231 496 231 c 2
 444 231 l 1
 433 183 430 148 430 133 c 0
 430 82 449 11 513 11 c 0
 548 11 613 29 670 110 c 0
 676 117 678 120 683 120 c 0
 691 120 699 109 699 104 c 0
681 359 m 0
 681 392 659 420 618 420 c 0
 600 420 498 412 450 253 c 1
 480 253 l 2
 553 253 681 264 681 359 c 0
366 145 m 2
 427 389 l 1
 246 311 165 162 165 73 c 0
 165 23 206 11 230 11 c 0
 296 11 358 114 366 145 c 2
641 668 m 0x18
 641 651 630 642 621 636 c 2
 460 513 l 2
 451 505 449 505 446 505 c 0
 439 505 430 514 430 522 c 0
 430 525 430 527 440 537 c 2
 582 679 l 2
 591 688 599 696 613 696 c 0
 625 696 641 686 641 668 c 0x18
EndSplineSet
EndChar

StartChar: Agrave
Encoding: 192 192 167
Width: 743
Flags: MW
HStem: 0 31<456.5 472.5 657 676> 229 31<307 516 307 518 290 516> 696 20G<542 558> 747 21G 886 20G<487.5 502>
VStem: 59 633<10.5 12>
LayerCount: 2
Fore
SplineSet
692 18 m 0
 692 0 680 0 674 0 c 0
 640 0 604 3 569 3 c 0
 531 3 491 0 454 0 c 0
 451 0 439 0 439 12 c 0
 439 31 451 31 462 31 c 0
 505 31 529 43 529 63 c 2
 518 229 l 1
 290 229 l 1
 218 103 l 2
 209 86 204 74 204 65 c 0
 204 34 240 32 246 31 c 0
 254 30 262 30 262 19 c 0
 262 0 249 0 244 0 c 0
 214 0 182 3 151 3 c 0
 125 3 96 0 71 0 c 0
 60 0 59 9 59 12 c 2
 59 12 60 30 71 31 c 0
 106 33 149 37 192 113 c 2
 524 698 l 2
 530 709 534 716 550 716 c 0
 566 716 567 713 568 691 c 2
 611 65 l 2
 613 39 616 31 668 31 c 0
 684 31 692 31 692 18 c 0
516 260 m 1
 493 587 l 1
 307 260 l 1
 516 260 l 1
632 766 m 0x18
 629 758 617 748 609 747 c 0
 606 746 604 746 597 752 c 2
 463 845 l 2
 456 850 447 857 452 873 c 0
 458 892 478 906 497 906 c 0
 507 906 513 901 519 895 c 2
 626 779 l 2
 633 771 632 769 632 766 c 0x18
EndSplineSet
Position2: "'cpsp' Capital Spacing lookup 0 subtable" dx=7 dy=0 dh=14 dv=0
EndChar

StartChar: agrave
Encoding: 224 224 168
Width: 511
Flags: MW
HStem: -11 22<197.5 237 411 440.5> 420 22<306.5 343 271.5 349> 505 21G<418.5 423.5> 676 20G<342 355>
VStem: 98 68<101.5 125 85 217>
LayerCount: 2
Fore
SplineSet
525 143 m 2
 525 143 513 83 495 45 c 0
 480 14 459 -11 422 -11 c 0
 387 -11 350 10 339 59 c 1
 299 10 255 -11 219 -11 c 0
 144 -11 98 59 98 144 c 0
 98 290 216 442 327 442 c 0
 359 442 391 426 410 383 c 1
 411 388 418 422 450 422 c 0
 460 422 477 417 477 396 c 0
 477 391 477 389 473 375 c 2
 405 103 l 2
 398 75 398 59 398 52 c 0
 398 38 398 11 424 11 c 0
 458 11 477 74 491 130 c 0
 497 152 498 153 510 153 c 0
 517 153 525 153 525 143 c 2
346 124 m 2
 393 313 l 2
 395 319 396 326 396 326 c 1
 396 368 371 420 327 420 c 0
 286 420 240 370 215 309 c 0
 197 267 166 150 166 100 c 0
 166 70 174 11 221 11 c 0
 276 11 338 92 346 124 c 2
444 522 m 0x30
 440 514 427 505 420 505 c 0
 417 505 415 505 410 513 c 2
 310 636 l 2
 304 642 298 651 306 668 c 0
 315 686 336 696 348 696 c 0
 362 696 366 688 371 679 c 2
 442 537 l 2
 447 527 446 525 444 522 c 0x30
EndSplineSet
EndChar

StartChar: Ahookabove
Encoding: 7842 7842 169
Width: 743
Flags: MW
HStem: 0 31<456.5 472.5 657 676> 229 31<307 516 307 518 290 516> 696 20G<542 558> 758 21G<556 558 556 556> 947 20G<594 613>
VStem: 59 633<10.5 12>
LayerCount: 2
Fore
SplineSet
692 18 m 0
 692 0 680 0 674 0 c 0
 640 0 604 3 569 3 c 0
 531 3 491 0 454 0 c 0
 451 0 439 0 439 12 c 0
 439 31 451 31 462 31 c 0
 505 31 529 43 529 63 c 2
 518 229 l 1
 290 229 l 1
 218 103 l 2
 209 86 204 74 204 65 c 0
 204 34 240 32 246 31 c 0
 254 30 262 30 262 19 c 0
 262 0 249 0 244 0 c 0
 214 0 182 3 151 3 c 0
 125 3 96 0 71 0 c 0
 60 0 59 9 59 12 c 2
 59 12 60 30 71 31 c 0
 106 33 149 37 192 113 c 2
 524 698 l 2
 530 709 534 716 550 716 c 0
 566 716 567 713 568 691 c 2
 611 65 l 2
 613 39 616 31 668 31 c 0
 684 31 692 31 692 18 c 0
516 260 m 1
 493 587 l 1
 307 260 l 1
 516 260 l 1
687 898 m 0x18
 683 880 668 865 650 857 c 0
 609 837 580 813 572 784 c 2
 568 765 l 2
 567 761 563 758 558 758 c 2
 556 758 l 2
 551 759 548 763 548 768 c 2
 549 770 l 1
 553 789 l 2
 562 821 586 851 618 873 c 0
 627 880 634 891 637 903 c 0
 640 914 641 920 641 926 c 0
 641 931 640 934 638 937 c 0
 633 944 621 947 605 947 c 0
 583 947 561 939 546 926 c 1
 554 923 561 916 561 905 c 2
 561 905 561 900 560 898 c 0
 556 883 543 874 530 874 c 0
 518 874 508 882 508 896 c 2
 508 903 l 1
 511 909 l 1
 523 944 565 967 606 967 c 0
 632 967 655 963 671 950 c 0
 683 941 689 928 689 913 c 0
 689 908 688 903 687 898 c 0x18
EndSplineSet
Position2: "'cpsp' Capital Spacing lookup 0 subtable" dx=7 dy=0 dh=14 dv=0
EndChar

StartChar: ahookabove
Encoding: 7843 7843 170
Width: 511
Flags: MW
HStem: -11 22<197.5 237 411 440.5> 420 22<306.5 343 271.5 349> 496 21G<374 376 374 374> 685 20G<412 431>
VStem: 98 68<101.5 125 85 217>
LayerCount: 2
Fore
SplineSet
525 143 m 2
 525 143 513 83 495 45 c 0
 480 14 459 -11 422 -11 c 0
 387 -11 350 10 339 59 c 1
 299 10 255 -11 219 -11 c 0
 144 -11 98 59 98 144 c 0
 98 290 216 442 327 442 c 0
 359 442 391 426 410 383 c 1
 411 388 418 422 450 422 c 0
 460 422 477 417 477 396 c 0
 477 391 477 389 473 375 c 2
 405 103 l 2
 398 75 398 59 398 52 c 0
 398 38 398 11 424 11 c 0
 458 11 477 74 491 130 c 0
 497 152 498 153 510 153 c 0
 517 153 525 153 525 143 c 2
346 124 m 2
 393 313 l 2
 395 319 396 326 396 326 c 1
 396 368 371 420 327 420 c 0
 286 420 240 370 215 309 c 0
 197 267 166 150 166 100 c 0
 166 70 174 11 221 11 c 0
 276 11 338 92 346 124 c 2
505 636 m 0x30
 501 618 486 603 468 595 c 0
 427 575 398 551 390 522 c 2
 386 503 l 2
 385 499 381 496 376 496 c 2
 374 496 l 2
 369 497 366 501 366 506 c 2
 367 508 l 1
 371 527 l 2
 380 559 404 589 436 611 c 0
 445 618 452 629 455 641 c 0
 458 652 459 658 459 664 c 0
 459 669 458 672 456 675 c 0
 451 682 439 685 423 685 c 0
 401 685 379 677 364 664 c 1
 372 661 379 654 379 643 c 2
 379 643 379 638 378 636 c 0
 374 621 361 612 348 612 c 0
 336 612 326 620 326 634 c 2
 326 641 l 1
 329 647 l 1
 341 682 383 705 424 705 c 0
 450 705 473 701 489 688 c 0
 501 679 507 666 507 651 c 0
 507 646 506 641 505 636 c 0x30
EndSplineSet
EndChar

StartChar: Alpha
Encoding: 913 913 171
Width: 743
Flags: MW
HStem: 0 31<456.5 472.5 657 676> 229 31<307 516 307 518 290 516> 696 20G<542 558>
VStem: 59 633<10.5 12>
LayerCount: 2
Fore
SplineSet
692 18 m 0
 692 0 680 0 674 0 c 0
 640 0 604 3 569 3 c 0
 531 3 491 0 454 0 c 0
 451 0 439 0 439 12 c 0
 439 31 451 31 462 31 c 0
 505 31 529 43 529 63 c 2
 518 229 l 1
 290 229 l 1
 218 103 l 2
 209 86 204 74 204 65 c 0
 204 34 240 32 246 31 c 0
 254 30 262 30 262 19 c 0
 262 0 249 0 244 0 c 0
 214 0 182 3 151 3 c 0
 125 3 96 0 71 0 c 0
 60 0 59 9 59 12 c 2
 59 12 60 30 71 31 c 0
 106 33 149 37 192 113 c 2
 524 698 l 2
 530 709 534 716 550 716 c 0
 566 716 567 713 568 691 c 2
 611 65 l 2
 613 39 616 31 668 31 c 0
 684 31 692 31 692 18 c 0
516 260 m 1
 493 587 l 1
 307 260 l 1
 516 260 l 1
EndSplineSet
EndChar

StartChar: Amacron
Encoding: 256 256 172
Width: 743
Flags: MW
HStem: 0 31<456.5 472.5 657 676> 229 31<307 516 307 518 290 516> 696 20G<542 558> 756 30<414.5 705 425 703>
VStem: 59 633<10.5 12>
LayerCount: 2
Fore
SplineSet
692 18 m 0
 692 0 680 0 674 0 c 0
 640 0 604 3 569 3 c 0
 531 3 491 0 454 0 c 0
 451 0 439 0 439 12 c 0
 439 31 451 31 462 31 c 0
 505 31 529 43 529 63 c 2
 518 229 l 1
 290 229 l 1
 218 103 l 2
 209 86 204 74 204 65 c 0
 204 34 240 32 246 31 c 0
 254 30 262 30 262 19 c 0
 262 0 249 0 244 0 c 0
 214 0 182 3 151 3 c 0
 125 3 96 0 71 0 c 0
 60 0 59 9 59 12 c 2
 59 12 60 30 71 31 c 0
 106 33 149 37 192 113 c 2
 524 698 l 2
 530 709 534 716 550 716 c 0
 566 716 567 713 568 691 c 2
 611 65 l 2
 613 39 616 31 668 31 c 0
 684 31 692 31 692 18 c 0
516 260 m 1
 493 587 l 1
 307 260 l 1
 516 260 l 1
730 775 m 0x10
 730 756 720 756 703 756 c 2
 423 756 l 2
 406 756 398 756 398 769 c 0
 398 786 408 786 425 786 c 2
 705 786 l 2
 720 786 730 786 730 775 c 0x10
EndSplineSet
Position2: "'cpsp' Capital Spacing lookup 0 subtable" dx=7 dy=0 dh=14 dv=0
EndChar

StartChar: amacron
Encoding: 257 257 173
Width: 511
Flags: MW
HStem: -11 22<197.5 237 411 440.5> 420 22<306.5 343 271.5 349> 586 30<256.5 547 267 545>
VStem: 98 68<101.5 125 85 217>
LayerCount: 2
Fore
SplineSet
525 143 m 2
 525 143 513 83 495 45 c 0
 480 14 459 -11 422 -11 c 0
 387 -11 350 10 339 59 c 1
 299 10 255 -11 219 -11 c 0
 144 -11 98 59 98 144 c 0
 98 290 216 442 327 442 c 0
 359 442 391 426 410 383 c 1
 411 388 418 422 450 422 c 0
 460 422 477 417 477 396 c 0
 477 391 477 389 473 375 c 2
 405 103 l 2
 398 75 398 59 398 52 c 0
 398 38 398 11 424 11 c 0
 458 11 477 74 491 130 c 0
 497 152 498 153 510 153 c 0
 517 153 525 153 525 143 c 2
346 124 m 2
 393 313 l 2
 395 319 396 326 396 326 c 1
 396 368 371 420 327 420 c 0
 286 420 240 370 215 309 c 0
 197 267 166 150 166 100 c 0
 166 70 174 11 221 11 c 0
 276 11 338 92 346 124 c 2
572 605 m 0x20
 572 586 562 586 545 586 c 2
 265 586 l 2
 248 586 240 586 240 599 c 0
 240 616 250 616 267 616 c 2
 547 616 l 2
 562 616 572 616 572 605 c 0x20
EndSplineSet
EndChar

StartChar: anglearc
Encoding: 8738 8738 174
Width: 767
Flags: MW
HStem: -57 21G<436.5 445> 537 20G<589.5 598.5>
LayerCount: 2
Fore
SplineSet
695 20 m 0
 692 6 675 -4 663 1 c 2
 548 53 l 1
 522 17 492 -18 459 -49 c 0
 454 -54 448 -57 442 -57 c 0
 431 -57 424 -48 427 -37 c 0
 428 -32 431 -28 434 -25 c 0
 464 4 491 35 514 68 c 1
 147 231 l 2
 141 234 137 242 140 250 c 0
 142 258 149 266 157 269 c 2
 605 432 l 1
 598 465 587 496 571 525 c 0
 570 528 569 532 570 537 c 0
 573 548 584 557 595 557 c 0
 602 557 606 554 609 549 c 0
 626 518 639 483 646 447 c 1
 788 499 l 2
 802 504 814 494 810 480 c 0
 808 472 801 464 793 461 c 2
 652 410 l 1
 657 359 653 305 640 250 c 0
 626 195 603 141 572 90 c 1
 687 39 l 2
 694 36 697 28 695 20 c 0
600 250 m 0
 612 300 616 349 611 395 c 1
 213 250 l 1
 538 105 l 1
 566 151 587 200 600 250 c 0
EndSplineSet
EndChar

StartChar: angleleft
Encoding: 9001 9001 175
Width: 409
Flags: MW
HStem: -249 21G<245 259> 731 20G<495 500>
LayerCount: 2
Fore
SplineSet
274 -231 m 2
 273 -240 264 -249 254 -249 c 0
 236 -249 235 -231 233 -216 c 2
 196 182 l 2
 193 204 189 227 189 249 c 0
 189 262 201 276 207 287 c 2
 381 579 l 1
 457 707 l 2
 465 722 475 746 490 750 c 2
 495 751 l 2
 505 751 513 743 514 733 c 2
 514 730 l 2
 514 715 494 689 484 673 c 0
 403 544 332 411 251 282 c 1
 238 260 l 2
 236 256 232 251 231 246 c 2
 231 242 l 2
 231 236 232 230 232 224 c 0
 241 90 259 -46 270 -180 c 0
 271 -195 274 -211 274 -226 c 2
 274 -231 l 2
EndSplineSet
EndChar

StartChar: angleright
Encoding: 9002 9002 176
Width: 409
Flags: MW
HStem: -249 21G<20 40> 731 20G<280 288.5>
LayerCount: 2
Fore
SplineSet
345 254 m 0
 345 240 333 227 327 215 c 2
 75 -208 l 2
 68 -221 57 -247 40 -249 c 0
 30 -249 20 -240 20 -230 c 2
 20 -228 l 2
 20 -223 23 -218 25 -213 c 2
 283 220 l 1
 296 242 l 2
 299 248 304 254 304 262 c 0
 304 283 300 305 297 326 c 2
 282 488 l 1
 263 687 l 2
 262 701 260 715 260 729 c 2
 260 734 l 2
 261 742 267 748 275 750 c 0
 277 751 280 751 280 751 c 2
 297 751 299 734 301 722 c 2
 337 328 l 2
 340 304 345 277 345 254 c 0
EndSplineSet
EndChar

StartChar: Aogonek
Encoding: 260 260 177
Width: 743
Flags: MW
HStem: -211 47<544 553> 0 31<456.5 469 659.5 676> 229 31<307 516 307 518 290 516>
VStem: 59 203<10.5 12>
LayerCount: 2
Fore
SplineSet
667 -115 m 0
 639 -172 578 -211 528 -211 c 0
 464 -211 427 -167 437 -121 c 0
 448 -69 493 -30 547 3 c 1
 516 2 484 0 454 0 c 0
 451 0 439 0 439 12 c 0
 439 31 451 31 462 31 c 0
 505 31 529 43 529 63 c 2
 518 229 l 1
 290 229 l 1
 218 103 l 2
 209 86 204 74 204 65 c 0
 204 34 240 32 246 31 c 0
 254 30 262 30 262 19 c 0
 262 0 249 0 244 0 c 0
 214 0 182 3 151 3 c 0
 125 3 96 0 71 0 c 0
 60 0 59 9 59 12 c 2
 59 12 60 30 71 31 c 0
 106 33 149 37 192 113 c 2
 524 698 l 2
 530 709 534 716 550 716 c 0
 566 716 567 713 568 691 c 2
 611 65 l 2
 613 39 616 31 668 31 c 0
 684 31 692 31 692 18 c 0
 692 0 680 0 674 0 c 0
 645 0 615 2 585 3 c 1
 545 -21 499 -55 490 -95 c 0
 480 -141 526 -164 562 -164 c 0
 594 -164 627 -144 651 -108 c 0
 658 -98 672 -103 667 -115 c 0
516 260 m 1
 493 587 l 1
 307 260 l 1
 516 260 l 1
EndSplineSet
Position2: "'cpsp' Capital Spacing lookup 0 subtable" dx=7 dy=0 dh=14 dv=0
EndChar

StartChar: aogonek
Encoding: 261 261 178
Width: 511
Flags: MW
HStem: -211 47<354 363> -11 22<197.5 237 416 440.5> 420 22<306.5 343 271.5 349>
VStem: 98 68<101.5 125 85 217> 396 81<326 406.5>
LayerCount: 2
Fore
SplineSet
477 -115 m 0
 449 -172 388 -211 338 -211 c 0
 274 -211 237 -167 247 -121 c 0
 258 -69 312 -22 366 11 c 1
 353 22 344 38 339 59 c 1
 299 10 255 -11 219 -11 c 0
 144 -11 98 59 98 144 c 0
 98 290 216 442 327 442 c 0
 359 442 391 426 410 383 c 1
 411 388 418 422 450 422 c 0
 460 422 477 417 477 396 c 0
 477 391 477 389 473 375 c 2
 405 103 l 2
 398 75 398 59 398 52 c 0
 398 38 398 11 424 11 c 0
 458 11 477 74 491 130 c 0
 497 152 498 153 510 153 c 0
 517 153 525 153 525 143 c 2
 525 143 513 83 495 45 c 0
 480 14 459 -11 422 -11 c 0
 410 -11 399 -9 388 -4 c 1
 348 -28 309 -55 300 -95 c 0
 290 -141 336 -164 372 -164 c 0
 404 -164 437 -144 461 -108 c 0
 468 -98 482 -103 477 -115 c 0
346 124 m 2
 393 313 l 2
 395 319 396 326 396 326 c 1
 396 368 371 420 327 420 c 0
 286 420 240 370 215 309 c 0
 197 267 166 150 166 100 c 0
 166 70 174 11 221 11 c 0
 276 11 338 92 346 124 c 2
EndSplineSet
EndChar

StartChar: Aring
Encoding: 197 197 179
Width: 743
Flags: MW
HStem: 0 31<456.5 472.5 657 676> 229 31<307 516 307 518 290 516> 716 30<548.5 580.5 548.5 558> 862 30<565.5 602>
VStem: 59 633<10.5 12> 477 38<766.5 781 766.5 813> 631 38<826 838.5>
LayerCount: 2
Fore
SplineSet
692 18 m 0xe8
 692 0 680 0 674 0 c 0
 640 0 604 3 569 3 c 0
 531 3 491 0 454 0 c 0
 451 0 439 0 439 12 c 0
 439 31 451 31 462 31 c 0
 505 31 529 43 529 63 c 2
 518 229 l 1
 290 229 l 1
 218 103 l 2
 209 86 204 74 204 65 c 0
 204 34 240 32 246 31 c 0
 254 30 262 30 262 19 c 0
 262 0 249 0 244 0 c 0
 214 0 182 3 151 3 c 0
 125 3 96 0 71 0 c 0
 60 0 59 9 59 12 c 2
 59 12 60 30 71 31 c 0
 106 33 149 37 192 113 c 2
 524 698 l 2
 530 709 534 716 550 716 c 0
 566 716 567 713 568 691 c 2
 611 65 l 2
 613 39 616 31 668 31 c 0
 684 31 692 31 692 18 c 0xe8
516 260 m 1
 493 587 l 1
 307 260 l 1
 516 260 l 1
631 826 m 1x36
 631 851 617 862 587 862 c 0
 515 862 515 781 515 781 c 1
 515 752 538 746 559 746 c 0
 630 746 631 826 631 826 c 1x36
669 825 m 0
 669 769 610 716 551 716 c 0
 515 716 477 737 477 784 c 0
 477 842 537 892 594 892 c 0
 646 892 669 856 669 825 c 0
EndSplineSet
Position2: "'cpsp' Capital Spacing lookup 0 subtable" dx=7 dy=0 dh=14 dv=0
EndChar

StartChar: aring
Encoding: 229 229 180
Width: 511
Flags: MW
HStem: -11 22<197.5 237 411 440.5> 420 22<306.5 343 271.5 349> 529 30<385.5 417.5> 675 30<402.5 439>
VStem: 98 68<101.5 125 85 217> 314 38<579.5 594 579.5 597> 468 38<639 651.5>
LayerCount: 2
Fore
SplineSet
525 143 m 2
 525 143 513 83 495 45 c 0
 480 14 459 -11 422 -11 c 0
 387 -11 350 10 339 59 c 1
 299 10 255 -11 219 -11 c 0
 144 -11 98 59 98 144 c 0
 98 290 216 442 327 442 c 0
 359 442 391 426 410 383 c 1
 411 388 418 422 450 422 c 0
 460 422 477 417 477 396 c 0
 477 391 477 389 473 375 c 2
 405 103 l 2
 398 75 398 59 398 52 c 0
 398 38 398 11 424 11 c 0
 458 11 477 74 491 130 c 0
 497 152 498 153 510 153 c 0
 517 153 525 153 525 143 c 2
346 124 m 2
 393 313 l 2
 395 319 396 326 396 326 c 1
 396 368 371 420 327 420 c 0
 286 420 240 370 215 309 c 0
 197 267 166 150 166 100 c 0
 166 70 174 11 221 11 c 0
 276 11 338 92 346 124 c 2
468 639 m 1x36
 468 664 454 675 424 675 c 0
 352 675 352 594 352 594 c 1
 352 565 375 559 396 559 c 0
 467 559 468 639 468 639 c 1x36
506 638 m 0
 506 582 447 529 388 529 c 0
 352 529 314 550 314 597 c 0
 315 655 374 705 431 705 c 0
 483 705 506 669 506 638 c 0
EndSplineSet
EndChar

StartChar: Aringacute
Encoding: 506 506 181
Width: 743
Flags: MW
HStem: 0 31<456.5 472.5 657 676> 229 31<307 516 307 518 290 516> 716 30<548.5 580.5 548.5 558> 862 30<565.5 602> 1051 20G<701.5 716.5>
VStem: 59 633<10.5 12> 477 38<766.5 781 766.5 813> 631 38<826 838.5>
LayerCount: 2
Fore
SplineSet
692 18 m 0xe4
 692 0 680 0 674 0 c 0
 640 0 604 3 569 3 c 0
 531 3 491 0 454 0 c 0
 451 0 439 0 439 12 c 0
 439 31 451 31 462 31 c 0
 505 31 529 43 529 63 c 2
 518 229 l 1
 290 229 l 1
 218 103 l 2
 209 86 204 74 204 65 c 0
 204 34 240 32 246 31 c 0
 254 30 262 30 262 19 c 0
 262 0 249 0 244 0 c 0
 214 0 182 3 151 3 c 0
 125 3 96 0 71 0 c 0
 60 0 59 9 59 12 c 2
 59 12 60 30 71 31 c 0
 106 33 149 37 192 113 c 2
 524 698 l 2
 530 709 534 716 550 716 c 0
 566 716 567 713 568 691 c 2
 611 65 l 2
 613 39 616 31 668 31 c 0
 684 31 692 31 692 18 c 0xe4
516 260 m 1
 493 587 l 1
 307 260 l 1
 516 260 l 1
631 826 m 1x3b
 631 851 617 862 587 862 c 0
 515 862 515 781 515 781 c 1
 515 752 538 746 559 746 c 0
 630 746 631 826 631 826 c 1x3b
669 825 m 0
 669 769 610 716 551 716 c 0
 515 716 477 737 477 784 c 0
 477 842 537 892 594 892 c 0
 646 892 669 856 669 825 c 0
735 1038 m 0
 732 1022 720 1015 710 1010 c 2
 530 917 l 2
 520 911 518 911 515 912 c 0
 508 913 501 923 502 931 c 0
 503 934 503 936 514 944 c 2
 679 1060 l 2
 688 1066 696 1071 707 1071 c 0
 726 1071 738 1057 735 1038 c 0
EndSplineSet
Position2: "'cpsp' Capital Spacing lookup 0 subtable" dx=7 dy=0 dh=14 dv=0
EndChar

StartChar: aringacute
Encoding: 507 507 182
Width: 511
Flags: MW
HStem: -11 22<197.5 237 411 440.5> 420 22<306.5 343 271.5 349> 529 30<386.5 418.5> 675 30<403.5 440> 864 20G<539.5 554.5>
VStem: 98 68<101.5 125 85 217> 315 38<579.5 594 579.5 626> 469 38<639 651.5>
LayerCount: 2
Fore
SplineSet
525 143 m 2
 525 143 513 83 495 45 c 0
 480 14 459 -11 422 -11 c 0
 387 -11 350 10 339 59 c 1
 299 10 255 -11 219 -11 c 0
 144 -11 98 59 98 144 c 0
 98 290 216 442 327 442 c 0
 359 442 391 426 410 383 c 1
 411 388 418 422 450 422 c 0
 460 422 477 417 477 396 c 0
 477 391 477 389 473 375 c 2
 405 103 l 2
 398 75 398 59 398 52 c 0
 398 38 398 11 424 11 c 0
 458 11 477 74 491 130 c 0
 497 152 498 153 510 153 c 0
 517 153 525 153 525 143 c 2
346 124 m 2
 393 313 l 2
 395 319 396 326 396 326 c 1
 396 368 371 420 327 420 c 0
 286 420 240 370 215 309 c 0
 197 267 166 150 166 100 c 0
 166 70 174 11 221 11 c 0
 276 11 338 92 346 124 c 2
469 639 m 1x3b
 469 664 455 675 425 675 c 0
 353 675 353 594 353 594 c 1
 353 565 376 559 397 559 c 0
 468 559 469 639 469 639 c 1x3b
507 638 m 0
 507 582 448 529 389 529 c 0
 353 529 315 550 315 597 c 0
 315 655 375 705 432 705 c 0
 484 705 507 669 507 638 c 0
573 851 m 0
 570 835 558 828 548 823 c 2
 368 730 l 2
 358 724 356 724 353 725 c 0
 346 726 339 736 340 744 c 0
 341 747 341 749 352 757 c 2
 517 873 l 2
 526 879 534 884 545 884 c 0
 564 884 576 870 573 851 c 0
EndSplineSet
EndChar

StartChar: uni2193
Encoding: 8595 8595 183
Width: 512
Flags: W
LayerCount: 2
Fore
SplineSet
486 58 m 2
 485 52 480 48 475 47 c 0
 360 20 257 -73 221 -184 c 0
 219 -190 213 -194 207 -194 c 0
 202 -194 198 -190 199 -184 c 0
 218 -73 163 20 61 47 c 0
 56 48 54 52 55 58 c 2
 59 76 l 2
 61 83 69 88 76 86 c 0
 147 68 200 20 225 -46 c 1
 405 674 l 2
 411 701 451 701 445 674 c 2
 265 -46 l 1
 322 20 399 68 479 86 c 0
 487 88 492 83 490 76 c 2
 486 58 l 2
EndSplineSet
EndChar

StartChar: uni2190
Encoding: 8592 8592 184
Width: 971
Flags: MW
HStem: -11 21G<284 299.5> 231 40<247 923 233 929> 492 20G<406.5 420.5>
LayerCount: 2
Fore
SplineSet
957 253 m 0
 957 233 936 231 923 231 c 2
 233 231 l 1
 280 183 306 123 313 57 c 1
 313 8 l 2
 313 -4 306 -11 293 -11 c 0
 275 -11 273 -3 273 8 c 2
 273 27 l 2
 273 106 241 178 175 224 c 0
 163 232 140 240 140 252 c 0
 142 264 160 267 170 271 c 0
 265 315 346 395 391 490 c 0
 396 502 397 512 416 512 c 0
 425 512 436 512 436 501 c 0
 436 493 430 482 427 476 c 2
 424 468 l 1
 384 388 321 321 247 271 c 1
 929 271 l 2
 942 271 957 269 957 253 c 0
EndSplineSet
EndChar

StartChar: uni2192
Encoding: 8594 8594 185
Width: 971
Flags: MW
HStem: -10 21G<675.5 689.5> 231 40<160.5 863 173 849> 493 20G<796 812>
LayerCount: 2
Fore
SplineSet
956 250 m 2
 956 240 935 235 926 231 c 0
 831 187 750 107 705 12 c 0
 700 0 699 -10 680 -10 c 0
 671 -10 660 -10 660 1 c 0
 660 9 666 20 669 26 c 2
 672 34 l 1
 712 114 775 181 849 231 c 1
 167 231 l 2
 154 231 139 233 139 249 c 0
 139 269 160 271 173 271 c 2
 863 271 l 1
 816 319 790 379 783 445 c 1
 783 494 l 2
 783 505 789 513 803 513 c 0
 821 513 823 505 823 494 c 2
 823 475 l 2
 823 395 856 323 922 277 c 0
 934 269 956 262 956 252 c 2
 956 250 l 2
EndSplineSet
EndChar

StartChar: uni2191
Encoding: 8593 8593 186
Width: 512
Flags: W
LayerCount: 2
Fore
SplineSet
578 424 m 2
 576 417 568 412 561 414 c 0
 490 432 437 480 412 546 c 1
 232 -174 l 2
 226 -201 186 -201 192 -174 c 2
 372 546 l 1
 315 480 238 432 158 414 c 0
 150 412 145 417 147 424 c 2
 151 442 l 2
 152 448 157 452 162 453 c 0
 277 480 380 573 416 684 c 0
 418 690 424 694 430 694 c 0
 435 694 439 690 438 684 c 0
 419 573 474 480 576 453 c 0
 581 452 583 448 582 442 c 2
 578 424 l 2
EndSplineSet
EndChar

StartChar: asterisk.math
Encoding: 8727 8727 187
Width: 511
Flags: MW
HStem: 36 21G<258 277> 446 20G<359 378>
LayerCount: 2
Fore
SplineSet
466 163 m 0
 466 147 449 131 433 131 c 0
 418 131 406 149 395 160 c 2
 324 229 l 1
 320 181 308 133 300 85 c 0
 298 63 291 36 263 36 c 0
 253 36 244 44 244 55 c 0
 244 66 251 82 256 94 c 2
 284 180 l 2
 290 196 296 212 300 228 c 1
 260 204 222 176 182 151 c 0
 172 144 158 131 144 131 c 0
 133 131 124 141 124 150 c 0
 124 184 199 206 237 223 c 0
 255 233 278 246 296 250 c 1
 287 259 274 265 263 271 c 0
 244 282 226 294 207 305 c 0
 194 314 170 322 170 339 c 0
 170 355 187 371 203 371 c 0
 218 371 230 353 241 342 c 2
 312 273 l 1
 316 321 328 369 336 417 c 0
 338 439 345 466 373 466 c 0
 383 466 392 458 392 447 c 0
 392 436 385 420 380 408 c 2
 352 322 l 2
 346 306 340 290 336 274 c 1
 376 298 414 326 454 351 c 0
 464 358 478 371 492 371 c 0
 503 371 512 361 512 352 c 0
 512 310 334 251 340 252 c 1
 349 243 362 237 373 231 c 0
 392 220 410 208 429 197 c 0
 442 188 466 180 466 163 c 0
EndSplineSet
EndChar

StartChar: Atilde
Encoding: 195 195 188
Width: 743
Flags: MW
HStem: 0 31<456.5 472.5 657 676> 229 31<307 516 307 518 290 516> 696 20G<542 558> 736 35<610 625> 736 100<588.5 722> 737 100 802 35<521 526.5>
VStem: 59 633<10.5 12>
LayerCount: 2
Fore
SplineSet
692 18 m 0xe1
 692 0 680 0 674 0 c 0
 640 0 604 3 569 3 c 0
 531 3 491 0 454 0 c 0
 451 0 439 0 439 12 c 0
 439 31 451 31 462 31 c 0
 505 31 529 43 529 63 c 2
 518 229 l 1
 290 229 l 1
 218 103 l 2
 209 86 204 74 204 65 c 0
 204 34 240 32 246 31 c 0
 254 30 262 30 262 19 c 0
 262 0 249 0 244 0 c 0
 214 0 182 3 151 3 c 0
 125 3 96 0 71 0 c 0
 60 0 59 9 59 12 c 2
 59 12 60 30 71 31 c 0
 106 33 149 37 192 113 c 2
 524 698 l 2
 530 709 534 716 550 716 c 0
 566 716 567 713 568 691 c 2
 611 65 l 2
 613 39 616 31 668 31 c 0
 684 31 692 31 692 18 c 0xe1
516 260 m 1
 493 587 l 1
 307 260 l 1
 516 260 l 1
730 826 m 0x08
 730 817 648 736 602 736 c 0
 575 736 562 757 551 775 c 0
 542 790 534 802 519 802 c 0x12
 489 802 430 744 430 744 c 2
 425 740 422 737 417 737 c 0x04
 410 737 406 741 406 747 c 0
 406 758 459 801 459 801 c 2
 480 817 509 837 533 837 c 0
 560 837 572 819 587 794 c 0
 596 779 604 771 616 771 c 0x12
 646 771 703 825 706 829 c 0
 711 834 714 836 719 836 c 0
 725 836 730 832 730 826 c 0x08
EndSplineSet
Position2: "'cpsp' Capital Spacing lookup 0 subtable" dx=7 dy=0 dh=14 dv=0
EndChar

StartChar: atilde
Encoding: 227 227 189
Width: 511
Flags: MW
HStem: -11 22<197.5 237 411 440.5> 420 22<306.5 343 271.5 349> 550 35<448 463> 550 100<426.5 560> 551 100 616 35<359 364.5>
VStem: 98 68<101.5 125 85 217>
LayerCount: 2
Fore
SplineSet
525 143 m 2xc2
 525 143 513 83 495 45 c 0
 480 14 459 -11 422 -11 c 0
 387 -11 350 10 339 59 c 1
 299 10 255 -11 219 -11 c 0
 144 -11 98 59 98 144 c 0
 98 290 216 442 327 442 c 0
 359 442 391 426 410 383 c 1
 411 388 418 422 450 422 c 0
 460 422 477 417 477 396 c 0
 477 391 477 389 473 375 c 2
 405 103 l 2
 398 75 398 59 398 52 c 0
 398 38 398 11 424 11 c 0
 458 11 477 74 491 130 c 0
 497 152 498 153 510 153 c 0
 517 153 525 153 525 143 c 2xc2
346 124 m 2
 393 313 l 2
 395 319 396 326 396 326 c 1
 396 368 371 420 327 420 c 0
 286 420 240 370 215 309 c 0
 197 267 166 150 166 100 c 0
 166 70 174 11 221 11 c 0
 276 11 338 92 346 124 c 2
568 640 m 0x10
 568 631 486 550 440 550 c 0
 413 550 400 571 389 589 c 0
 380 604 372 616 357 616 c 0x24
 327 616 268 558 268 558 c 2
 263 554 260 551 255 551 c 0x08
 248 551 244 555 244 561 c 0
 244 572 297 615 297 615 c 2
 318 631 347 651 371 651 c 0
 398 651 410 633 425 608 c 0
 434 593 442 585 454 585 c 0x24
 484 585 541 639 544 643 c 0
 549 648 552 650 557 650 c 0
 563 650 568 646 568 640 c 0x10
EndSplineSet
EndChar

StartChar: baht
Encoding: 3647 3647 190
Width: 704
Flags: MW
HStem: 0 31<84 90 90 126 274 329 367 398 398 420> 344 22<323 415 317 420 450 455 455 489> 652 31<255 270.5 417.5 434 434 492 255 522 530 552>
VStem: 646 88<510.5 568.5>
LayerCount: 2
Fore
SplineSet
677 219 m 0
 677 115 562 0 420 0 c 2
 359 0 l 1
 351 -30 l 2
 349 -38 341 -45 333 -45 c 0
 324 -45 319 -38 321 -30 c 2
 329 0 l 1
 90 0 l 2
 74 0 65 0 65 12 c 0
 65 31 76 31 92 31 c 0
 160 31 166 39 174 73 c 2
 309 616 l 2
 313 630 313 632 313 635 c 0
 313 652 286 652 255 652 c 0
 236 652 228 652 228 664 c 0
 228 683 239 683 255 683 c 2
 500 683 l 1
 507 713 l 2
 509 722 518 728 526 728 c 0
 534 728 539 722 537 713 c 2
 530 683 l 1
 566 683 l 2
 675 683 734 619 734 547 c 0
 734 470 660 384 538 357 c 1
 610 348 677 302 677 219 c 0
646 553 m 0
 646 584 636 652 552 652 c 2
 522 652 l 1
 450 366 l 1
 455 366 l 2
 569 366 646 468 646 553 c 0
492 652 m 1
 434 652 l 2
 401 652 394 652 385 616 c 2
 323 366 l 1
 420 366 l 1
 492 652 l 1
588 232 m 0
 588 258 582 344 489 344 c 2
 445 344 l 1
 367 31 l 1
 398 31 l 2
 508 31 588 135 588 232 c 0
337 31 m 1
 415 344 l 1
 317 344 l 1
 247 63 l 2
 246 57 243 47 243 41 c 0
 243 34 243 31 274 31 c 2
 337 31 l 1
EndSplineSet
EndChar

StartChar: Beta
Encoding: 914 914 191
Width: 704
Flags: MW
HStem: 0 31<84 90 90 126 274 398 398 420> 344 22<323 455 455 489 317 455> 652 31<255 270.5 417.5 434 434 552>
VStem: 646 88<510.5 568.5>
LayerCount: 2
Fore
SplineSet
677 219 m 0
 677 115 562 0 420 0 c 2
 90 0 l 2
 74 0 65 0 65 12 c 0
 65 31 76 31 92 31 c 0
 160 31 166 39 174 73 c 2
 309 616 l 2
 313 630 313 632 313 635 c 0
 313 652 286 652 255 652 c 0
 236 652 228 652 228 664 c 0
 228 683 239 683 255 683 c 2
 566 683 l 2
 675 683 734 619 734 547 c 0
 734 470 660 384 538 357 c 1
 610 348 677 302 677 219 c 0
646 553 m 0
 646 584 636 652 552 652 c 2
 434 652 l 2
 401 652 394 652 385 616 c 2
 323 366 l 1
 455 366 l 2
 569 366 646 468 646 553 c 0
588 232 m 0
 588 258 582 344 489 344 c 2
 317 344 l 1
 247 63 l 2
 246 57 243 47 243 41 c 0
 243 34 243 31 274 31 c 2
 398 31 l 2
 508 31 588 135 588 232 c 0
EndSplineSet
EndChar

StartChar: blanksymbol
Encoding: 9250 9250 192
Width: 460
Flags: MW
HStem: -11 22<217.5 255.5 217.5 286> 420 22<320 359.5> 652 42
VStem: 115 57<99 129 69.5 160> 392 67<310 339.5 212.5 347>
LayerCount: 2
Fore
SplineSet
459 286 m 0
 459 139 342 -11 230 -11 c 0
 157 -11 115 57 115 141 c 0
 115 179 125 220 126 223 c 2
 195 496 l 1
 122 436 l 2
 118 433 114 431 110 431 c 0
 102 431 97 438 99 446 c 0
 100 450 102 454 105 456 c 2
 205 540 l 1
 225 618 l 1
 225 618 228 632 228 635 c 0
 228 645 226 652 178 652 c 0
 164 652 154 652 154 663 c 0
 154 682 165 683 177 684 c 2
 276 692 l 2
 279 693 289 694 292 694 c 0
 300 694 306 691 306 682 c 2
 306 682 304 672 303 669 c 2
 288 609 l 1
 345 657 l 2
 348 660 353 661 357 661 c 0
 365 661 370 655 368 646 c 0
 367 642 365 639 361 636 c 2
 277 565 l 1
 233 389 l 1
 267 421 301 442 339 442 c 0
 399 442 459 393 459 286 c 0
336 106 m 0
 365 170 392 289 392 331 c 0
 392 363 382 420 337 420 c 0
 299 420 261 386 232 346 c 0
 217 326 217 324 210 300 c 0
 181 186 172 151 172 107 c 0
 172 32 205 11 230 11 c 0
 281 11 324 81 336 106 c 0
EndSplineSet
EndChar

StartChar: breve
Encoding: 728 728 193
Width: 511
Flags: MW
HStem: 516 36<361.5 414.5 361.5 443> 666 20G<288.5 299 548 555>
LayerCount: 2
Fore
SplineSet
563 676 m 0
 563 647 499 516 387 516 c 0
 316 516 280 573 280 634 c 0
 280 639 280 686 297 686 c 0
 301 686 308 684 308 675 c 2
 308 675 303 652 303 642 c 0
 303 595 332 552 391 552 c 0
 438 552 511 587 539 672 c 0
 542 681 544 686 552 686 c 0
 558 686 563 682 563 676 c 0
EndSplineSet
EndChar

StartChar: uni032E
Encoding: 814 814 194
Width: 0
Flags: MW
HStem: -232 36<-336.5 -283.5 -336.5 -255> -82 20G<-409.5 -399 -150 -143>
LayerCount: 2
Fore
SplineSet
-135 -72 m 0
 -135 -101 -199 -232 -311 -232 c 0
 -382 -232 -418 -175 -418 -114 c 0
 -418 -109 -418 -62 -401 -62 c 0
 -397 -62 -390 -64 -390 -73 c 2
 -390 -73 -395 -96 -395 -106 c 0
 -395 -153 -366 -196 -307 -196 c 0
 -260 -196 -187 -161 -159 -76 c 0
 -156 -67 -154 -62 -146 -62 c 0
 -140 -62 -135 -66 -135 -72 c 0
EndSplineSet
EndChar

StartChar: uni032F
Encoding: 815 815 195
Width: 0
Flags: MW
HStem: -232 21G<-441 -434 -185 -174.5> -98 36<-300.5 -247.5>
LayerCount: 2
Fore
SplineSet
-166 -180 m 0
 -166 -185 -166 -232 -183 -232 c 0
 -187 -232 -194 -230 -194 -221 c 2
 -194 -221 -189 -198 -189 -188 c 0
 -189 -141 -218 -98 -277 -98 c 0
 -324 -98 -397 -133 -425 -218 c 0
 -428 -227 -430 -232 -438 -232 c 0
 -444 -232 -449 -228 -449 -222 c 0
 -449 -193 -385 -62 -273 -62 c 0
 -202 -62 -166 -119 -166 -180 c 0
EndSplineSet
EndChar

StartChar: uni0306
Encoding: 774 774 196
Width: 0
Flags: MW
HStem: 516 36<-149.5 -96.5 -149.5 -68> 666 20G<-222.5 -212 37 44>
LayerCount: 2
Fore
SplineSet
52 676 m 0
 52 647 -12 516 -124 516 c 0
 -195 516 -231 573 -231 634 c 0
 -231 639 -231 686 -214 686 c 0
 -210 686 -203 684 -203 675 c 2
 -203 675 -208 652 -208 642 c 0
 -208 595 -179 552 -120 552 c 0
 -73 552 0 587 28 672 c 0
 31 681 33 686 41 686 c 0
 47 686 52 682 52 676 c 0
EndSplineSet
EndChar

StartChar: uni0311
Encoding: 785 785 197
Width: 0
Flags: MW
HStem: 516 21G<-254 -247 2 12.5> 650 36<-113.5 -60.5>
LayerCount: 2
Fore
SplineSet
21 568 m 0
 21 563 21 516 4 516 c 0
 0 516 -7 518 -7 527 c 2
 -7 527 -2 550 -2 560 c 0
 -2 607 -31 650 -90 650 c 0
 -137 650 -210 615 -238 530 c 0
 -241 521 -243 516 -251 516 c 0
 -257 516 -262 520 -262 526 c 0
 -262 555 -198 686 -86 686 c 0
 -15 686 21 629 21 568 c 0
EndSplineSet
EndChar

StartChar: brokenbar
Encoding: 166 166 198
Width: 278
Flags: MW
HStem: -250 21G<67 87> 730 20G<317 337>
LayerCount: 2
Fore
SplineSet
245 343 m 2
 243 334 231 328 221 328 c 0
 211 328 203 334 205 343 c 2
 298 717 l 2
 302 731 307 750 327 750 c 0
 347 750 342 731 338 717 c 2
 245 343 l 2
105 -217 m 2
 101 -231 97 -250 77 -250 c 0
 57 -250 61 -231 65 -217 c 2
 158 157 l 2
 160 166 172 172 182 172 c 0
 192 172 200 166 198 157 c 2
 105 -217 l 2
EndSplineSet
EndChar

StartChar: bullet
Encoding: 8226 8226 199
Width: 767
Flags: MW
HStem: 81 298<425 459>
LayerCount: 2
Fore
SplineSet
594 258 m 0
 594 174 507 81 411 81 c 0
 338 81 287 129 287 202 c 0
 287 295 380 379 470 379 c 0
 549 379 594 320 594 258 c 0
EndSplineSet
EndChar

